<svg xmlns="http://www.w3.org/2000/svg" xmlns:xlink="http://www.w3.org/1999/xlink" width="500" zoomAndPan="magnify" viewBox="0 0 375 374.999991" height="500" preserveAspectRatio="xMidYMid meet" version="1.0"><defs><clipPath id="0df7b397cb"><path d="M 54.507812 29 L 320 29 L 320 345 L 54.507812 345 Z M 54.507812 29 " clip-rule="nonzero"/></clipPath></defs><g clip-path="url(#0df7b397cb)"><path fill="#3c3c3c" d="M 76.3125 299.539062 C 75.9375 298.152344 71.769531 269.957031 67.457031 239.445312 C 64.378906 217.652344 61.210938 194.675781 59.320312 179.519531 C 58.054688 169.453125 55.707031 158.730469 55.0625 148.109375 C 54.625 140.867188 54.960938 133.667969 56.992188 126.738281 C 57.84375 123.78125 59.339844 121.039062 61.1875 118.4375 C 65.179688 112.820312 70.867188 107.886719 74.847656 102.859375 C 83.371094 92.066406 90.09375 80.503906 98.453125 69.921875 C 102.0625 65.359375 105.96875 60.980469 110.4375 56.914062 C 116.578125 51.351562 123.644531 48.101562 131.152344 46.054688 C 142 43.089844 153.753906 42.660156 164.691406 40.554688 C 191.695312 35.441406 219.335938 28.207031 245.671875 30.21875 C 263.3125 31.570312 280.378906 37.023438 296.296875 49.976562 C 301.679688 54.328125 307.574219 59.519531 312.097656 65.457031 C 315.222656 69.558594 317.703125 74.019531 318.914062 78.839844 C 320.703125 85.886719 318.066406 94.414062 313.554688 102.816406 C 307.421875 114.238281 297.890625 125.464844 292.253906 132.238281 C 289.378906 135.691406 286.933594 139.347656 284.75 143.117188 C 275.570312 158.96875 270.890625 176.820312 259.316406 191.207031 C 253.964844 197.820312 247.222656 202.847656 240.632812 207.90625 C 236.363281 211.1875 232.152344 214.476562 228.53125 218.347656 C 224.882812 222.25 221.8125 226.734375 219.890625 232.394531 C 215.972656 243.898438 215.539062 255.445312 215.324219 266.667969 C 215.089844 279.035156 215.101562 291.015625 211.386719 302.160156 C 208.421875 311.058594 203.117188 319.449219 193.421875 327.066406 C 175.734375 341.320312 150.273438 346.929688 127.425781 342.90625 C 104.121094 338.800781 83.5625 324.6875 76.3125 299.539062 Z M 80.851562 298.269531 C 87.230469 321.875 106.355469 335.25 128.070312 339.394531 C 149.980469 343.574219 174.535156 338.410156 191.699219 324.90625 C 200.761719 317.589844 205.703125 309.628906 208.378906 301.183594 C 211.828125 290.300781 211.550781 278.648438 211.589844 266.625 C 211.621094 254.992188 211.933594 243.023438 215.796875 231.039062 C 217.847656 224.703125 221.167969 219.648438 225.183594 215.253906 C 228.933594 211.148438 233.285156 207.617188 237.765625 204.175781 C 244.074219 199.324219 250.644531 194.652344 255.820312 188.355469 C 267.4375 174.316406 272.222656 156.722656 281.5 141.207031 C 283.835938 137.289062 286.453125 133.503906 289.515625 129.925781 C 295.140625 123.355469 304.683594 112.480469 310.84375 101.339844 C 315.066406 93.710938 317.746094 85.980469 316.175781 79.515625 C 315.082031 75.050781 312.8125 70.910156 309.917969 67.117188 C 305.53125 61.359375 299.738281 56.402344 294.496094 52.214844 C 278.992188 39.890625 262.464844 34.804688 245.421875 33.703125 C 219.382812 32.019531 192.171875 39.578125 165.554688 44.957031 C 154.738281 47.105469 143.125 47.675781 132.375 50.566406 C 125.527344 52.402344 119.011719 55.179688 113.351562 60.167969 C 108.984375 63.996094 105.152344 68.140625 101.605469 72.460938 C 93.058594 82.871094 86.128906 94.300781 77.414062 104.921875 C 73.378906 109.851562 67.632812 114.644531 63.585938 120.167969 C 61.898438 122.46875 60.511719 124.902344 59.722656 127.539062 C 57.777344 134.152344 57.429688 141.023438 57.878906 147.933594 C 58.566406 158.488281 61.078125 169.117188 62.445312 179.113281 C 64.519531 194.226562 67.957031 217.144531 71.3125 238.875 C 75.972656 269.035156 80.460938 296.90625 80.851562 298.269531 Z M 95.839844 282.695312 C 91.878906 273.914062 89.144531 265.195312 87.105469 256.464844 C 82.308594 235.910156 81.386719 215.296875 77.058594 193.613281 C 74.8125 182.417969 71.726562 170.242188 70.722656 158.210938 C 70.03125 149.96875 70.300781 141.789062 72.507812 134.015625 C 73.789062 129.332031 75.746094 125.207031 78.089844 121.371094 C 83.5 112.507812 91.042969 105.257812 97.148438 96.351562 C 101.355469 90.214844 104.742188 82.855469 108.925781 76.335938 C 110.832031 73.367188 112.898438 70.574219 115.257812 68.117188 C 119.164062 64.058594 123.929688 61.523438 129.160156 59.882812 C 133.695312 58.457031 138.582031 57.707031 143.511719 57.148438 C 150.65625 56.339844 157.898438 55.96875 164.242188 54.238281 C 188.59375 47.65625 210.507812 39.496094 232.5625 39.308594 C 247.21875 39.183594 261.941406 42.53125 277.460938 52.15625 C 282.371094 55.183594 287.40625 58.558594 291.738281 62.585938 C 294.691406 65.332031 297.316406 68.375 299.351562 71.839844 C 302.695312 77.472656 302.609375 83.386719 300.941406 89.265625 C 298.644531 97.339844 293.25 105.351562 290.175781 112.339844 C 284.195312 125.949219 277.128906 138.769531 268.878906 150.78125 C 260.621094 162.800781 251.175781 174.003906 240.453125 184.402344 C 237.507812 187.234375 234.121094 189.65625 230.621094 191.960938 C 227.308594 194.144531 223.894531 196.21875 220.738281 198.539062 C 218.09375 200.480469 215.621094 202.578125 213.558594 205.066406 C 204.164062 216.363281 202.917969 230.066406 202.71875 244.054688 C 202.511719 258.722656 203.429688 273.691406 198.445312 286.855469 C 195.988281 293.339844 192.144531 299.414062 186.007812 304.808594 C 183.332031 307.191406 180.40625 309.28125 177.339844 311.15625 C 172.789062 313.9375 167.910156 316.226562 163.035156 318.253906 C 156.613281 320.929688 148.582031 323.046875 140.882812 322.976562 C 135.496094 322.925781 130.277344 321.796875 125.824219 319.117188 C 122.984375 317.417969 120.476562 315.273438 118.15625 312.890625 C 113.074219 307.667969 108.949219 301.25 104.09375 296.046875 C 103.269531 295.167969 101.863281 293.054688 100.445312 290.722656 C 98.207031 287.042969 95.90625 282.832031 95.90625 282.832031 C 95.886719 282.785156 95.863281 282.742188 95.839844 282.695312 Z M 100.085938 280.652344 L 100.097656 280.667969 C 100.453125 281.335938 102.996094 286.054688 105.152344 289.628906 C 106.054688 291.128906 106.863281 292.421875 107.40625 293.023438 C 112.136719 298.3125 116.113281 304.800781 121.074219 310.113281 C 123.109375 312.292969 125.3125 314.269531 127.828125 315.851562 C 131.679688 318.265625 136.238281 319.289062 140.949219 319.417969 C 148.183594 319.617188 155.761719 317.726562 161.839844 315.316406 C 165.8125 313.734375 169.792969 311.980469 173.585938 309.910156 C 177.347656 307.855469 180.925781 305.496094 184.144531 302.695312 C 189.878906 297.625 193.507812 291.945312 195.742188 285.851562 C 200.46875 272.960938 199.128906 258.339844 199.074219 244.035156 C 199.015625 229.101562 200.324219 214.511719 210.128906 202.265625 C 212.382812 199.460938 215.082031 197.0625 218.003906 194.859375 C 221.199219 192.453125 224.652344 190.277344 228.03125 188.039062 C 231.292969 185.886719 234.488281 183.679688 237.246094 181.050781 C 247.90625 171.007812 257.320312 160.152344 265.59375 148.488281 C 273.894531 136.789062 281.054688 124.285156 287.148438 110.980469 C 290.277344 104.152344 295.753906 96.363281 298.113281 88.441406 C 299.632812 83.339844 299.816406 78.183594 296.953125 73.242188 C 295.0625 70.015625 292.617188 67.164062 289.855469 64.617188 C 285.648438 60.730469 280.722656 57.527344 275.945312 54.636719 C 260.898438 45.582031 246.707031 42.519531 232.617188 42.828125 C 210.863281 43.308594 189.371094 51.734375 165.441406 58.5625 C 158.898438 60.410156 151.425781 60.949219 144.046875 61.800781 C 139.40625 62.339844 134.804688 63 130.515625 64.292969 C 125.984375 65.660156 121.800781 67.710938 118.359375 71.15625 C 116.144531 73.371094 114.195312 75.90625 112.382812 78.601562 C 108.046875 85.058594 104.484375 92.371094 100.136719 98.445312 C 94.757812 105.945312 88.332031 112.199219 83.113281 119.335938 C 79.761719 123.914062 76.925781 128.867188 75.210938 134.777344 C 73.128906 142.230469 72.886719 150.070312 73.613281 157.957031 C 74.710938 169.863281 77.984375 181.875 80.347656 192.933594 C 84.984375 214.492188 86.191406 235.035156 91.285156 255.457031 C 93.375 263.859375 96.136719 272.230469 100.085938 280.652344 Z M 103.054688 258.207031 L 103.054688 258.203125 C 100.550781 250.378906 99.066406 242.910156 98.039062 235.488281 C 96.480469 224.25 95.964844 213.121094 94.433594 201.003906 C 93.191406 191.210938 90.222656 181.488281 88.664062 171.636719 C 87.976562 167.304688 87.558594 162.949219 87.652344 158.558594 C 87.761719 153.367188 88.921875 148.429688 90.691406 143.652344 C 91.902344 140.390625 93.40625 137.210938 95.019531 134.058594 C 98.707031 126.859375 103.058594 119.859375 106.367188 112.785156 C 109.121094 106.839844 111.296875 100.832031 114.28125 95.222656 C 116.324219 91.378906 118.746094 87.730469 121.945312 84.398438 C 125.847656 80.324219 130.480469 77.613281 135.519531 75.683594 C 142.183594 73.128906 149.554688 71.925781 156.804688 70.660156 C 161.496094 69.839844 166.132812 69.019531 170.464844 67.636719 C 181.316406 64.21875 191.253906 58.246094 201.773438 53.925781 C 206.441406 52.015625 211.214844 50.421875 216.21875 49.476562 C 227.914062 47.265625 239.546875 49.78125 249.316406 55.597656 C 258.972656 61.351562 266.816406 70.316406 271.042969 81.109375 C 274.246094 89.117188 275.367188 96.773438 274.960938 104.070312 C 274.523438 111.957031 272.28125 119.445312 268.742188 126.539062 C 258.800781 146.464844 238.699219 163.246094 221.679688 176.796875 C 215.695312 181.53125 208.90625 184.726562 203.140625 189.375 C 200.863281 191.210938 198.734375 193.269531 196.929688 195.816406 C 193.144531 201.097656 191 207.453125 189.878906 214.152344 C 188.167969 224.371094 188.824219 235.363281 189.945312 244.734375 C 190.558594 249.867188 191.765625 255.425781 191.988281 260.867188 C 192.152344 264.710938 191.832031 268.5 190.542969 272.0625 C 188.75 277.058594 184.46875 281.890625 178.84375 286.152344 C 174.304688 289.589844 168.898438 292.683594 163.1875 295.113281 C 150.425781 300.539062 136.246094 302.628906 127.417969 298.886719 C 123.1875 297.101562 119.785156 294.203125 116.902344 290.757812 C 112.808594 285.863281 109.796875 279.824219 106.914062 274.40625 C 106.410156 273.460938 105.8125 271.53125 105.261719 269.277344 C 104.207031 264.9375 103.242188 259.308594 103.054688 258.207031 Z M 107.679688 257.277344 C 107.679688 257.277344 108.4375 262.273438 109.34375 266.707031 C 109.839844 269.144531 110.335938 271.40625 110.828125 272.386719 C 113.457031 277.628906 116.160156 283.488281 119.960938 288.261719 C 122.386719 291.304688 125.253906 293.902344 128.878906 295.53125 C 136.992188 299.15625 150.144531 297.199219 162.046875 292.371094 C 167.570312 290.128906 172.839844 287.277344 177.195312 283.976562 C 182.308594 280.101562 186.160156 275.640625 187.722656 271.078125 C 188.808594 267.863281 189 264.464844 188.785156 261.03125 C 188.449219 255.679688 187.128906 250.238281 186.414062 245.191406 C 185.042969 235.507812 184.140625 224.121094 185.699219 213.496094 C 186.789062 206.089844 189.082031 199.054688 193.144531 193.15625 C 195.1875 190.21875 197.574219 187.808594 200.1875 185.707031 C 205.988281 181.050781 212.878906 177.980469 218.945312 173.300781 C 235.820312 160.363281 255.863281 144.40625 265.90625 125.09375 C 269.371094 118.433594 271.667969 111.371094 272.144531 103.902344 C 272.585938 96.992188 271.464844 89.742188 268.429688 82.152344 C 264.308594 72.054688 256.828125 63.699219 247.660156 58.425781 C 238.539062 53.179688 227.742188 51 216.960938 53.21875 C 212.230469 54.191406 207.734375 55.789062 203.347656 57.671875 C 192.773438 62.207031 182.804688 68.375 171.878906 72 C 167.359375 73.484375 162.519531 74.460938 157.609375 75.300781 C 150.625 76.488281 143.5 77.4375 137.035156 79.761719 C 132.53125 81.386719 128.339844 83.65625 124.785156 87.1875 C 121.769531 90.183594 119.46875 93.492188 117.5 96.984375 C 114.410156 102.457031 112.121094 108.351562 109.25 114.164062 C 105.058594 122.765625 99.179688 131.171875 95.152344 140.140625 C 92.519531 146 90.71875 152.105469 90.660156 158.601562 C 90.632812 162.8125 91.105469 166.972656 91.828125 171.109375 C 93.550781 180.976562 96.679688 190.695312 98.089844 200.511719 C 99.832031 212.574219 100.539062 223.671875 102.292969 234.859375 C 103.425781 242.074219 104.996094 249.324219 107.585938 256.902344 C 107.628906 257.027344 107.660156 257.152344 107.679688 257.277344 Z M 111.8125 249.539062 L 111.808594 249.527344 C 108.0625 234.679688 102.339844 218.492188 99.390625 202.328125 C 97.359375 191.191406 96.621094 180.070312 98.703125 169.386719 C 99.523438 165.136719 100.953125 161.164062 102.691406 157.328125 C 104.296875 153.792969 106.191406 150.390625 108.09375 146.976562 C 110.878906 141.984375 113.707031 136.988281 115.925781 131.703125 C 118.816406 124.757812 121.355469 117.613281 124.785156 110.960938 C 127.136719 106.40625 129.90625 102.089844 133.457031 98.195312 C 136.851562 94.492188 140.675781 92.332031 144.761719 91.03125 C 148.550781 89.824219 152.570312 89.359375 156.667969 89.058594 C 162.195312 88.65625 167.878906 88.578125 173.300781 86.859375 C 182.511719 83.972656 190.480469 78.457031 199.097656 74.417969 C 202.953125 72.613281 206.933594 71.082031 211.1875 70.171875 C 221.179688 68.027344 231.664062 70.789062 240.425781 76.429688 C 249.109375 82.019531 256.105469 90.414062 259.148438 99.582031 C 261.542969 106.511719 261.511719 112.449219 259.867188 117.773438 C 257.371094 125.847656 251.050781 132.535156 243.363281 139.101562 C 232.5 148.378906 219.796875 156.667969 208.683594 166.25 C 203.972656 170.3125 199.527344 174.589844 195.691406 179.34375 C 192.679688 182.972656 190.203125 187.097656 188.210938 191.449219 C 186.199219 195.855469 184.667969 200.492188 183.609375 205.117188 C 181.226562 215.539062 183.496094 229.097656 182.554688 240.972656 C 182.105469 246.652344 180.960938 251.96875 178.332031 256.449219 C 172.171875 267.414062 159.460938 274.664062 146.839844 276.179688 C 133.316406 277.808594 119.972656 272.835938 114.292969 259.132812 C 113.996094 258.421875 113.542969 256.847656 113.113281 255.152344 C 112.488281 252.6875 111.898438 249.945312 111.8125 249.539062 Z M 116.414062 248.523438 C 116.414062 248.523438 117.15625 252.1875 117.824219 254.980469 C 118.082031 256.054688 118.308594 256.988281 118.488281 257.460938 C 123.082031 269.480469 134.703125 273.84375 146.46875 272.71875 C 158.164062 271.597656 170.0625 265.109375 175.960938 255.085938 C 178.304688 250.921875 179.25 246.003906 179.550781 240.765625 C 180.238281 228.671875 177.597656 214.945312 179.75 204.285156 C 180.742188 199.363281 182.226562 194.410156 184.25 189.695312 C 186.296875 184.929688 188.90625 180.417969 192.085938 176.417969 C 196.121094 171.46875 200.75 166.96875 205.734375 162.785156 C 216.996094 153.335938 229.976562 145.398438 241.058594 136.34375 C 247.085938 131.421875 252.320312 126.460938 255.359375 120.667969 C 258.351562 114.964844 259.160156 108.464844 256.527344 100.464844 C 253.59375 91.929688 246.984375 84.125 238.785156 79.019531 C 230.707031 73.988281 221.074219 71.585938 211.988281 73.726562 C 208.03125 74.65625 204.347656 76.164062 200.78125 77.921875 C 192.066406 82.21875 184.023438 87.964844 174.675781 91.09375 C 168.929688 92.996094 162.898438 93.289062 157.015625 93.734375 C 153.273438 94.015625 149.597656 94.363281 146.113281 95.402344 C 142.695312 96.425781 139.460938 98.101562 136.558594 101.109375 C 133.148438 104.632812 130.460938 108.585938 128.148438 112.757812 C 124.570312 119.21875 121.867188 126.191406 118.8125 132.953125 C 116.433594 138.285156 113.378906 143.269531 110.507812 148.332031 C 108.621094 151.65625 106.824219 155.019531 105.296875 158.492188 C 103.691406 162.132812 102.410156 165.910156 101.699219 169.9375 C 99.890625 180.261719 100.816406 190.953125 102.992188 201.632812 C 106.261719 217.683594 112.339844 233.691406 116.386719 248.40625 C 116.398438 248.445312 116.40625 248.484375 116.414062 248.523438 Z M 113.8125 211.042969 L 113.8125 211.023438 C 110.710938 197.519531 110.816406 184.777344 113.402344 172.507812 C 115.984375 160.253906 121.027344 148.46875 127.894531 136.902344 C 130.332031 132.609375 132.429688 127.785156 135.101562 123.441406 C 136.988281 120.382812 139.160156 117.554688 141.953125 115.296875 C 145.679688 112.28125 150.105469 110.199219 154.792969 108.574219 C 161.441406 106.261719 168.621094 104.890625 174.953125 102.882812 C 181.171875 101.0625 186.875 97.363281 192.570312 93.765625 C 198.742188 89.867188 204.898438 86.074219 211.453125 84.375 C 217.183594 82.894531 223.226562 82.960938 229.871094 85.921875 C 233.007812 87.320312 236.019531 89.136719 238.289062 91.597656 C 239.859375 93.304688 241.09375 95.308594 241.78125 97.691406 C 243.070312 102.097656 242.824219 106.667969 241.664062 111.113281 C 239.996094 117.507812 236.40625 123.660156 232.609375 128.539062 C 229.757812 132.28125 226.535156 135.492188 223.085938 138.390625 C 214.835938 145.324219 205.257812 150.398438 196.292969 156.40625 C 190.585938 160.230469 185.128906 164.4375 180.5 169.851562 C 178.402344 172.214844 176.792969 174.824219 175.511719 177.59375 C 174.203125 180.429688 173.222656 183.429688 172.503906 186.550781 C 170.058594 197.023438 170.632812 216.546875 165.078125 229.429688 C 163.34375 233.457031 161.039062 236.859375 157.890625 239.269531 C 153.695312 242.480469 148.011719 243.980469 140.113281 242.609375 C 137.765625 242.207031 135.476562 241.476562 133.289062 240.507812 C 131.121094 239.546875 129.058594 238.339844 127.140625 236.976562 C 124.574219 235.164062 122.496094 233.152344 120.714844 230.910156 C 118.941406 228.671875 117.484375 226.183594 116.175781 223.398438 C 115.824219 222.648438 115.429688 221.144531 115.085938 219.390625 C 114.449219 216.140625 113.925781 211.953125 113.8125 211.042969 Z M 118.480469 210.367188 C 118.480469 210.367188 118.839844 214.109375 119.324219 217.445312 C 119.582031 219.230469 119.828125 220.894531 120.140625 221.625 C 121.210938 224.152344 122.414062 226.414062 123.917969 228.46875 C 125.402344 230.492188 127.160156 232.3125 129.34375 233.984375 C 131.027344 235.261719 132.839844 236.40625 134.757812 237.328125 C 136.664062 238.242188 138.660156 238.953125 140.722656 239.371094 C 147.515625 240.742188 152.519531 239.742188 156.179688 237.007812 C 158.972656 234.925781 160.984375 231.886719 162.449219 228.324219 C 167.726562 215.480469 166.246094 196.089844 168.328125 185.648438 C 169.015625 182.199219 169.972656 178.867188 171.347656 175.722656 C 172.75 172.511719 174.597656 169.507812 176.96875 166.761719 C 182.007812 161.144531 187.855469 156.785156 194 152.890625 C 203.019531 147.179688 212.667969 142.484375 221.011719 135.855469 C 224.367188 133.195312 227.507812 130.21875 230.308594 126.738281 C 233.324219 122.921875 236.28125 118.292969 238.050781 113.34375 C 239.773438 108.523438 240.359375 103.410156 238.851562 98.578125 C 238.101562 96.210938 236.671875 94.34375 234.894531 92.832031 C 233.039062 91.25 230.800781 90.058594 228.503906 89.105469 C 222.667969 86.679688 217.421875 86.738281 212.484375 88.152344 C 205.125 90.253906 198.457031 95.300781 191.511719 99.753906 C 186.632812 102.882812 181.621094 105.722656 176.28125 107.339844 C 169.914062 109.117188 162.71875 110.246094 156.015625 112.304688 C 151.679688 113.640625 147.550781 115.351562 144.039062 117.976562 C 141.464844 119.90625 139.417969 122.363281 137.65625 125.0625 C 134.894531 129.296875 132.796875 134.082031 130.316406 138.300781 C 123.898438 149.695312 119.199219 161.246094 116.988281 173.214844 C 114.8125 185.015625 115.074219 197.21875 118.425781 210.054688 C 118.449219 210.15625 118.46875 210.261719 118.480469 210.367188 Z M 123.867188 181.039062 C 124.398438 176.847656 124.929688 172.84375 125.757812 168.871094 C 126.320312 166.164062 127.015625 163.472656 127.9375 160.746094 C 131.886719 149 137.355469 141.453125 144.003906 135.761719 C 147.390625 132.859375 151.109375 130.476562 155.066406 128.203125 C 163.070312 123.605469 172.164062 119.585938 182.15625 113.90625 L 190.15625 109.238281 C 192.40625 107.914062 197.167969 105.277344 202.375 103.265625 C 207.128906 101.433594 212.246094 100.152344 216.21875 100.550781 C 218.863281 100.816406 221.0625 101.773438 222.558594 103.605469 C 223.773438 105.09375 224.578125 107.1875 224.617188 110.09375 C 224.671875 114.160156 223.175781 117.445312 220.800781 120.152344 C 217.539062 123.875 212.59375 126.480469 208.1875 128.550781 C 204.664062 130.253906 200.804688 131.820312 196.859375 133.488281 C 191.335938 135.820312 185.621094 138.296875 180.238281 141.117188 C 174.160156 144.296875 168.550781 147.976562 164.285156 152.648438 C 159.671875 157.644531 157.402344 162.945312 156.101562 168.347656 C 154.746094 173.96875 154.417969 179.734375 154.191406 185.546875 C 153.839844 194.617188 153.527344 203.726562 149.40625 212.296875 C 147.691406 216.046875 145.695312 218.035156 143.710938 218.878906 C 140.90625 220.078125 137.902344 219.105469 135.023438 216.730469 C 128.960938 211.722656 123.449219 200.320312 122.386719 195.847656 C 122.15625 194.894531 122.175781 193.046875 122.378906 190.929688 C 122.757812 186.949219 123.707031 181.886719 123.867188 181.039062 Z M 128.5 181.898438 C 128.5 181.898438 127.5 186.195312 126.859375 190.082031 C 126.519531 192.152344 126.210938 194.082031 126.378906 194.992188 C 127.164062 199.089844 131.671875 209.683594 137.003906 214.425781 C 138.847656 216.070312 140.757812 217.066406 142.625 216.292969 C 144.148438 215.664062 145.511719 213.992188 146.808594 211.117188 C 150.371094 202.796875 150.1875 194.109375 150.175781 185.472656 C 150.164062 179.332031 150.144531 173.199219 151.542969 167.265625 C 152.980469 161.148438 155.886719 155.273438 161.246094 149.765625 C 164.855469 146.105469 169.257812 143.070312 174.074219 140.441406 C 180.304688 137.035156 187.238281 134.355469 193.890625 131.664062 C 198.472656 129.816406 202.90625 127.933594 206.921875 125.964844 C 210.894531 123.949219 215.390625 121.5 218.265625 118.003906 C 220.019531 115.867188 221.113281 113.320312 220.964844 110.207031 C 220.871094 108.226562 220.359375 106.824219 219.445312 105.90625 C 217.902344 104.363281 215.378906 104.339844 212.574219 104.789062 C 208.632812 105.421875 204.175781 107.265625 200.355469 109.085938 C 196.992188 110.691406 194.117188 112.296875 192.550781 113.238281 C 191.445312 113.871094 190.335938 114.488281 189.210938 115.085938 C 187.542969 115.972656 185.863281 116.820312 184.179688 117.675781 C 173.933594 122.871094 164.53125 126.210938 156.453125 130.664062 C 152.632812 132.765625 149.136719 135.15625 145.964844 138 C 139.851562 143.480469 135.039062 150.804688 131.710938 161.941406 C 130.9375 164.539062 130.378906 167.097656 129.941406 169.664062 C 129.273438 173.585938 128.90625 177.527344 128.539062 181.660156 C 128.53125 181.738281 128.519531 181.820312 128.5 181.898438 Z M 128.5 181.898438 " fill-opacity="1" fill-rule="evenodd"/></g></svg>