<svg xmlns="http://www.w3.org/2000/svg" xmlns:xlink="http://www.w3.org/1999/xlink" width="500" zoomAndPan="magnify" viewBox="0 0 375 374.999991" height="500" preserveAspectRatio="xMidYMid meet" version="1.0"><defs><clipPath id="64b337fc1f"><path d="M 188 259 L 328 259 L 328 330.5 L 188 330.5 Z M 188 259 " clip-rule="nonzero"/></clipPath></defs><rect x="-37.5" width="450" fill="#ffffff" y="-37.499999" height="449.999989" fill-opacity="1"/><rect x="-37.5" width="450" fill="#ffffff" y="-37.499999" height="449.999989" fill-opacity="1"/><g clip-path="url(#64b337fc1f)"><path fill="#231f20" d="M 207.828125 330.457031 C 204.867188 330.457031 202.125 329.835938 199.671875 328.597656 C 194.65625 326.058594 191.015625 321.019531 189.414062 314.40625 C 187.933594 308.28125 188.351562 301.5 190.589844 295.308594 C 193.046875 288.5 197.445312 283.078125 203.300781 279.625 C 210.359375 275.457031 218.207031 271.835938 226.625 268.855469 C 234.945312 265.933594 243.441406 263.683594 252.117188 262.109375 C 269.171875 258.980469 287.085938 258.253906 303.925781 260.011719 C 310.917969 260.738281 318.082031 262.078125 323.113281 266.886719 C 325.992188 269.644531 327.699219 274.03125 327.457031 278.066406 C 327.265625 281.203125 325.9375 283.851562 323.691406 285.523438 C 320.492188 287.921875 316.214844 288.011719 312.121094 287.898438 C 309.96875 287.839844 307.765625 287.761719 305.640625 287.6875 C 296.199219 287.351562 286.433594 287.007812 276.933594 288.1875 C 263.726562 289.824219 252.730469 294.4375 245.152344 301.523438 C 241.839844 304.617188 238.953125 308.363281 236.15625 311.984375 C 231.261719 318.332031 226.199219 324.890625 218.753906 328.023438 L 218.597656 327.65625 L 218.753906 328.023438 C 214.902344 329.644531 211.21875 330.457031 207.828125 330.457031 Z M 285.636719 259.875 C 274.421875 259.875 263.296875 260.882812 252.261719 262.898438 C 234.183594 266.214844 217.394531 272.234375 203.703125 280.3125 C 191.230469 287.675781 187.460938 302.9375 190.191406 314.21875 C 191.730469 320.601562 195.226562 325.453125 200.03125 327.886719 C 205.074219 330.4375 211.445312 330.234375 218.449219 327.289062 C 225.699219 324.242188 230.476562 318.046875 235.527344 311.496094 C 238.339844 307.851562 241.25 304.082031 244.609375 300.941406 C 248.703125 297.109375 253.742188 293.992188 259.582031 291.675781 C 264.757812 289.617188 270.5625 288.175781 276.835938 287.398438 C 286.398438 286.210938 296.195312 286.558594 305.667969 286.890625 C 307.792969 286.964844 309.988281 287.042969 312.140625 287.101562 C 316.101562 287.210938 320.214844 287.128906 323.214844 284.886719 C 325.261719 283.355469 326.484375 280.917969 326.65625 278.019531 C 326.886719 274.210938 325.277344 270.070312 322.558594 267.46875 C 317.703125 262.820312 310.695312 261.519531 303.839844 260.808594 C 297.789062 260.183594 291.722656 259.871094 285.636719 259.875 Z M 285.636719 259.875 " fill-opacity="1" fill-rule="nonzero"/></g><path fill="#231f20" d="M 203.007812 322.597656 C 199.40625 322.597656 196.097656 321.753906 193.167969 320.058594 C 188.480469 317.347656 185.039062 312.617188 183.210938 306.375 C 181.289062 299.886719 181.539062 292.230469 183.902344 285.375 C 186.269531 278.464844 190.59375 272.835938 196.410156 269.085938 C 198.75 267.574219 201.195312 266.132812 203.6875 264.808594 C 218.820312 256.742188 236.339844 252.601562 248.203125 250.191406 C 264.078125 246.964844 281.125 244.042969 298.222656 244.527344 C 300.304688 244.589844 302.355469 244.703125 304.3125 244.863281 C 307.449219 245.117188 310.128906 245.515625 312.496094 246.070312 C 317.867188 247.324219 322.117188 249.566406 325.136719 252.730469 C 327.273438 254.96875 328.757812 258.105469 329.207031 261.335938 C 329.679688 264.722656 329.003906 267.894531 327.304688 270.261719 C 326.691406 271.121094 325.960938 271.859375 325.109375 272.480469 C 321.628906 275.019531 316.9375 275.117188 312.816406 275.007812 C 312.136719 274.988281 311.433594 274.964844 310.671875 274.941406 C 309.042969 274.882812 307.378906 274.8125 305.777344 274.738281 C 301.59375 274.558594 297.261719 274.371094 293.015625 274.40625 C 286.742188 274.457031 281.054688 274.96875 275.628906 275.96875 C 272.367188 276.566406 269.15625 277.371094 266 278.390625 C 256.902344 281.335938 249.1875 285.855469 243.0625 291.816406 C 239.773438 295.019531 236.824219 298.785156 233.96875 302.425781 C 230.644531 306.671875 227.203125 311.058594 223.222656 314.558594 C 220.53125 316.925781 217.816406 318.675781 214.917969 319.914062 C 210.71875 321.703125 206.710938 322.597656 203.007812 322.597656 Z M 248.28125 250.582031 L 248.363281 250.972656 C 236.546875 253.375 219.101562 257.496094 204.0625 265.511719 C 201.589844 266.828125 199.160156 268.253906 196.839844 269.757812 C 191.175781 273.40625 186.957031 278.898438 184.65625 285.632812 C 182.34375 292.335938 182.097656 299.8125 183.972656 306.144531 C 185.746094 312.191406 189.0625 316.761719 193.566406 319.367188 C 196.367188 320.988281 199.546875 321.796875 203.007812 321.796875 C 206.601562 321.796875 210.503906 320.921875 214.609375 319.175781 C 217.425781 317.976562 220.070312 316.265625 222.699219 313.957031 C 226.628906 310.507812 230.039062 306.148438 233.34375 301.933594 C 236.214844 298.269531 239.183594 294.480469 242.507812 291.242188 C 248.71875 285.195312 256.539062 280.613281 265.75 277.628906 C 268.941406 276.601562 272.1875 275.785156 275.484375 275.179688 C 280.957031 274.171875 286.691406 273.65625 293.007812 273.605469 C 297.273438 273.570312 301.613281 273.757812 305.808594 273.941406 C 307.414062 274.007812 309.070312 274.082031 310.699219 274.140625 C 311.460938 274.167969 312.160156 274.1875 312.835938 274.207031 C 316.828125 274.316406 321.363281 274.230469 324.640625 271.835938 C 325.421875 271.265625 326.09375 270.585938 326.65625 269.796875 C 329.824219 265.363281 328.867188 257.796875 324.558594 253.28125 C 321.644531 250.234375 317.527344 248.066406 312.3125 246.847656 C 309.980469 246.300781 307.34375 245.910156 304.246094 245.65625 C 302.300781 245.496094 300.265625 245.386719 298.195312 245.324219 C 281.183594 244.84375 264.1875 247.753906 248.359375 250.972656 Z M 248.28125 250.582031 " fill-opacity="1" fill-rule="nonzero"/><path fill="#231f20" d="M 198.132812 315.300781 C 194.46875 315.300781 191.066406 314.488281 188.023438 312.867188 C 183.015625 310.199219 179.199219 305.367188 176.976562 298.902344 C 174.644531 292.101562 174.621094 284.234375 176.90625 276.746094 C 179.132812 269.386719 183.488281 263.292969 189.496094 259.101562 C 191.941406 257.390625 194.460938 255.808594 197.066406 254.359375 C 211.101562 246.53125 227.398438 242.542969 244.261719 238.828125 C 246.730469 238.28125 249.222656 237.71875 251.632812 237.175781 C 267.527344 233.589844 282.539062 230.195312 298.035156 230.082031 C 300.324219 230.070312 302.558594 230.132812 304.679688 230.269531 C 308.050781 230.484375 310.96875 230.902344 313.609375 231.539062 C 319.375 232.933594 323.925781 235.484375 327.132812 239.128906 C 329.289062 241.578125 330.742188 244.929688 331.113281 248.324219 C 331.503906 251.894531 330.703125 255.222656 328.859375 257.691406 C 328.195312 258.578125 327.410156 259.347656 326.507812 259.992188 C 322.746094 262.683594 317.8125 262.785156 313.488281 262.671875 C 312.761719 262.652344 312 262.628906 311.214844 262.597656 C 309.46875 262.527344 307.6875 262.4375 305.96875 262.351562 C 301.554688 262.128906 296.984375 261.898438 292.515625 261.996094 C 286.359375 262.117188 280.289062 262.886719 274.296875 264.308594 C 270.921875 265.113281 267.621094 266.144531 264.386719 267.40625 C 255.371094 270.929688 247.484375 276.066406 240.949219 282.667969 C 237.710938 285.9375 234.730469 289.695312 231.84375 293.328125 C 228.132812 298.007812 224.292969 302.84375 219.859375 306.699219 C 217.007812 309.183594 214.128906 311.035156 211.0625 312.359375 C 206.515625 314.320312 202.164062 315.300781 198.132812 315.300781 Z M 244.355469 239.222656 L 244.441406 239.613281 C 227.628906 243.316406 211.394531 247.289062 197.453125 255.0625 C 194.875 256.5 192.375 258.066406 189.953125 259.761719 C 184.09375 263.839844 179.84375 269.789062 177.671875 276.976562 C 175.433594 284.304688 175.453125 291.996094 177.734375 298.636719 C 179.886719 304.910156 183.574219 309.585938 188.398438 312.15625 C 194.566406 315.445312 202.292969 315.261719 210.746094 311.625 C 213.738281 310.332031 216.546875 308.523438 219.335938 306.097656 C 223.714844 302.289062 227.53125 297.480469 231.222656 292.832031 C 234.117188 289.179688 237.113281 285.40625 240.382812 282.105469 C 247 275.421875 254.976562 270.226562 264.097656 266.660156 C 267.363281 265.386719 270.699219 264.34375 274.109375 263.53125 C 280.152344 262.097656 286.28125 261.320312 292.492188 261.199219 C 296.992188 261.101562 301.574219 261.324219 306.007812 261.554688 C 307.722656 261.640625 309.5 261.730469 311.242188 261.796875 C 312.023438 261.828125 312.785156 261.851562 313.503906 261.875 C 317.703125 261.984375 322.476562 261.890625 326.039062 259.34375 C 326.875 258.746094 327.601562 258.035156 328.214844 257.210938 C 331.703125 252.546875 330.949219 244.671875 326.53125 239.65625 C 323.433594 236.136719 319.023438 233.667969 313.417969 232.316406 C 310.824219 231.6875 307.949219 231.28125 304.625 231.070312 C 302.523438 230.941406 300.304688 230.871094 298.035156 230.882812 C 282.625 231 267.652344 234.382812 251.800781 237.957031 C 249.394531 238.5 246.898438 239.0625 244.429688 239.609375 Z M 244.355469 239.222656 " fill-opacity="1" fill-rule="nonzero"/><path fill="#231f20" d="M 193.214844 308.46875 C 189.484375 308.46875 186 307.691406 182.847656 306.132812 C 177.503906 303.488281 173.308594 298.566406 170.71875 291.890625 C 168.003906 284.886719 167.710938 276.609375 169.890625 268.582031 C 171.9375 260.921875 176.4375 254.175781 182.5625 249.59375 C 185.078125 247.703125 187.699219 245.96875 190.417969 244.386719 C 204.230469 236.367188 220.65625 232.527344 236.539062 228.816406 L 240.292969 227.9375 L 240.386719 228.324219 L 240.292969 227.9375 C 245.488281 226.710938 250.664062 225.34375 255.664062 224.023438 C 270 220.234375 283.542969 216.660156 297.828125 216.113281 C 300.308594 216.027344 302.726562 216.042969 305.015625 216.152344 C 308.632812 216.324219 311.796875 216.757812 314.691406 217.476562 C 320.785156 218.988281 325.765625 221.933594 329.101562 225.996094 C 331.28125 228.652344 332.699219 232.214844 332.992188 235.769531 C 333.304688 239.527344 332.378906 243.007812 330.382812 245.578125 C 329.664062 246.5 328.828125 247.300781 327.871094 247.96875 C 324.019531 250.675781 318.988281 250.929688 314.128906 250.800781 C 313.371094 250.78125 312.554688 250.75 311.722656 250.714844 C 309.867188 250.636719 307.976562 250.53125 306.152344 250.425781 C 301.5 250.164062 296.6875 249.890625 291.976562 250.054688 C 285.5 250.273438 279.148438 251.292969 272.929688 253.109375 C 269.441406 254.125 266.046875 255.382812 262.742188 256.882812 C 253.847656 260.929688 245.792969 266.683594 238.800781 273.980469 C 235.632812 277.28125 232.660156 280.992188 229.78125 284.585938 C 225.652344 289.734375 221.386719 295.0625 216.457031 299.308594 C 213.449219 301.902344 210.410156 303.855469 207.164062 305.277344 C 202.28125 307.402344 197.578125 308.46875 193.214844 308.46875 Z M 301.042969 216.851562 C 299.996094 216.851562 298.933594 216.871094 297.859375 216.90625 C 283.660156 217.445312 270.160156 221.011719 255.871094 224.792969 C 250.863281 226.113281 245.6875 227.484375 240.480469 228.710938 C 239.226562 229.003906 237.976562 229.296875 236.722656 229.589844 C 220.898438 233.289062 204.535156 237.113281 190.820312 245.078125 C 188.125 246.644531 185.53125 248.359375 183.035156 250.230469 C 177.058594 254.707031 172.664062 261.296875 170.660156 268.789062 C 168.523438 276.660156 168.8125 284.753906 171.464844 291.597656 C 173.976562 298.085938 178.039062 302.863281 183.199219 305.414062 C 189.828125 308.691406 198.007812 308.390625 206.855469 304.542969 C 210.023438 303.15625 212.996094 301.242188 215.945312 298.703125 C 220.820312 294.507812 225.070312 289.207031 229.167969 284.085938 C 232.054688 280.480469 235.042969 276.753906 238.234375 273.421875 C 245.296875 266.050781 253.4375 260.242188 262.417969 256.152344 C 271.808594 251.898438 281.65625 249.601562 291.957031 249.25 C 296.699219 249.085938 301.53125 249.363281 306.203125 249.632812 C 308.027344 249.734375 309.914062 249.839844 311.765625 249.921875 C 312.585938 249.957031 313.390625 249.984375 314.152344 250.003906 C 318.878906 250.132812 323.753906 249.890625 327.417969 247.316406 C 328.308594 246.691406 329.085938 245.949219 329.753906 245.089844 C 333.507812 240.265625 332.9375 231.925781 328.488281 226.5 C 325.265625 222.570312 320.429688 219.71875 314.503906 218.246094 C 311.660156 217.539062 308.546875 217.113281 304.980469 216.945312 C 303.703125 216.886719 302.394531 216.851562 301.042969 216.851562 Z M 301.042969 216.851562 " fill-opacity="1" fill-rule="nonzero"/><path fill="#231f20" d="M 188.234375 302.09375 C 184.449219 302.09375 180.886719 301.347656 177.636719 299.847656 C 171.945312 297.222656 167.371094 292.199219 164.425781 285.324219 C 161.347656 278.144531 160.78125 269.453125 162.832031 260.863281 C 164.769531 252.753906 169.296875 245.53125 175.585938 240.523438 C 178.179688 238.453125 180.894531 236.566406 183.738281 234.855469 C 196.957031 226.90625 212.742188 223.136719 228.007812 219.492188 C 230.730469 218.84375 233.546875 218.171875 236.296875 217.488281 L 236.390625 217.871094 L 236.296875 217.488281 C 243.167969 215.777344 249.925781 213.71875 256.460938 211.726562 C 270.363281 207.488281 283.492188 203.488281 297.585938 202.585938 C 300.257812 202.425781 302.859375 202.386719 305.324219 202.472656 C 309.191406 202.601562 312.597656 203.058594 315.742188 203.859375 C 322.257812 205.507812 327.546875 208.777344 331.035156 213.304688 C 333.269531 216.203125 334.621094 219.886719 334.84375 223.667969 C 335.074219 227.613281 334.019531 231.253906 331.875 233.921875 C 331.105469 234.878906 330.21875 235.703125 329.210938 236.398438 C 325.085938 239.246094 319.820312 239.515625 314.746094 239.382812 C 313.941406 239.359375 313.085938 239.332031 312.210938 239.292969 C 310.25 239.199219 308.253906 239.078125 306.328125 238.957031 C 301.429688 238.652344 296.367188 238.339844 291.421875 238.5625 C 284.613281 238.886719 277.984375 240.15625 271.539062 242.371094 C 267.941406 243.59375 264.453125 245.074219 261.074219 246.8125 C 252.234375 251.382812 244.238281 257.574219 236.632812 265.746094 C 233.574219 269.03125 230.644531 272.660156 227.8125 276.171875 C 223.234375 281.839844 218.503906 287.699219 213.039062 292.363281 C 209.871094 295.070312 206.671875 297.121094 203.253906 298.632812 C 198.003906 300.9375 192.945312 302.09375 188.234375 302.09375 Z M 302.703125 203.226562 C 301.058594 203.226562 299.359375 203.277344 297.636719 203.382812 C 283.636719 204.273438 270.550781 208.265625 256.695312 212.488281 C 250.148438 214.480469 243.382812 216.550781 236.488281 218.261719 C 233.738281 218.945312 230.917969 219.617188 228.195312 220.269531 C 212.988281 223.902344 197.261719 227.65625 184.148438 235.539062 C 181.335938 237.230469 178.648438 239.101562 176.082031 241.148438 C 169.933594 246.046875 165.503906 253.113281 163.609375 261.046875 C 161.597656 269.476562 162.148438 277.984375 165.160156 285.007812 C 168.03125 291.699219 172.460938 296.582031 177.972656 299.121094 C 185.050781 302.382812 193.683594 301.964844 202.929688 297.90625 C 206.273438 296.425781 209.410156 294.414062 212.519531 291.757812 C 217.929688 287.140625 222.636719 281.308594 227.1875 275.667969 C 230.03125 272.148438 232.96875 268.507812 236.046875 265.203125 C 243.722656 256.96875 251.78125 250.714844 260.703125 246.105469 C 264.117188 244.34375 267.640625 242.847656 271.273438 241.609375 C 277.792969 239.375 284.492188 238.089844 291.375 237.765625 C 296.367188 237.539062 301.449219 237.855469 306.367188 238.160156 C 308.292969 238.28125 310.285156 238.402344 312.238281 238.492188 C 313.109375 238.53125 313.953125 238.5625 314.753906 238.585938 C 319.695312 238.710938 324.808594 238.457031 328.75 235.742188 C 329.695312 235.089844 330.527344 234.316406 331.246094 233.421875 C 335.335938 228.34375 334.960938 219.71875 330.398438 213.792969 C 327.019531 209.40625 321.882812 206.242188 315.542969 204.632812 C 312.453125 203.847656 309.101562 203.402344 305.289062 203.273438 C 304.445312 203.242188 303.582031 203.226562 302.703125 203.226562 Z M 302.703125 203.226562 " fill-opacity="1" fill-rule="nonzero"/><path fill="#231f20" d="M 183.207031 296.175781 C 179.367188 296.175781 175.730469 295.457031 172.390625 294.015625 C 166.34375 291.40625 161.402344 286.289062 158.097656 279.210938 C 154.652344 271.828125 153.8125 262.734375 155.746094 253.597656 C 157.550781 245.054688 162.113281 237.355469 168.574219 231.90625 C 171.242188 229.660156 174.054688 227.613281 177.015625 225.773438 C 190.027344 217.707031 205.65625 213.957031 220.765625 210.324219 C 224.546875 209.417969 228.457031 208.480469 232.253906 207.488281 C 240.394531 205.367188 248.316406 202.648438 255.976562 200.019531 C 269.878906 195.25 283.011719 190.746094 297.304688 189.511719 C 300.0625 189.277344 302.824219 189.191406 305.589844 189.25 C 309.65625 189.34375 313.410156 189.828125 316.753906 190.695312 C 323.597656 192.464844 329.347656 196.152344 332.925781 201.066406 C 335.183594 204.167969 336.507812 208.058594 336.652344 212.015625 C 336.804688 216.144531 335.621094 219.945312 333.324219 222.710938 C 332.503906 223.703125 331.5625 224.554688 330.5 225.277344 C 326.089844 228.277344 320.351562 228.542969 315.320312 228.414062 C 314.464844 228.390625 313.570312 228.355469 312.65625 228.3125 C 310.59375 228.214844 308.492188 228.074219 306.460938 227.933594 C 301.324219 227.589844 296.011719 227.230469 290.820312 227.519531 C 283.890625 227.898438 276.921875 229.433594 270.105469 232.066406 C 266.394531 233.503906 262.8125 235.210938 259.363281 237.191406 C 250.753906 242.144531 242.59375 248.941406 234.417969 257.960938 C 231.503906 261.179688 228.660156 264.679688 225.914062 268.066406 C 220.855469 274.300781 215.625 280.746094 209.566406 285.871094 C 206.289062 288.652344 202.832031 290.863281 199.289062 292.445312 C 193.6875 294.925781 188.265625 296.175781 183.207031 296.175781 Z M 232.359375 207.875 L 232.460938 208.257812 C 228.660156 209.25 224.742188 210.1875 220.957031 211.097656 C 205.90625 214.710938 190.34375 218.449219 177.441406 226.449219 C 174.511719 228.269531 171.730469 230.289062 169.09375 232.515625 C 162.757812 237.847656 158.292969 245.390625 156.527344 253.757812 C 154.625 262.722656 155.445312 271.636719 158.820312 278.863281 C 162.042969 285.761719 166.84375 290.742188 172.707031 293.273438 C 175.945312 294.671875 179.472656 295.371094 183.207031 295.371094 C 188.152344 295.371094 193.472656 294.148438 198.964844 291.714844 C 202.441406 290.160156 205.835938 287.988281 209.054688 285.257812 C 215.050781 280.183594 220.257812 273.765625 225.289062 267.5625 C 228.046875 264.167969 230.894531 260.65625 233.824219 257.421875 C 242.0625 248.339844 250.277344 241.496094 258.964844 236.496094 C 262.449219 234.492188 266.066406 232.769531 269.8125 231.320312 C 276.707031 228.65625 283.753906 227.105469 290.773438 226.71875 C 296.011719 226.429688 301.347656 226.785156 306.511719 227.132812 C 308.539062 227.269531 310.632812 227.410156 312.691406 227.515625 C 313.597656 227.558594 314.484375 227.589844 315.335938 227.613281 C 320.242188 227.742188 325.832031 227.488281 330.054688 224.613281 C 331.058594 223.9375 331.945312 223.132812 332.71875 222.203125 C 337.082031 216.945312 336.898438 207.867188 332.289062 201.539062 C 328.816406 196.769531 323.234375 193.191406 316.5625 191.46875 C 313.277344 190.617188 309.582031 190.140625 305.578125 190.050781 C 302.839844 189.992188 300.109375 190.078125 297.378906 190.308594 C 283.1875 191.535156 270.097656 196.023438 256.242188 200.777344 C 248.570312 203.410156 240.632812 206.132812 232.464844 208.269531 Z M 232.359375 207.875 " fill-opacity="1" fill-rule="nonzero"/><path fill="#231f20" d="M 178.125 290.734375 C 174.230469 290.734375 170.53125 290.042969 167.101562 288.652344 C 160.695312 286.054688 155.378906 280.835938 151.726562 273.5625 C 147.914062 265.976562 146.808594 256.472656 148.613281 246.800781 C 150.289062 237.832031 154.875 229.648438 161.53125 223.761719 C 164.269531 221.332031 167.179688 219.132812 170.261719 217.160156 C 183.265625 208.871094 198.976562 205.101562 214.171875 201.460938 C 218.789062 200.355469 223.5625 199.210938 228.179688 197.957031 C 237.386719 195.460938 246.265625 192.101562 254.851562 188.851562 C 268.96875 183.507812 282.304688 178.460938 296.992188 176.902344 C 299.929688 176.597656 302.871094 176.457031 305.824219 176.492188 C 310.144531 176.546875 314.148438 177.054688 317.734375 177.996094 C 325.019531 179.90625 331.074219 183.921875 334.789062 189.292969 C 337.070312 192.59375 338.367188 196.691406 338.4375 200.824219 C 338.507812 205.140625 337.199219 209.097656 334.746094 211.96875 C 333.875 212.988281 332.882812 213.875 331.765625 214.621094 C 327.074219 217.757812 321.089844 218.050781 315.851562 217.910156 C 314.960938 217.886719 314.015625 217.851562 313.0625 217.800781 C 310.894531 217.691406 308.6875 217.535156 306.558594 217.378906 C 301.175781 216.992188 295.609375 216.59375 290.179688 216.945312 C 282.980469 217.410156 275.730469 219.191406 268.625 222.242188 C 264.800781 223.882812 261.128906 225.816406 257.609375 228.042969 C 249.179688 233.375 241.09375 240.554688 232.167969 250.648438 C 229.425781 253.742188 226.71875 257.0625 224.109375 260.277344 C 218.535156 267.132812 212.757812 274.222656 206.070312 279.847656 C 202.636719 282.738281 199.011719 285.050781 195.296875 286.726562 C 189.332031 289.390625 183.539062 290.734375 178.125 290.734375 Z M 228.292969 198.351562 L 228.394531 198.730469 C 223.765625 199.984375 218.984375 201.132812 214.363281 202.242188 C 199.234375 205.867188 183.585938 209.617188 170.695312 217.835938 C 167.648438 219.785156 164.769531 221.957031 162.0625 224.355469 C 155.542969 230.125 151.039062 238.148438 149.402344 246.941406 C 147.628906 256.441406 148.707031 265.765625 152.445312 273.199219 C 156.007812 280.296875 161.1875 285.386719 167.40625 287.90625 C 175.390625 291.144531 184.917969 290.488281 194.96875 286.003906 C 198.617188 284.351562 202.179688 282.082031 205.554688 279.238281 C 212.1875 273.664062 217.933594 266.601562 223.488281 259.773438 C 226.109375 256.558594 228.820312 253.230469 231.570312 250.128906 C 240.546875 239.972656 248.6875 232.746094 257.183594 227.375 C 260.738281 225.128906 264.449219 223.175781 268.3125 221.515625 C 275.5 218.429688 282.839844 216.628906 290.125 216.15625 C 295.613281 215.800781 301.203125 216.203125 306.613281 216.59375 C 308.742188 216.746094 310.941406 216.902344 313.101562 217.011719 C 314.050781 217.058594 314.984375 217.097656 315.871094 217.121094 C 320.984375 217.246094 326.820312 216.976562 331.324219 213.964844 C 332.378906 213.257812 333.316406 212.421875 334.140625 211.457031 C 338.785156 206.015625 338.78125 196.476562 334.132812 189.75 C 330.527344 184.535156 324.628906 180.632812 317.53125 178.769531 C 314.015625 177.84375 310.074219 177.347656 305.816406 177.292969 C 302.898438 177.261719 299.984375 177.398438 297.082031 177.699219 C 282.492188 179.25 269.203125 184.277344 255.136719 189.601562 C 246.53125 192.855469 237.636719 196.222656 228.398438 198.730469 Z M 228.292969 198.351562 " fill-opacity="1" fill-rule="nonzero"/><path fill="#231f20" d="M 172.984375 285.765625 C 169.042969 285.765625 165.28125 285.101562 161.777344 283.757812 C 155.007812 281.164062 149.316406 275.851562 145.320312 268.386719 C 143.167969 264.359375 141.75 259.832031 141.121094 254.929688 C 140.523438 250.296875 140.636719 245.433594 141.449219 240.476562 C 142.996094 231.082031 147.613281 222.417969 154.449219 216.09375 C 157.257812 213.484375 160.265625 211.132812 163.472656 209.035156 C 176.585938 200.464844 192.523438 196.664062 207.933594 192.988281 C 213.257812 191.71875 218.765625 190.402344 224.070312 188.914062 C 234.230469 186.058594 243.945312 182.066406 253.34375 178.207031 C 267.796875 172.269531 281.453125 166.652344 296.644531 164.78125 C 299.761719 164.402344 302.886719 164.214844 306.023438 164.21875 C 310.605469 164.238281 314.859375 164.765625 318.671875 165.78125 C 326.402344 167.839844 332.769531 172.179688 336.605469 178.003906 C 338.917969 181.507812 340.183594 185.8125 340.179688 190.117188 C 340.167969 194.617188 338.730469 198.734375 336.121094 201.707031 C 335.199219 202.765625 334.152344 203.679688 332.984375 204.449219 C 327.988281 207.75 321.464844 208.023438 316.34375 207.890625 C 315.410156 207.867188 314.425781 207.828125 313.429688 207.777344 C 311.15625 207.648438 308.847656 207.480469 306.617188 207.3125 C 300.992188 206.882812 295.175781 206.441406 289.496094 206.855469 C 282.019531 207.398438 274.492188 209.433594 267.109375 212.898438 C 263.167969 214.75 259.40625 216.90625 255.816406 219.371094 C 245.410156 226.515625 236.863281 235.738281 229.871094 243.8125 C 227.355469 246.722656 224.84375 249.804688 222.414062 252.785156 C 216.269531 260.328125 209.914062 268.128906 202.527344 274.304688 C 198.9375 277.304688 195.148438 279.722656 191.257812 281.488281 C 184.921875 284.335938 178.757812 285.765625 172.984375 285.765625 Z M 224.179688 189.289062 L 224.289062 189.667969 C 218.964844 191.164062 213.453125 192.480469 208.121094 193.75 C 192.773438 197.410156 176.90625 201.195312 163.910156 209.691406 C 160.742188 211.765625 157.769531 214.089844 154.992188 216.664062 C 148.285156 222.875 143.753906 231.371094 142.238281 240.59375 C 140.589844 250.621094 141.933594 260.359375 146.027344 268 C 149.929688 275.292969 155.472656 280.480469 162.0625 283.003906 C 165.472656 284.308594 169.140625 284.960938 172.988281 284.960938 C 178.648438 284.960938 184.703125 283.550781 190.925781 280.75 C 194.75 279.015625 198.480469 276.636719 202.011719 273.679688 C 209.34375 267.558594 215.671875 259.785156 221.792969 252.273438 C 224.226562 249.285156 226.738281 246.195312 229.269531 243.28125 C 236.292969 235.167969 244.882812 225.898438 255.367188 218.703125 C 258.988281 216.210938 262.792969 214.03125 266.769531 212.160156 C 274.242188 208.65625 281.867188 206.597656 289.441406 206.042969 C 295.175781 205.625 301.023438 206.070312 306.675781 206.5 C 308.902344 206.671875 311.207031 206.847656 313.46875 206.964844 C 314.460938 207.019531 315.433594 207.058594 316.363281 207.078125 C 321.371094 207.207031 327.734375 206.953125 332.542969 203.769531 C 333.652344 203.039062 334.648438 202.171875 335.523438 201.167969 C 340.53125 195.445312 340.707031 185.671875 335.9375 178.429688 C 332.207031 172.773438 326 168.546875 318.464844 166.539062 C 314.714844 165.539062 310.527344 165.023438 306.015625 165.003906 C 302.914062 165 299.820312 165.183594 296.742188 165.5625 C 281.652344 167.425781 268.050781 173.015625 253.644531 178.933594 C 244.230469 182.800781 234.492188 186.804688 224.289062 189.667969 Z M 224.179688 189.289062 " fill-opacity="1" fill-rule="nonzero"/><path fill="#231f20" d="M 167.789062 281.304688 C 163.878906 281.328125 160.082031 280.683594 156.402344 279.367188 C 149.261719 276.777344 143.199219 271.367188 138.867188 263.710938 C 134.265625 255.585938 132.664062 245.535156 134.238281 234.640625 C 135.65625 224.816406 140.300781 215.679688 147.324219 208.910156 C 150.199219 206.121094 153.304688 203.617188 156.632812 201.390625 C 169.9375 192.503906 186.183594 188.652344 201.898438 184.929688 C 207.855469 183.519531 214.007812 182.0625 219.914062 180.351562 C 230.949219 177.152344 241.433594 172.535156 251.574219 168.066406 C 266.4375 161.519531 280.476562 155.332031 296.246094 153.140625 C 299.539062 152.6875 302.84375 152.449219 306.164062 152.429688 C 311.003906 152.414062 315.507812 152.957031 319.554688 154.050781 C 327.730469 156.253906 334.410156 160.925781 338.371094 167.199219 C 340.707031 170.902344 341.945312 175.410156 341.863281 179.890625 C 341.773438 184.578125 340.207031 188.851562 337.453125 191.929688 C 336.480469 193.019531 335.378906 193.960938 334.160156 194.761719 C 328.882812 198.199219 322.105469 198.488281 316.796875 198.355469 C 315.816406 198.328125 314.792969 198.289062 313.757812 198.226562 C 311.382812 198.101562 308.972656 197.90625 306.636719 197.71875 C 300.769531 197.25 294.699219 196.765625 288.78125 197.242188 C 281.015625 197.867188 273.203125 200.152344 265.550781 204.03125 C 261.496094 206.09375 257.640625 208.476562 253.984375 211.183594 C 244.710938 218.039062 236.992188 226.320312 227.542969 237.464844 C 225.296875 240.109375 223.035156 242.890625 220.847656 245.574219 C 214.089844 253.878906 207.101562 262.46875 198.945312 269.242188 C 195.207031 272.351562 191.246094 274.875 187.179688 276.734375 C 180.472656 279.78125 173.925781 281.304688 167.789062 281.304688 Z M 220.023438 180.738281 L 220.132812 181.117188 C 214.207031 182.835938 208.042969 184.292969 202.082031 185.707031 C 186.433594 189.414062 170.253906 193.246094 157.074219 202.054688 C 153.785156 204.257812 150.71875 206.734375 147.875 209.484375 C 140.984375 216.132812 136.417969 225.109375 135.027344 234.757812 C 133.480469 245.46875 135.050781 255.34375 139.5625 263.320312 C 143.796875 270.808594 149.714844 276.09375 156.667969 278.613281 C 160.261719 279.898438 163.96875 280.53125 167.78125 280.507812 C 173.8125 280.507812 180.242188 279.003906 186.832031 276.019531 C 190.832031 274.1875 194.730469 271.703125 198.417969 268.640625 C 206.515625 261.910156 213.480469 253.355469 220.214844 245.082031 C 222.402344 242.390625 224.667969 239.609375 226.917969 236.957031 C 234.351562 228.191406 243.148438 218.195312 253.492188 210.554688 C 257.1875 207.820312 261.082031 205.410156 265.175781 203.328125 C 272.917969 199.402344 280.832031 197.089844 288.699219 196.457031 C 294.683594 195.972656 300.785156 196.457031 306.683594 196.933594 C 309.011719 197.121094 311.421875 197.3125 313.78125 197.441406 C 314.816406 197.496094 315.832031 197.539062 316.804688 197.566406 C 322 197.695312 328.621094 197.421875 333.714844 194.105469 C 334.878906 193.34375 335.925781 192.445312 336.851562 191.410156 C 342.148438 185.492188 342.507812 175.269531 337.6875 167.632812 C 333.835938 161.53125 327.320312 156.984375 319.34375 154.832031 C 315.363281 153.757812 310.925781 153.222656 306.164062 153.238281 C 302.875 153.257812 299.605469 153.492188 296.351562 153.941406 C 280.691406 156.117188 266.695312 162.285156 251.886719 168.808594 C 241.726562 173.285156 231.21875 177.914062 220.128906 181.121094 Z M 220.023438 180.738281 " fill-opacity="1" fill-rule="nonzero"/><path fill="#231f20" d="M 162.53125 277.363281 C 158.578125 277.382812 154.726562 276.757812 150.980469 275.488281 C 143.46875 272.902344 137.03125 267.390625 132.367188 259.550781 C 127.402344 251.203125 125.539062 240.761719 126.976562 229.335938 C 128.269531 219.085938 132.945312 209.46875 140.144531 202.253906 C 143.09375 199.292969 146.296875 196.632812 149.746094 194.273438 C 163.28125 185.039062 179.90625 181.136719 195.980469 177.355469 C 202.507812 175.824219 209.253906 174.238281 215.707031 172.316406 L 215.820312 172.699219 L 215.707031 172.316406 C 227.578125 168.78125 238.78125 163.542969 249.613281 158.480469 C 264.9375 151.3125 279.414062 144.539062 295.800781 142.035156 C 299.269531 141.507812 302.757812 141.222656 306.265625 141.171875 C 311.363281 141.117188 316.117188 141.679688 320.398438 142.855469 C 324.457031 143.941406 328.214844 145.683594 331.667969 148.074219 C 335.1875 150.535156 338.019531 153.511719 340.089844 156.925781 C 342.457031 160.824219 343.667969 165.539062 343.511719 170.203125 C 343.34375 175.074219 341.648438 179.507812 338.742188 182.691406 C 337.714844 183.8125 336.5625 184.785156 335.285156 185.609375 C 329.726562 189.191406 322.699219 189.496094 317.195312 189.355469 C 316.175781 189.332031 315.105469 189.289062 314.019531 189.230469 C 311.546875 189.089844 309.03125 188.878906 306.597656 188.675781 C 300.484375 188.167969 294.160156 187.636719 287.996094 188.179688 C 279.9375 188.882812 271.84375 191.421875 263.929688 195.714844 C 259.757812 197.988281 255.808594 200.597656 252.082031 203.546875 C 241.765625 211.691406 233.320312 221.84375 225.148438 231.660156 C 223.230469 233.964844 221.285156 236.359375 219.40625 238.675781 C 211.984375 247.828125 204.308594 257.289062 195.300781 264.730469 C 191.40625 267.953125 187.28125 270.570312 183.039062 272.527344 C 175.972656 275.738281 169.042969 277.363281 162.53125 277.363281 Z M 306.929688 141.960938 C 306.710938 141.960938 306.492188 141.960938 306.273438 141.960938 C 302.804688 142.007812 299.351562 142.292969 295.921875 142.816406 C 279.644531 145.300781 265.222656 152.050781 249.953125 159.191406 C 239.09375 164.269531 227.863281 169.527344 215.933594 173.074219 C 209.460938 175.003906 202.699219 176.589844 196.164062 178.128906 C 180.160156 181.886719 163.609375 185.777344 150.195312 194.925781 C 146.785156 197.253906 143.625 199.886719 140.710938 202.8125 C 133.636719 209.902344 129.039062 219.351562 127.769531 229.425781 C 126.355469 240.671875 128.179688 250.945312 133.050781 259.132812 C 137.613281 266.808594 143.910156 272.207031 151.242188 274.722656 C 160.574219 277.933594 171.457031 276.914062 182.707031 271.78125 C 186.886719 269.855469 190.941406 267.269531 194.789062 264.09375 C 203.734375 256.703125 211.390625 247.273438 218.785156 238.152344 C 220.667969 235.832031 222.613281 233.433594 224.53125 231.128906 C 232.347656 221.734375 241.207031 211.09375 251.589844 202.894531 C 255.351562 199.917969 259.335938 197.285156 263.550781 194.988281 C 271.558594 190.644531 279.757812 188.078125 287.925781 187.359375 C 294.15625 186.8125 300.515625 187.34375 306.660156 187.859375 C 309.089844 188.0625 311.601562 188.269531 314.0625 188.410156 C 315.140625 188.472656 316.203125 188.515625 317.214844 188.539062 C 322.601562 188.675781 329.476562 188.382812 334.851562 184.917969 C 336.070312 184.128906 337.167969 183.199219 338.148438 182.125 C 343.734375 176.011719 344.277344 165.34375 339.40625 157.316406 C 335.496094 150.863281 328.488281 145.867188 320.183594 143.605469 C 316.160156 142.515625 311.703125 141.960938 306.929688 141.960938 Z M 306.929688 141.960938 " fill-opacity="1" fill-rule="nonzero"/><path fill="#231f20" d="M 157.214844 273.953125 C 153.21875 273.972656 149.316406 273.367188 145.511719 272.136719 C 137.621094 269.554688 130.8125 263.945312 125.816406 255.917969 C 120.492188 247.351562 118.367188 236.503906 119.671875 224.546875 C 120.835938 213.871094 125.542969 203.777344 132.925781 196.121094 C 135.941406 192.980469 139.234375 190.164062 142.808594 187.675781 C 156.613281 178.082031 173.652344 174.113281 190.132812 170.269531 C 197.191406 168.621094 204.492188 166.921875 211.449219 164.800781 C 224.121094 160.9375 236.011719 155.078125 247.507812 149.414062 C 262.628906 141.960938 278.265625 134.253906 295.308594 131.4375 C 298.953125 130.835938 302.621094 130.5 306.3125 130.425781 C 311.667969 130.332031 316.671875 130.917969 321.1875 132.164062 C 330.132812 134.628906 337.632812 140.09375 341.757812 147.160156 C 344.152344 151.253906 345.339844 156.171875 345.101562 161.019531 C 344.847656 166.074219 343.03125 170.667969 339.96875 173.953125 C 338.894531 175.109375 337.6875 176.113281 336.355469 176.960938 C 330.449219 180.730469 322.789062 180.992188 317.542969 180.863281 C 316.476562 180.835938 315.367188 180.789062 314.238281 180.722656 C 311.664062 180.570312 309.042969 180.339844 306.507812 180.125 C 300.148438 179.574219 293.570312 179.003906 287.164062 179.605469 C 278.808594 180.390625 270.429688 183.179688 262.257812 187.886719 C 257.972656 190.371094 253.929688 193.207031 250.132812 196.394531 C 240.679688 204.316406 232.898438 213.84375 224.675781 223.929688 C 224.019531 224.730469 223.363281 225.535156 222.703125 226.339844 C 221.183594 228.203125 219.628906 230.125 218.128906 231.980469 C 209.980469 242.082031 201.554688 252.523438 191.605469 260.699219 C 187.558594 264.027344 183.269531 266.753906 178.851562 268.800781 C 171.417969 272.230469 164.101562 273.953125 157.214844 273.953125 Z M 211.566406 165.183594 L 211.683594 165.566406 C 204.703125 167.695312 197.386719 169.398438 190.316406 171.046875 C 173.910156 174.871094 156.945312 178.824219 143.265625 188.332031 C 139.734375 190.789062 136.476562 193.570312 133.496094 196.671875 C 126.238281 204.203125 121.609375 214.132812 120.460938 224.632812 C 119.179688 236.410156 121.261719 247.082031 126.492188 255.492188 C 131.382812 263.363281 138.046875 268.855469 145.753906 271.375 C 155.535156 274.574219 166.867188 273.4375 178.519531 268.085938 C 182.871094 266.070312 187.105469 263.378906 191.101562 260.089844 C 200.984375 251.964844 209.386719 241.554688 217.511719 231.484375 C 219.011719 229.625 220.5625 227.703125 222.085938 225.839844 C 222.746094 225.035156 223.40625 224.230469 224.058594 223.429688 C 232.316406 213.3125 240.109375 203.761719 249.625 195.785156 C 253.457031 192.566406 257.535156 189.703125 261.863281 187.199219 C 270.132812 182.429688 278.621094 179.609375 287.089844 178.8125 C 293.570312 178.203125 300.183594 178.777344 306.578125 179.332031 C 309.105469 179.550781 311.71875 179.777344 314.285156 179.925781 C 315.402344 179.992188 316.507812 180.039062 317.5625 180.066406 C 322.703125 180.191406 330.203125 179.9375 335.925781 176.289062 C 337.203125 175.476562 338.355469 174.519531 339.386719 173.410156 C 345.265625 167.097656 345.992188 155.984375 341.070312 147.566406 C 337.050781 140.683594 329.726562 135.351562 320.976562 132.941406 C 316.542969 131.714844 311.609375 131.140625 306.332031 131.230469 C 302.675781 131.300781 299.042969 131.636719 295.433594 132.230469 C 278.507812 135.023438 263.625 142.367188 247.855469 150.132812 C 236.324219 155.8125 224.414062 161.683594 211.679688 165.570312 Z M 211.566406 165.183594 " fill-opacity="1" fill-rule="nonzero"/><path fill="#231f20" d="M 151.847656 271.09375 C 147.808594 271.109375 143.859375 270.523438 139.996094 269.335938 C 135.777344 268.011719 131.941406 265.964844 128.488281 263.203125 C 124.996094 260.429688 121.882812 256.9375 119.222656 252.828125 C 113.519531 244.007812 111.128906 232.761719 112.320312 220.308594 C 112.578125 217.546875 113.058594 214.824219 113.765625 212.136719 C 114.472656 209.453125 115.390625 206.847656 116.523438 204.316406 C 117.660156 201.78125 118.992188 199.359375 120.523438 197.046875 C 122.058594 194.738281 123.769531 192.566406 125.65625 190.535156 C 128.742188 187.214844 132.136719 184.246094 135.832031 181.628906 C 149.933594 171.664062 167.417969 167.621094 184.332031 163.710938 C 191.898438 161.964844 199.722656 160.160156 207.15625 157.839844 L 207.273438 158.21875 L 207.15625 157.839844 C 220.601562 153.648438 233.15625 147.175781 245.292969 140.910156 C 260.910156 132.855469 277.058594 124.527344 294.777344 121.398438 C 298.597656 120.722656 302.449219 120.335938 306.328125 120.238281 C 311.941406 120.109375 317.195312 120.714844 321.941406 122.035156 C 331.335938 124.648438 339.15625 130.449219 343.390625 137.953125 C 345.816406 142.242188 346.976562 147.371094 346.660156 152.394531 C 346.332031 157.632812 344.378906 162.386719 341.167969 165.777344 C 340.039062 166.96875 338.78125 168 337.394531 168.875 C 331.199219 172.785156 323.273438 173.0625 317.855469 172.929688 C 316.75 172.898438 315.59375 172.851562 314.421875 172.78125 C 311.746094 172.621094 309.023438 172.375 306.390625 172.144531 C 299.785156 171.554688 292.957031 170.941406 286.304688 171.605469 C 277.644531 172.472656 268.984375 175.511719 260.558594 180.632812 C 256.152344 183.328125 252.019531 186.386719 248.15625 189.8125 C 239.34375 197.609375 232.078125 206.738281 224.382812 216.40625 C 223.027344 218.105469 221.628906 219.863281 220.230469 221.601562 C 219.175781 222.90625 218.125 224.21875 217.066406 225.535156 C 208.125 236.699219 198.882812 248.246094 187.882812 257.242188 C 183.683594 260.679688 179.226562 263.511719 174.632812 265.652344 C 166.816406 269.269531 159.105469 271.09375 151.847656 271.09375 Z M 307.773438 121.019531 C 307.300781 121.019531 306.820312 121.023438 306.339844 121.035156 C 302.5 121.132812 298.691406 121.515625 294.910156 122.183594 C 277.3125 125.292969 261.933594 133.230469 245.652344 141.621094 C 233.488281 147.898438 220.902344 154.390625 207.382812 158.601562 C 199.921875 160.925781 192.082031 162.738281 184.5 164.492188 C 167.664062 168.382812 150.253906 172.40625 136.285156 182.28125 C 132.628906 184.867188 129.28125 187.800781 126.230469 191.078125 C 124.371094 193.078125 122.6875 195.214844 121.179688 197.492188 C 119.671875 199.765625 118.363281 202.148438 117.246094 204.640625 C 116.128906 207.132812 115.226562 209.699219 114.53125 212.34375 C 113.835938 214.984375 113.363281 217.664062 113.109375 220.382812 C 111.933594 232.660156 114.277344 243.726562 119.886719 252.394531 C 125.101562 260.453125 132.132812 266.046875 140.226562 268.570312 C 144.015625 269.738281 147.886719 270.3125 151.847656 270.296875 C 158.996094 270.296875 166.589844 268.5 174.296875 264.9375 C 178.832031 262.824219 183.230469 260.03125 187.378906 256.636719 C 198.3125 247.691406 207.527344 236.179688 216.445312 225.046875 C 217.503906 223.726562 218.558594 222.414062 219.613281 221.105469 C 221.007812 219.367188 222.410156 217.613281 223.761719 215.910156 C 231.480469 206.21875 238.769531 197.0625 247.632812 189.21875 C 251.53125 185.757812 255.703125 182.667969 260.148438 179.953125 C 268.675781 174.765625 277.449219 171.6875 286.230469 170.8125 C 292.957031 170.140625 299.824219 170.753906 306.46875 171.351562 C 309.09375 171.589844 311.808594 171.832031 314.476562 171.988281 C 315.636719 172.058594 316.785156 172.105469 317.878906 172.132812 C 323.203125 172.261719 330.960938 172.007812 336.972656 168.199219 C 338.304688 167.359375 339.511719 166.367188 340.59375 165.226562 C 346.757812 158.710938 347.664062 147.160156 342.691406 138.34375 C 338.558594 131.027344 330.914062 125.359375 321.722656 122.804688 C 317.457031 121.617188 312.773438 121.019531 307.773438 121.019531 Z M 307.773438 121.019531 " fill-opacity="1" fill-rule="nonzero"/><path fill="#231f20" d="M 146.398438 268.800781 C 142.320312 268.816406 138.324219 268.25 134.410156 267.09375 C 130.015625 265.777344 126 263.71875 122.367188 260.914062 C 118.691406 258.09375 115.386719 254.523438 112.558594 250.304688 C 106.492188 241.261719 103.84375 229.621094 104.898438 216.632812 C 105.128906 213.761719 105.589844 210.925781 106.285156 208.128906 C 106.980469 205.328125 107.898438 202.609375 109.039062 199.960938 C 110.179688 197.316406 111.53125 194.777344 113.085938 192.355469 C 114.644531 189.929688 116.390625 187.648438 118.320312 185.511719 C 121.476562 182.015625 124.964844 178.894531 128.785156 176.144531 C 143.199219 165.796875 161.15625 161.679688 178.523438 157.699219 C 186.574219 155.855469 194.902344 153.945312 202.789062 151.4375 C 216.992188 146.925781 230.191406 139.835938 242.953125 132.980469 C 259.082031 124.316406 275.761719 115.359375 294.171875 111.921875 C 298.171875 111.171875 302.203125 110.734375 306.265625 110.609375 C 312.140625 110.445312 317.644531 111.070312 322.621094 112.464844 C 332.46875 115.226562 340.613281 121.363281 344.949219 129.308594 C 347.402344 133.792969 348.535156 139.128906 348.144531 144.328125 C 347.738281 149.753906 345.660156 154.664062 342.289062 158.167969 C 341.113281 159.390625 339.800781 160.453125 338.363281 161.351562 C 333.417969 164.441406 326.984375 165.777344 318.097656 165.558594 C 316.957031 165.53125 315.753906 165.480469 314.535156 165.40625 C 311.757812 165.234375 308.933594 164.972656 306.203125 164.71875 C 299.351562 164.085938 292.261719 163.429688 285.367188 164.160156 C 276.40625 165.105469 267.460938 168.394531 258.78125 173.933594 C 254.261719 176.839844 250.035156 180.128906 246.105469 183.796875 C 237.773438 191.542969 230.898438 200.429688 223.609375 209.832031 C 221.683594 212.320312 219.691406 214.886719 217.683594 217.421875 L 216.210938 219.277344 C 206.40625 231.648438 196.261719 244.441406 184.089844 254.359375 C 179.867188 257.828125 175.285156 260.734375 170.347656 263.070312 C 162.152344 266.875 154.046875 268.800781 146.398438 268.800781 Z M 202.917969 151.820312 L 203.042969 152.199219 C 195.125 154.714844 186.78125 156.628906 178.710938 158.480469 C 161.425781 162.441406 143.546875 166.539062 129.261719 176.792969 C 125.488281 179.511719 122.042969 182.597656 118.925781 186.050781 C 117.023438 188.15625 115.304688 190.402344 113.769531 192.789062 C 112.238281 195.175781 110.90625 197.671875 109.785156 200.277344 C 108.660156 202.882812 107.757812 205.566406 107.070312 208.320312 C 106.386719 211.074219 105.933594 213.867188 105.707031 216.699219 C 104.667969 229.503906 107.269531 240.96875 113.234375 249.859375 C 118.765625 258.109375 126.171875 263.804688 134.648438 266.328125 C 145.328125 269.511719 157.554688 268.132812 170.011719 262.347656 C 174.890625 260.035156 179.417969 257.164062 183.589844 253.738281 C 195.699219 243.871094 205.8125 231.113281 215.59375 218.777344 L 217.066406 216.921875 C 219.074219 214.390625 221.0625 211.824219 222.984375 209.339844 C 230.292969 199.910156 237.191406 191 245.570312 183.210938 C 249.535156 179.503906 253.800781 176.1875 258.367188 173.253906 C 267.148438 167.648438 276.210938 164.320312 285.296875 163.355469 C 292.273438 162.617188 299.398438 163.277344 306.289062 163.914062 C 309.011719 164.167969 311.832031 164.421875 314.597656 164.597656 C 315.804688 164.671875 316.992188 164.726562 318.128906 164.75 C 326.855469 164.964844 333.15625 163.667969 337.953125 160.664062 C 339.335938 159.800781 340.597656 158.777344 341.730469 157.601562 C 348.203125 150.882812 349.292969 138.882812 344.265625 129.683594 C 340.027344 121.929688 332.066406 115.933594 322.421875 113.230469 C 317.519531 111.855469 312.097656 111.242188 306.304688 111.402344 C 302.28125 111.527344 298.289062 111.960938 294.332031 112.699219 C 276.046875 116.117188 259.421875 125.046875 243.34375 133.679688 C 230.546875 140.550781 217.320312 147.65625 203.046875 152.195312 Z M 202.917969 151.820312 " fill-opacity="1" fill-rule="nonzero"/><path fill="#231f20" d="M 140.898438 267.089844 C 136.78125 267.105469 132.742188 266.554688 128.78125 265.441406 C 124.210938 264.132812 120.015625 262.054688 116.203125 259.210938 C 112.332031 256.339844 108.847656 252.6875 105.847656 248.363281 C 102.496094 243.527344 100.09375 237.953125 98.699219 231.800781 C 97.421875 226.144531 96.996094 220 97.433594 213.542969 C 98.199219 201.621094 102.996094 190.09375 110.9375 181.074219 C 114.164062 177.402344 117.746094 174.128906 121.691406 171.246094 C 128.3125 166.421875 136.242188 162.507812 145.941406 159.265625 C 154.578125 156.382812 163.796875 154.285156 172.71875 152.257812 C 181.238281 150.320312 190.050781 148.316406 198.375 145.621094 L 198.503906 146.003906 L 198.375 145.621094 C 213.328125 140.785156 227.152344 133.085938 240.523438 125.640625 C 257.179688 116.367188 274.40625 106.777344 293.523438 103.027344 C 297.695312 102.207031 301.910156 101.71875 306.160156 101.566406 C 312.296875 101.367188 318.046875 102.011719 323.253906 103.480469 C 333.558594 106.394531 342.019531 112.867188 346.460938 121.246094 C 348.941406 125.925781 350.054688 131.464844 349.585938 136.847656 C 349.097656 142.457031 346.890625 147.527344 343.367188 151.132812 C 342.136719 152.386719 340.773438 153.480469 339.28125 154.40625 C 334.121094 157.605469 327.453125 158.992188 318.289062 158.765625 C 317.101562 158.738281 315.859375 158.683594 314.597656 158.605469 C 311.71875 158.421875 308.792969 158.144531 305.960938 157.875 C 298.863281 157.199219 291.527344 156.5 284.382812 157.292969 C 275.109375 158.320312 265.882812 161.863281 256.957031 167.816406 C 252.519531 170.765625 248.167969 174.3125 244 178.351562 C 236.042969 186.097656 229.460938 194.84375 222.496094 204.09375 C 220.097656 207.28125 217.617188 210.570312 215.085938 213.816406 C 205.074219 226.597656 193.742188 241.085938 180.238281 252.039062 C 175.855469 255.621094 171.105469 258.625 165.996094 261.054688 C 157.429688 265.066406 148.933594 267.089844 140.898438 267.089844 Z M 308.320312 102.324219 C 307.613281 102.324219 306.902344 102.335938 306.1875 102.359375 C 301.980469 102.511719 297.808594 102.996094 293.675781 103.808594 C 274.683594 107.53125 257.515625 117.09375 240.914062 126.335938 C 227.507812 133.800781 213.644531 141.519531 198.621094 146.378906 C 190.257812 149.082031 181.433594 151.089844 172.898438 153.03125 C 155.136719 157.070312 136.78125 161.246094 122.164062 171.890625 C 118.265625 174.734375 114.726562 177.972656 111.542969 181.601562 C 103.714844 190.488281 98.996094 201.847656 98.234375 213.589844 C 97.332031 226.921875 100.191406 238.789062 106.511719 247.902344 C 112.359375 256.339844 120.140625 262.136719 129.007812 264.660156 C 140.132812 267.832031 152.8125 266.335938 165.667969 260.328125 C 170.722656 257.929688 175.414062 254.957031 179.746094 251.414062 C 193.179688 240.515625 204.488281 226.066406 214.46875 213.316406 C 217.003906 210.082031 219.476562 206.792969 221.871094 203.609375 C 228.855469 194.332031 235.453125 185.566406 243.457031 177.773438 C 247.65625 173.691406 252.054688 170.117188 256.527344 167.140625 C 265.558594 161.113281 274.902344 157.53125 284.304688 156.488281 C 291.53125 155.6875 298.910156 156.390625 306.046875 157.070312 C 308.871094 157.335938 311.792969 157.617188 314.664062 157.796875 C 315.914062 157.875 317.144531 157.921875 318.320312 157.957031 C 327.320312 158.179688 333.855469 156.828125 338.875 153.714844 C 340.3125 152.824219 341.625 151.773438 342.8125 150.5625 C 349.695312 143.523438 350.9375 131.347656 345.773438 121.609375 C 341.429688 113.421875 333.148438 107.089844 323.050781 104.238281 C 318.519531 102.96875 313.578125 102.324219 308.320312 102.324219 Z M 308.320312 102.324219 " fill-opacity="1" fill-rule="nonzero"/><path fill="#231f20" d="M 135.328125 265.980469 C 131.175781 265.992188 127.097656 265.457031 123.09375 264.375 C 118.34375 263.070312 113.972656 260.980469 109.980469 258.097656 C 105.914062 255.175781 102.25 251.445312 99.082031 247.011719 C 95.53125 242.042969 92.960938 236.296875 91.441406 229.929688 C 90.046875 224.105469 89.539062 217.75 89.910156 211.039062 C 90.554688 198.695312 95.382812 186.6875 103.503906 177.226562 C 106.792969 173.378906 110.472656 169.945312 114.542969 166.9375 C 121.316406 161.9375 129.445312 157.886719 139.398438 154.558594 C 148.261719 151.597656 157.734375 149.457031 166.894531 147.390625 C 175.875 145.367188 185.15625 143.273438 193.90625 140.394531 C 209.589844 135.238281 224.039062 126.929688 238.003906 118.894531 C 246.613281 113.941406 255.515625 108.824219 264.539062 104.546875 C 274.660156 99.757812 283.910156 96.542969 292.8125 94.71875 C 297.160156 93.824219 301.554688 93.289062 305.992188 93.109375 C 312.386719 92.871094 318.386719 93.539062 323.824219 95.082031 C 334.585938 98.144531 343.367188 104.953125 347.910156 113.765625 C 350.421875 118.640625 351.507812 124.386719 350.960938 129.953125 C 350.394531 135.746094 348.058594 140.976562 344.382812 144.683594 C 343.101562 145.976562 341.683594 147.097656 340.136719 148.050781 C 334.757812 151.359375 327.855469 152.792969 318.417969 152.5625 C 317.1875 152.535156 315.90625 152.476562 314.601562 152.394531 C 311.621094 152.203125 308.589844 151.90625 305.660156 151.617188 C 298.316406 150.902344 290.726562 150.160156 283.335938 151.015625 C 273.753906 152.125 264.242188 155.917969 255.070312 162.289062 C 250.53125 165.433594 246.078125 169.207031 241.835938 173.507812 C 234.167969 181.296875 227.824219 189.96875 221.113281 199.152344 C 218.3125 202.976562 215.410156 206.9375 212.425781 210.808594 C 201.667969 224.738281 190.015625 239.261719 176.335938 250.324219 C 171.796875 254.019531 166.886719 257.128906 161.605469 259.652344 C 152.652344 263.855469 143.75 265.980469 135.328125 265.980469 Z M 194.03125 140.773438 L 194.15625 141.15625 C 185.371094 144.042969 176.070312 146.140625 167.070312 148.171875 C 148.832031 152.289062 129.96875 156.542969 115.015625 167.582031 C 110.996094 170.558594 107.359375 173.949219 104.105469 177.753906 C 96.101562 187.078125 91.34375 198.921875 90.703125 211.089844 C 89.9375 224.953125 93.054688 237.214844 99.726562 246.550781 C 105.980469 255.300781 113.910156 261.039062 123.296875 263.609375 C 134.875 266.773438 148 265.15625 161.257812 258.929688 C 166.484375 256.4375 171.34375 253.363281 175.832031 249.707031 C 189.449219 238.699219 201.0625 224.214844 211.792969 210.324219 C 214.777344 206.460938 217.671875 202.507812 220.46875 198.683594 C 227.199219 189.480469 233.558594 180.785156 241.265625 172.957031 C 245.542969 168.621094 250.035156 164.8125 254.613281 161.640625 C 263.894531 155.195312 273.53125 151.359375 283.246094 150.234375 C 290.722656 149.367188 298.351562 150.113281 305.734375 150.835938 C 308.660156 151.121094 311.683594 151.414062 314.652344 151.605469 C 315.945312 151.6875 317.21875 151.746094 318.4375 151.773438 C 327.714844 152 334.476562 150.601562 339.714844 147.378906 C 341.210938 146.460938 342.578125 145.378906 343.816406 144.132812 C 351 136.886719 352.421875 124.273438 347.199219 114.144531 C 342.757812 105.523438 334.15625 98.859375 323.605469 95.863281 C 318.25 94.339844 312.328125 93.6875 306.019531 93.917969 C 301.625 94.097656 297.273438 94.628906 292.964844 95.515625 C 273.261719 99.546875 255.539062 109.734375 238.398438 119.59375 C 224.390625 127.652344 209.90625 135.980469 194.144531 141.164062 Z M 194.03125 140.773438 " fill-opacity="1" fill-rule="nonzero"/><path fill="#231f20" d="M 129.691406 265.492188 C 125.507812 265.503906 121.390625 264.984375 117.34375 263.929688 C 112.417969 262.632812 107.867188 260.523438 103.691406 257.601562 C 99.433594 254.628906 95.582031 250.816406 92.25 246.277344 C 88.5 241.175781 85.765625 235.253906 84.121094 228.679688 C 82.621094 222.6875 82.015625 216.121094 82.320312 209.15625 C 82.847656 196.347656 87.707031 183.859375 96 173.996094 C 99.355469 169.964844 103.132812 166.382812 107.328125 163.242188 C 114.257812 158.0625 122.589844 153.882812 132.796875 150.464844 C 141.894531 147.417969 151.625 145.242188 161.035156 143.136719 C 170.445312 141.03125 180.203125 138.84375 189.367188 135.785156 L 189.496094 136.167969 L 189.367188 135.785156 C 205.773438 130.308594 220.835938 121.394531 235.402344 112.769531 C 244.28125 107.511719 253.464844 102.074219 262.785156 97.535156 C 273.242188 92.4375 282.808594 89.003906 292.039062 87.042969 C 296.566406 86.074219 301.140625 85.488281 305.765625 85.28125 C 312.421875 85.011719 318.671875 85.695312 324.335938 87.3125 C 329.660156 88.835938 334.703125 91.355469 338.9375 94.601562 C 343.449219 98.0625 346.9375 102.207031 349.300781 106.914062 C 351.84375 111.980469 352.902344 117.933594 352.28125 123.679688 C 351.636719 129.65625 349.171875 135.046875 345.339844 138.863281 C 344.007812 140.1875 342.539062 141.339844 340.933594 142.316406 C 335.777344 145.46875 329.027344 147.011719 320.355469 147.011719 C 319.746094 147.011719 319.125 147.003906 318.492188 146.992188 C 317.226562 146.957031 315.894531 146.898438 314.546875 146.8125 C 311.464844 146.609375 308.335938 146.304688 305.296875 145.992188 C 297.707031 145.230469 289.863281 144.453125 282.234375 145.367188 C 272.339844 146.558594 262.542969 150.601562 253.125 157.390625 C 248.476562 160.730469 243.933594 164.730469 239.613281 169.285156 C 232.171875 177.148438 226.019531 185.800781 219.507812 194.960938 C 216.363281 199.386719 213.109375 203.964844 209.710938 208.417969 C 199.445312 221.882812 187.238281 237.253906 172.375 249.222656 C 167.675781 253.035156 162.601562 256.242188 157.144531 258.855469 C 147.808594 263.261719 138.507812 265.492188 129.691406 265.492188 Z M 308.589844 86.023438 C 307.667969 86.023438 306.738281 86.042969 305.800781 86.078125 C 301.222656 86.285156 296.691406 86.867188 292.207031 87.824219 C 271.78125 92.167969 253.492188 102.992188 235.808594 113.46875 C 221.207031 122.113281 206.109375 131.050781 189.625 136.554688 C 180.421875 139.625 170.65625 141.8125 161.214844 143.925781 C 142.476562 148.113281 123.101562 152.457031 107.804688 163.894531 C 103.65625 166.996094 99.925781 170.535156 96.609375 174.519531 C 88.429688 184.246094 83.636719 196.566406 83.117188 209.203125 C 82.476562 223.800781 85.761719 236.113281 92.890625 245.8125 C 99.457031 254.753906 107.75 260.589844 117.542969 263.160156 C 129.5625 266.320312 143.140625 264.582031 156.800781 258.136719 C 162.199219 255.554688 167.222656 252.375 171.875 248.605469 C 186.664062 236.691406 198.835938 221.367188 209.082031 207.9375 C 212.46875 203.496094 215.71875 198.925781 218.863281 194.503906 C 225.390625 185.320312 231.558594 176.648438 239.039062 168.742188 C 243.390625 164.152344 247.976562 160.113281 252.664062 156.746094 C 262.191406 149.878906 272.113281 145.789062 282.140625 144.582031 C 289.863281 143.652344 297.753906 144.441406 305.386719 145.207031 C 308.410156 145.507812 311.535156 145.820312 314.601562 146.019531 C 315.9375 146.105469 317.253906 146.167969 318.515625 146.195312 C 327.9375 146.425781 335.132812 144.9375 340.523438 141.644531 C 342.074219 140.699219 343.492188 139.589844 344.78125 138.308594 C 352.269531 130.851562 353.875 117.804688 348.59375 107.285156 C 344.046875 98.234375 335.128906 91.238281 324.121094 88.089844 C 319.335938 86.714844 314.121094 86.023438 308.589844 86.023438 Z M 308.589844 86.023438 " fill-opacity="1" fill-rule="nonzero"/><path fill="#231f20" d="M 123.988281 265.632812 C 119.773438 265.644531 115.621094 265.140625 111.53125 264.117188 C 106.429688 262.828125 101.703125 260.703125 97.347656 257.742188 C 92.898438 254.71875 88.859375 250.828125 85.363281 246.183594 C 81.414062 240.945312 78.519531 234.847656 76.746094 228.070312 C 75.136719 221.910156 74.441406 215.121094 74.679688 207.910156 C 75.085938 194.679688 79.976562 181.714844 88.445312 171.402344 C 91.867188 167.199219 95.738281 163.460938 100.058594 160.191406 C 107.148438 154.828125 115.691406 150.515625 126.164062 147.007812 C 135.496094 143.882812 145.488281 141.660156 155.152344 139.515625 C 165.015625 137.324219 175.210938 135.058594 184.78125 131.820312 C 201.90625 126.027344 217.570312 116.503906 232.722656 107.292969 C 241.878906 101.726562 251.351562 95.972656 260.96875 91.152344 C 271.765625 85.746094 281.660156 82.09375 291.21875 79.996094 C 295.917969 78.957031 300.675781 78.320312 305.484375 78.089844 C 312.40625 77.785156 318.902344 78.488281 324.796875 80.183594 C 330.324219 81.773438 335.566406 84.414062 339.953125 87.816406 C 344.632812 91.445312 348.226562 95.78125 350.640625 100.710938 C 353.214844 105.96875 354.246094 112.128906 353.554688 118.058594 C 352.828125 124.21875 350.234375 129.769531 346.246094 133.691406 C 344.863281 135.046875 343.34375 136.230469 341.6875 137.234375 C 335.945312 140.714844 328.363281 142.292969 318.515625 142.058594 C 317.207031 142.027344 315.835938 141.964844 314.445312 141.871094 C 311.261719 141.660156 308.027344 141.328125 304.898438 141.011719 C 297.0625 140.210938 288.960938 139.382812 281.082031 140.363281 C 270.875 141.632812 260.796875 145.929688 251.128906 153.132812 C 246.378906 156.667969 241.738281 160.898438 237.34375 165.707031 C 230.082031 173.667969 224.085938 182.335938 217.734375 191.523438 C 214.285156 196.515625 210.714844 201.679688 206.949219 206.675781 C 196.441406 220.605469 183.632812 236.496094 168.359375 248.765625 C 163.5 252.691406 158.257812 256.003906 152.628906 258.703125 C 142.910156 263.296875 133.199219 265.632812 123.988281 265.632812 Z M 184.910156 132.195312 L 185.039062 132.574219 C 175.429688 135.828125 165.210938 138.097656 155.328125 140.292969 C 136.085938 144.570312 116.191406 148.992188 100.539062 160.828125 C 96.269531 164.0625 92.441406 167.757812 89.058594 171.914062 C 80.695312 182.089844 75.878906 194.890625 75.476562 207.941406 C 74.96875 223.070312 78.515625 235.773438 85.992188 245.707031 C 92.875 254.835938 101.53125 260.769531 111.71875 263.351562 C 124.1875 266.503906 138.214844 264.644531 152.277344 257.980469 C 157.847656 255.304688 163.039062 252.023438 167.847656 248.140625 C 183.054688 235.925781 195.820312 220.085938 206.296875 206.191406 C 210.054688 201.207031 213.621094 196.050781 217.070312 191.066406 C 223.433594 181.859375 229.445312 173.167969 236.742188 165.167969 C 241.179688 160.320312 245.851562 156.058594 250.644531 152.492188 C 260.421875 145.207031 270.625 140.859375 280.972656 139.570312 C 288.941406 138.582031 297.089844 139.410156 304.96875 140.214844 C 308.089844 140.535156 311.316406 140.863281 314.488281 141.074219 C 315.867188 141.164062 317.226562 141.226562 318.527344 141.257812 C 328.21875 141.492188 335.65625 139.953125 341.261719 136.554688 C 342.867188 135.582031 344.339844 134.4375 345.679688 133.125 C 353.476562 125.457031 355.257812 111.972656 349.917969 101.066406 C 345.277344 91.585938 336.035156 84.253906 324.574219 80.957031 C 318.761719 79.285156 312.351562 78.589844 305.519531 78.894531 C 300.757812 79.117188 296.046875 79.742188 291.390625 80.765625 C 270.230469 85.421875 251.375 96.886719 233.136719 107.972656 C 217.949219 117.203125 202.246094 126.75 185.039062 132.574219 Z M 184.910156 132.195312 " fill-opacity="1" fill-rule="nonzero"/><path fill="#231f20" d="M 118.214844 266.429688 C 113.972656 266.4375 109.785156 265.945312 105.660156 264.953125 C 100.378906 263.671875 95.472656 261.53125 90.9375 258.535156 C 86.277344 255.457031 82.066406 251.488281 78.410156 246.726562 C 70.453125 236.453125 66.605469 223.191406 66.96875 207.308594 C 67.257812 193.65625 72.175781 180.210938 80.820312 169.453125 C 84.308594 165.070312 88.277344 161.175781 92.722656 157.773438 C 99.976562 152.238281 108.726562 147.792969 119.476562 144.1875 C 129.046875 140.980469 139.304688 138.71875 149.226562 136.527344 C 159.519531 134.257812 170.164062 131.90625 180.128906 128.492188 L 180.257812 128.871094 L 180.128906 128.492188 C 197.964844 122.378906 214.230469 112.25 229.960938 102.453125 C 239.394531 96.582031 249.148438 90.503906 259.078125 85.410156 C 270.222656 79.699219 280.441406 75.828125 290.328125 73.589844 C 295.207031 72.472656 300.144531 71.789062 305.140625 71.527344 C 312.320312 71.183594 319.066406 71.910156 325.191406 73.679688 C 330.925781 75.339844 336.359375 78.097656 340.902344 81.65625 C 345.75 85.453125 349.453125 89.988281 351.914062 95.128906 C 354.519531 100.578125 355.527344 106.945312 354.753906 113.054688 C 353.9375 119.492188 351.285156 125.054688 347.082031 129.140625 C 345.648438 130.53125 344.074219 131.742188 342.363281 132.773438 C 336.40625 136.363281 328.585938 137.992188 318.46875 137.746094 C 317.113281 137.714844 315.699219 137.648438 314.265625 137.554688 C 310.984375 137.332031 307.644531 136.984375 304.417969 136.648438 C 296.335938 135.808594 287.984375 134.9375 279.855469 135.980469 C 269.335938 137.332031 258.972656 141.878906 249.0625 149.496094 C 244.199219 153.230469 239.46875 157.6875 234.996094 162.75 C 227.878906 170.824219 221.730469 179.960938 215.789062 188.792969 C 212.066406 194.328125 208.21875 200.046875 204.109375 205.550781 C 194.195312 218.835938 180.707031 235.773438 164.269531 248.929688 C 159.253906 252.96875 153.847656 256.382812 148.050781 259.175781 C 137.941406 263.988281 127.824219 266.429688 118.214844 266.429688 Z M 308.578125 72.246094 C 307.457031 72.246094 306.320312 72.273438 305.175781 72.328125 C 300.226562 72.582031 295.335938 73.265625 290.503906 74.367188 C 268.609375 79.328125 249.175781 91.429688 230.382812 103.132812 C 214.617188 112.953125 198.308594 123.105469 180.386719 129.25 C 170.375 132.675781 159.714844 135.03125 149.398438 137.308594 C 129.648438 141.667969 109.226562 146.175781 93.207031 158.417969 C 88.8125 161.78125 84.890625 165.625 81.441406 169.957031 C 72.90625 180.582031 68.050781 193.851562 67.769531 207.328125 C 67.40625 223.023438 71.199219 236.117188 79.046875 246.242188 C 86.207031 255.558594 95.222656 261.589844 105.851562 264.175781 C 109.917969 265.15625 114.039062 265.640625 118.222656 265.628906 C 127.710938 265.628906 137.710938 263.214844 147.707031 258.457031 C 153.453125 255.691406 158.808594 252.308594 163.777344 248.308594 C 180.140625 235.210938 193.585938 218.324219 203.472656 205.074219 C 207.570312 199.585938 211.414062 193.871094 215.132812 188.347656 C 221.089844 179.492188 227.253906 170.335938 234.40625 162.222656 C 238.910156 157.121094 243.679688 152.625 248.582031 148.863281 C 258.605469 141.160156 269.097656 136.558594 279.753906 135.1875 C 287.972656 134.132812 296.375 135.007812 304.5 135.851562 C 307.722656 136.1875 311.054688 136.535156 314.320312 136.757812 C 315.746094 136.851562 317.144531 136.917969 318.488281 136.949219 C 328.449219 137.1875 336.125 135.597656 341.953125 132.089844 C 343.613281 131.089844 345.136719 129.914062 346.527344 128.566406 C 354.632812 120.683594 356.597656 106.765625 351.195312 95.472656 C 346.523438 85.699219 336.722656 77.84375 324.972656 74.449219 C 319.90625 72.984375 314.402344 72.246094 308.578125 72.246094 Z M 308.578125 72.246094 " fill-opacity="1" fill-rule="nonzero"/><path fill="#231f20" d="M 112.371094 267.890625 C 108.101562 267.902344 103.882812 267.421875 99.71875 266.457031 C 94.261719 265.179688 89.175781 263.019531 84.464844 259.980469 C 79.613281 256.855469 75.210938 252.804688 71.390625 247.941406 C 63.078125 237.433594 58.972656 223.78125 59.199219 207.371094 C 59.363281 193.300781 64.3125 179.378906 73.136719 168.167969 C 76.695312 163.617188 80.757812 159.578125 85.324219 156.046875 C 92.746094 150.316406 101.707031 145.734375 112.726562 142.039062 C 122.542969 138.746094 133.070312 136.4375 143.25 134.207031 C 153.96875 131.859375 165.046875 129.429688 175.410156 125.835938 C 193.953125 119.410156 210.816406 108.675781 227.121094 98.289062 C 236.835938 92.105469 246.878906 85.710938 257.117188 80.34375 C 268.601562 74.316406 279.15625 70.234375 289.375 67.855469 C 294.425781 66.664062 299.542969 65.929688 304.726562 65.644531 C 312.167969 65.261719 319.164062 66.007812 325.515625 67.855469 C 331.460938 69.582031 337.085938 72.457031 341.785156 76.171875 C 346.796875 80.136719 350.609375 84.867188 353.117188 90.222656 C 355.753906 95.867188 356.738281 102.4375 355.886719 108.730469 C 354.988281 115.355469 352.210938 121.070312 347.851562 125.265625 C 346.367188 126.691406 344.742188 127.933594 342.972656 128.988281 C 336.792969 132.6875 328.738281 134.367188 318.351562 134.117188 C 316.957031 134.082031 315.5 134.015625 314.023438 133.914062 C 310.640625 133.683594 307.199219 133.316406 303.871094 132.964844 C 295.542969 132.085938 286.933594 131.171875 278.5625 132.277344 C 267.722656 133.710938 257.078125 138.511719 246.925781 146.542969 C 241.953125 150.472656 237.128906 155.160156 232.582031 160.472656 C 225.578125 168.675781 219.539062 177.894531 213.703125 186.8125 C 209.734375 192.863281 205.632812 199.125 201.210938 205.113281 C 186.628906 224.851562 173.574219 239.042969 160.125 249.78125 C 154.949219 253.929688 149.378906 257.445312 143.40625 260.328125 C 132.910156 265.34375 122.378906 267.890625 112.371094 267.890625 Z M 175.542969 126.214844 L 175.671875 126.59375 C 165.269531 130.199219 154.164062 132.636719 143.421875 134.988281 C 123.15625 139.433594 102.199219 144.027344 85.8125 156.679688 C 81.292969 160.171875 77.277344 164.171875 73.761719 168.675781 C 65.046875 179.746094 60.160156 193.496094 59.996094 207.390625 C 59.773438 223.613281 63.820312 237.097656 72.015625 247.457031 C 79.492188 256.964844 88.871094 263.09375 99.902344 265.683594 C 113.269531 268.816406 128.191406 266.71875 143.054688 259.613281 C 148.972656 256.757812 154.496094 253.273438 159.621094 249.160156 C 173.015625 238.46875 186.027344 224.324219 200.5625 204.640625 C 204.972656 198.675781 209.070312 192.421875 213.027344 186.378906 C 218.886719 177.441406 224.941406 168.203125 231.976562 159.960938 C 236.554688 154.605469 241.417969 149.878906 246.429688 145.921875 C 256.695312 137.796875 267.476562 132.945312 278.460938 131.492188 C 286.925781 130.371094 295.582031 131.289062 303.953125 132.175781 C 307.273438 132.527344 310.707031 132.890625 314.078125 133.121094 C 315.542969 133.222656 316.988281 133.289062 318.371094 133.324219 C 328.601562 133.566406 336.515625 131.925781 342.5625 128.308594 C 344.277344 127.28125 345.859375 126.078125 347.300781 124.695312 C 355.710938 116.597656 357.855469 102.246094 352.394531 90.566406 C 347.632812 80.371094 337.496094 72.164062 325.292969 68.621094 C 319.027344 66.800781 312.121094 66.066406 304.765625 66.441406 C 299.628906 66.726562 294.558594 67.453125 289.550781 68.632812 C 266.917969 73.902344 246.902344 86.640625 227.546875 98.964844 C 211.203125 109.371094 194.300781 120.128906 175.671875 126.59375 Z M 175.542969 126.214844 " fill-opacity="1" fill-rule="nonzero"/><path fill="#231f20" d="M 106.457031 270.042969 C 102.160156 270.050781 97.910156 269.585938 93.714844 268.644531 C 88.078125 267.375 82.816406 265.203125 77.925781 262.125 C 72.878906 258.953125 68.292969 254.824219 64.308594 249.851562 C 55.636719 239.105469 51.277344 225.066406 51.359375 208.132812 C 51.40625 193.640625 56.386719 179.238281 65.378906 167.582031 C 69.003906 162.851562 73.164062 158.652344 77.859375 154.988281 C 85.464844 149.058594 94.671875 144.324219 105.992188 140.527344 C 116.078125 137.144531 126.902344 134.785156 137.378906 132.503906 C 148.460938 130.089844 159.921875 127.589844 170.621094 123.863281 C 189.816406 117.09375 207.238281 105.785156 224.078125 94.859375 C 234.089844 88.355469 244.449219 81.636719 255.019531 75.980469 C 266.875 69.632812 277.777344 65.332031 288.347656 62.808594 C 293.574219 61.546875 298.871094 60.761719 304.242188 60.449219 C 311.945312 60.03125 319.195312 60.796875 325.769531 62.71875 C 331.925781 64.511719 337.742188 67.507812 342.59375 71.378906 C 347.773438 75.511719 351.695312 80.433594 354.253906 86.007812 C 356.921875 91.839844 357.882812 98.621094 356.953125 105.09375 C 355.976562 111.90625 353.070312 117.777344 348.554688 122.082031 C 347.019531 123.539062 345.339844 124.808594 343.519531 125.890625 C 337.117188 129.699219 328.828125 131.425781 318.175781 131.171875 C 316.734375 131.136719 315.234375 131.066406 313.714844 130.960938 C 310.230469 130.722656 306.6875 130.339844 303.261719 129.96875 C 294.6875 129.046875 285.824219 128.09375 277.207031 129.261719 C 266.054688 130.777344 255.121094 135.828125 244.726562 144.273438 C 239.644531 148.398438 234.726562 153.316406 230.105469 158.882812 C 223.191406 167.230469 217.234375 176.550781 211.476562 185.566406 C 207.289062 192.125 202.957031 198.902344 198.238281 205.355469 C 191.457031 214.625 185.023438 222.605469 178.574219 229.75 C 170.996094 238.148438 163.582031 245.199219 155.902344 251.3125 C 150.570312 255.578125 144.832031 259.195312 138.6875 262.171875 C 127.808594 267.386719 116.871094 270.042969 106.457031 270.042969 Z M 308.285156 61.132812 C 306.96875 61.132812 305.636719 61.167969 304.289062 61.238281 C 298.96875 61.550781 293.71875 62.328125 288.539062 63.578125 C 265.117188 69.164062 244.476562 82.566406 224.515625 95.519531 C 207.628906 106.480469 190.175781 117.816406 170.890625 124.613281 C 160.144531 128.355469 148.660156 130.859375 137.550781 133.277344 C 116.707031 137.820312 95.152344 142.515625 78.347656 155.613281 C 73.707031 159.238281 69.59375 163.390625 66.011719 168.066406 C 57.121094 179.585938 52.199219 193.8125 52.15625 208.128906 C 52.078125 224.878906 56.375 238.746094 64.929688 249.34375 C 72.714844 259.042969 82.457031 265.273438 93.890625 267.863281 C 107.703125 270.988281 123.074219 268.773438 138.339844 261.445312 C 144.429688 258.496094 150.117188 254.910156 155.40625 250.683594 C 169.386719 239.554688 183.1875 224.570312 197.59375 204.882812 C 202.296875 198.449219 206.621094 191.679688 210.804688 185.132812 C 216.578125 176.097656 222.546875 166.753906 229.492188 158.371094 C 234.144531 152.761719 239.101562 147.808594 244.222656 143.644531 C 254.742188 135.101562 265.796875 129.996094 277.097656 128.460938 C 285.8125 127.277344 294.726562 128.238281 303.347656 129.164062 C 306.769531 129.535156 310.300781 129.914062 313.773438 130.15625 C 315.277344 130.261719 316.765625 130.332031 318.191406 130.367188 C 328.691406 130.621094 336.84375 128.921875 343.113281 125.195312 C 344.882812 124.144531 346.519531 122.914062 348.011719 121.496094 C 356.734375 113.1875 359.058594 98.398438 353.535156 86.332031 C 348.675781 75.710938 338.214844 67.164062 325.5625 63.480469 C 320.207031 61.917969 314.414062 61.132812 308.285156 61.132812 Z M 308.285156 61.132812 " fill-opacity="1" fill-rule="nonzero"/><path fill="#231f20" d="M 100.46875 272.890625 C 96.144531 272.898438 91.867188 272.445312 87.640625 271.527344 C 81.828125 270.261719 76.386719 268.074219 71.316406 264.957031 C 66.078125 261.734375 61.304688 257.523438 57.15625 252.445312 C 48.125 241.464844 43.515625 227.039062 43.449219 209.574219 C 43.378906 194.664062 48.394531 179.785156 57.558594 167.683594 C 61.25 162.777344 65.507812 158.425781 70.324219 154.625 C 78.097656 148.511719 87.515625 143.648438 99.109375 139.757812 C 109.441406 136.289062 120.535156 133.886719 131.265625 131.566406 C 142.777344 129.070312 154.679688 126.496094 165.773438 122.585938 C 185.667969 115.507812 203.6875 103.589844 221.109375 92.070312 C 231.402344 85.257812 242.050781 78.21875 252.925781 72.289062 C 265.125 65.640625 276.359375 61.113281 287.265625 58.453125 C 292.882812 57.085938 298.410156 56.242188 303.703125 55.945312 C 311.667969 55.492188 319.164062 56.277344 325.972656 58.273438 C 332.332031 60.136719 338.34375 63.25 343.351562 67.277344 C 348.625 71.519531 352.765625 76.777344 355.328125 82.484375 C 358.023438 88.511719 358.960938 95.492188 357.953125 102.148438 C 356.894531 109.144531 353.867188 115.175781 349.195312 119.585938 C 347.605469 121.078125 345.875 122.378906 344 123.488281 C 337.378906 127.40625 328.847656 129.183594 317.925781 128.925781 C 316.449219 128.890625 314.90625 128.816406 313.34375 128.703125 C 309.753906 128.449219 306.109375 128.054688 302.582031 127.667969 C 293.765625 126.703125 284.648438 125.707031 275.78125 126.9375 C 264.308594 128.535156 253.101562 133.839844 242.453125 142.703125 C 237.257812 147.019531 232.25 152.167969 227.554688 157.988281 C 220.714844 166.488281 214.824219 175.929688 209.132812 185.0625 C 204.738281 192.113281 200.195312 199.398438 195.191406 206.296875 C 180.667969 226.335938 166.421875 241.789062 151.617188 253.539062 C 146.125 257.914062 140.222656 261.636719 133.90625 264.703125 C 122.636719 270.128906 111.285156 272.890625 100.46875 272.890625 Z M 308.027344 56.617188 C 306.617188 56.617188 305.1875 56.660156 303.746094 56.742188 C 298.5 57.039062 293.019531 57.875 287.453125 59.230469 C 263.292969 65.121094 242.074219 79.160156 221.542969 92.734375 C 204.082031 104.285156 186.027344 116.226562 166.039062 123.335938 C 154.898438 127.265625 142.976562 129.847656 131.433594 132.34375 C 110.078125 136.96875 87.988281 141.75 70.820312 155.253906 C 66.054688 159.011719 61.851562 163.3125 58.199219 168.164062 C 49.136719 180.128906 44.183594 194.835938 44.253906 209.570312 C 44.316406 226.847656 48.867188 241.101562 57.777344 251.9375 C 65.871094 261.828125 75.980469 268.15625 87.816406 270.746094 C 91.988281 271.652344 96.207031 272.097656 100.472656 272.089844 C 111.167969 272.089844 122.40625 269.359375 133.5625 263.980469 C 139.828125 260.941406 145.679688 257.253906 151.125 252.914062 C 165.867188 241.210938 180.074219 225.808594 194.558594 205.828125 C 199.542969 198.953125 204.078125 191.675781 208.464844 184.640625 C 214.167969 175.488281 220.070312 166.023438 226.945312 157.488281 C 231.671875 151.625 236.722656 146.441406 241.953125 142.085938 C 252.707031 133.128906 264.054688 127.765625 275.675781 126.148438 C 284.640625 124.902344 293.808594 125.90625 302.667969 126.875 C 306.1875 127.253906 309.824219 127.65625 313.394531 127.90625 C 314.949219 128.015625 316.476562 128.089844 317.945312 128.125 C 328.714844 128.378906 337.101562 126.636719 343.589844 122.800781 C 345.417969 121.722656 347.101562 120.457031 348.648438 119.003906 C 357.679688 110.476562 360.179688 95.257812 354.597656 82.808594 C 349.640625 71.765625 338.855469 62.878906 325.746094 59.035156 C 320.261719 57.425781 314.3125 56.617188 308.027344 56.617188 Z M 308.027344 56.617188 " fill-opacity="1" fill-rule="nonzero"/><path fill="#231f20" d="M 94.394531 276.453125 C 90.050781 276.460938 85.75 276.023438 81.496094 275.136719 C 69.050781 272.480469 58.433594 265.960938 49.929688 255.769531 C 40.542969 244.546875 35.679688 229.738281 35.472656 211.746094 C 35.28125 196.417969 40.324219 181.0625 49.664062 168.507812 C 53.425781 163.429688 57.773438 158.921875 62.71875 154.992188 C 70.65625 148.695312 80.289062 143.695312 92.15625 139.710938 C 102.734375 136.15625 114.097656 133.714844 125.085938 131.347656 C 137.023438 128.78125 149.363281 126.125 160.847656 122.035156 C 181.453125 114.644531 200.058594 102.121094 218.054688 90.007812 C 228.632812 82.890625 239.566406 75.527344 250.75 69.324219 C 263.292969 62.367188 274.863281 57.621094 286.105469 54.824219 C 291.902344 53.382812 297.613281 52.488281 303.085938 52.164062 C 311.3125 51.675781 319.050781 52.480469 326.09375 54.550781 C 339.882812 58.613281 351.183594 68.007812 356.324219 79.6875 C 359.058594 85.90625 359.96875 93.089844 358.882812 99.933594 C 357.742188 107.117188 354.59375 113.300781 349.761719 117.820312 C 348.121094 119.351562 346.339844 120.679688 344.40625 121.8125 C 337.996094 125.585938 329.898438 127.429688 319.695312 127.429688 C 319.007812 127.429688 318.308594 127.421875 317.605469 127.402344 C 316.082031 127.367188 314.496094 127.292969 312.890625 127.179688 C 309.203125 126.914062 305.453125 126.5 301.828125 126.097656 C 292.765625 125.09375 283.394531 124.050781 274.28125 125.347656 C 262.488281 127.023438 250.996094 132.582031 240.113281 141.859375 C 234.8125 146.378906 229.707031 151.75 224.941406 157.824219 C 218.148438 166.484375 212.316406 176.0625 206.675781 185.328125 C 202.09375 192.851562 197.355469 200.636719 192.089844 207.964844 C 185.277344 217.441406 178.292969 226.128906 171.332031 233.789062 C 163.496094 242.410156 155.394531 250.050781 147.253906 256.496094 C 141.605469 260.988281 135.535156 264.808594 129.046875 267.964844 C 117.414062 273.597656 105.636719 276.453125 94.394531 276.453125 Z M 307.699219 52.824219 C 306.191406 52.824219 304.671875 52.871094 303.136719 52.960938 C 297.714844 53.28125 292.050781 54.171875 286.300781 55.597656 C 261.390625 61.800781 239.589844 76.476562 218.503906 90.667969 C 200.46875 102.808594 181.820312 115.359375 161.117188 122.785156 C 149.585938 126.894531 137.21875 129.554688 125.257812 132.128906 C 103.378906 136.835938 80.757812 141.703125 63.214844 155.613281 C 58.328125 159.5 54.023438 163.957031 50.304688 168.980469 C 41.066406 181.394531 36.082031 196.582031 36.269531 211.734375 C 36.476562 229.535156 41.277344 244.175781 50.542969 255.253906 C 58.925781 265.304688 69.394531 271.730469 81.660156 274.351562 C 85.859375 275.226562 90.105469 275.660156 94.394531 275.652344 C 105.519531 275.652344 117.175781 272.816406 128.707031 267.238281 C 135.140625 264.109375 141.160156 260.316406 146.765625 255.863281 C 162.25 243.597656 176.863281 227.777344 191.445312 207.496094 C 196.691406 200.191406 201.421875 192.421875 206 184.910156 C 211.652344 175.625 217.496094 166.027344 224.316406 157.328125 C 229.117188 151.210938 234.261719 145.800781 239.601562 141.25 C 250.597656 131.871094 262.230469 126.253906 274.171875 124.554688 C 283.382812 123.246094 292.808594 124.292969 301.925781 125.300781 C 305.542969 125.703125 309.28125 126.117188 312.949219 126.378906 C 314.542969 126.492188 316.117188 126.570312 317.625 126.605469 C 328.664062 126.859375 337.289062 125.074219 344 121.125 C 345.882812 120.019531 347.621094 118.722656 349.214844 117.238281 C 358.558594 108.496094 361.238281 92.839844 355.59375 80.007812 C 350.546875 68.539062 339.433594 59.316406 325.863281 55.320312 C 320.230469 53.660156 314.136719 52.824219 307.699219 52.824219 Z M 307.699219 52.824219 " fill-opacity="1" fill-rule="nonzero"/><path fill="#231f20" d="M 88.25 280.761719 C 83.882812 280.769531 79.554688 280.339844 75.273438 279.476562 C 62.429688 276.824219 51.449219 270.207031 42.628906 259.820312 C 37.488281 253.777344 33.601562 246.640625 31.074219 238.621094 C 28.8125 231.445312 27.582031 223.386719 27.414062 214.65625 C 27.109375 198.90625 32.179688 183.070312 41.695312 170.066406 C 45.523438 164.8125 49.96875 160.15625 55.039062 156.089844 C 63.148438 149.609375 72.992188 144.472656 85.136719 140.394531 C 95.957031 136.761719 107.59375 134.273438 118.84375 131.863281 C 131.203125 129.222656 143.980469 126.488281 155.847656 122.21875 C 177.160156 114.515625 196.359375 101.382812 214.921875 88.683594 C 225.78125 81.257812 237.007812 73.578125 248.503906 67.097656 C 261.398438 59.828125 273.292969 54.867188 284.871094 51.929688 C 290.851562 50.414062 296.746094 49.46875 302.394531 49.121094 C 310.886719 48.597656 318.867188 49.421875 326.140625 51.566406 C 340.417969 55.78125 352.046875 65.523438 357.25 77.621094 C 360.027344 84.015625 360.914062 91.410156 359.75 98.441406 C 358.53125 105.800781 355.246094 112.148438 350.253906 116.78125 C 348.566406 118.34375 346.726562 119.703125 344.742188 120.863281 C 338.199219 124.695312 329.628906 126.632812 319.253906 126.632812 C 318.582031 126.632812 317.90625 126.625 317.21875 126.609375 C 315.65625 126.570312 314.027344 126.492188 312.375 126.371094 C 308.589844 126.101562 304.738281 125.667969 301.015625 125.25 C 291.703125 124.203125 282.074219 123.121094 272.71875 124.476562 C 260.609375 126.234375 248.828125 132.042969 237.707031 141.742188 C 232.296875 146.460938 227.097656 152.058594 222.253906 158.386719 C 215.503906 167.214844 209.710938 176.941406 204.117188 186.347656 C 199.355469 194.347656 194.433594 202.617188 188.910156 210.363281 C 174.386719 230.734375 158.882812 247.496094 142.832031 260.183594 C 137.023438 264.785156 130.789062 268.710938 124.128906 271.957031 C 112.085938 277.785156 99.890625 280.761719 88.25 280.761719 Z M 307.289062 49.761719 C 305.691406 49.761719 304.074219 49.8125 302.4375 49.914062 C 296.839844 50.257812 290.992188 51.195312 285.058594 52.699219 C 259.414062 59.207031 237.023438 74.53125 215.363281 89.335938 C 196.757812 102.066406 177.519531 115.226562 156.113281 122.964844 C 144.199219 127.25 131.390625 129.992188 119.007812 132.640625 C 96.609375 137.433594 73.445312 142.386719 55.53125 156.710938 C 50.519531 160.730469 46.121094 165.335938 42.335938 170.535156 C 32.925781 183.398438 27.914062 199.058594 28.214844 214.632812 C 28.5625 232.957031 33.613281 247.984375 43.238281 259.304688 C 51.9375 269.554688 62.769531 276.078125 75.433594 278.691406 C 90.617188 281.789062 107.332031 279.207031 123.777344 271.230469 C 130.382812 268.011719 136.570312 264.117188 142.332031 259.554688 C 158.328125 246.914062 173.777344 230.207031 188.257812 209.898438 C 193.757812 202.175781 198.671875 193.921875 203.425781 185.9375 C 209.035156 176.511719 214.828125 166.769531 221.613281 157.898438 C 226.488281 151.527344 231.722656 145.886719 237.175781 141.144531 C 248.414062 131.347656 260.332031 125.476562 272.597656 123.695312 C 282.054688 122.320312 291.730469 123.410156 301.09375 124.457031 C 304.8125 124.875 308.65625 125.308594 312.425781 125.578125 C 314.0625 125.695312 315.679688 125.773438 317.230469 125.8125 C 328.382812 126.074219 337.496094 124.179688 344.332031 120.175781 C 346.269531 119.046875 348.058594 117.71875 349.703125 116.199219 C 359.378906 107.222656 362.238281 91.132812 356.511719 77.9375 C 351.398438 66.050781 339.960938 56.480469 325.90625 52.332031 C 320.132812 50.621094 313.882812 49.761719 307.289062 49.761719 Z M 307.289062 49.761719 " fill-opacity="1" fill-rule="nonzero"/><path fill="#231f20" d="M 82.035156 285.824219 C 77.644531 285.832031 73.292969 285.410156 68.984375 284.5625 C 55.742188 281.921875 44.398438 275.214844 35.261719 264.621094 C 29.925781 258.441406 25.875 251.132812 23.21875 242.898438 C 20.847656 235.554688 19.527344 227.277344 19.289062 218.300781 C 18.863281 202.132812 23.964844 185.820312 33.65625 172.367188 C 37.550781 166.9375 42.09375 162.125 47.285156 157.929688 C 55.5625 151.261719 65.625 145.996094 78.046875 141.820312 C 89.113281 138.101562 101.023438 135.566406 112.542969 133.117188 C 125.316406 130.398438 138.519531 127.589844 150.773438 123.140625 C 172.789062 115.125 192.570312 101.386719 211.707031 88.101562 C 222.847656 80.359375 234.371094 72.363281 246.175781 65.609375 C 259.421875 58.03125 271.644531 52.851562 283.558594 49.777344 C 289.71875 48.1875 295.796875 47.191406 301.621094 46.820312 C 310.375 46.257812 318.609375 47.101562 326.105469 49.320312 C 340.828125 53.683594 352.785156 63.769531 358.09375 76.296875 C 360.898438 82.886719 361.761719 90.488281 360.519531 97.703125 C 359.222656 105.257812 355.8125 111.753906 350.667969 116.492188 C 348.925781 118.089844 347.035156 119.476562 344.996094 120.664062 C 337.808594 124.851562 328.304688 126.835938 316.746094 126.5625 C 315.140625 126.523438 313.46875 126.441406 311.773438 126.320312 C 307.886719 126.039062 303.933594 125.585938 300.117188 125.152344 C 290.558594 124.0625 280.675781 122.9375 271.074219 124.359375 C 258.640625 126.199219 246.578125 132.257812 235.21875 142.367188 C 229.695312 147.28125 224.402344 153.113281 219.488281 159.691406 C 212.773438 168.695312 207.007812 178.578125 201.445312 188.136719 C 196.519531 196.597656 191.425781 205.347656 185.65625 213.503906 C 171.019531 234.195312 155.097656 251.386719 138.328125 264.609375 C 132.359375 269.324219 125.960938 273.351562 119.128906 276.6875 C 106.691406 282.738281 94.082031 285.824219 82.035156 285.824219 Z M 306.804688 47.449219 C 305.113281 47.449219 303.40625 47.503906 301.675781 47.613281 C 295.898438 47.984375 289.871094 48.96875 283.757812 50.546875 C 257.363281 57.367188 234.382812 73.324219 212.160156 88.757812 C 192.984375 102.074219 173.15625 115.84375 151.046875 123.890625 C 138.746094 128.359375 125.507812 131.175781 112.707031 133.902344 C 89.78125 138.777344 66.074219 143.820312 47.785156 158.554688 C 42.648438 162.703125 38.15625 167.464844 34.304688 172.835938 C 24.714844 186.148438 19.667969 202.289062 20.089844 218.28125 C 20.578125 237.128906 25.886719 252.546875 35.863281 264.109375 C 44.878906 274.5625 56.074219 281.183594 69.136719 283.785156 C 73.394531 284.621094 77.695312 285.03125 82.035156 285.023438 C 93.964844 285.023438 106.453125 281.964844 118.777344 275.96875 C 125.558594 272.65625 131.910156 268.660156 137.832031 263.976562 C 154.539062 250.800781 170.410156 233.664062 185 213.039062 C 190.75 204.914062 195.835938 196.179688 200.75 187.734375 C 206.328125 178.15625 212.09375 168.25 218.84375 159.210938 C 223.789062 152.585938 229.121094 146.71875 234.6875 141.769531 C 246.164062 131.554688 258.367188 125.429688 270.953125 123.566406 C 280.660156 122.128906 290.59375 123.261719 300.203125 124.355469 C 304.019531 124.789062 307.960938 125.242188 311.835938 125.519531 C 313.511719 125.648438 315.171875 125.722656 316.765625 125.761719 C 328.167969 126.027344 337.539062 124.082031 344.59375 119.96875 C 346.585938 118.8125 348.429688 117.457031 350.128906 115.902344 C 360.101562 106.71875 363.144531 90.191406 357.363281 76.605469 C 352.144531 64.289062 340.378906 54.378906 325.882812 50.082031 C 319.957031 48.332031 313.558594 47.449219 306.804688 47.449219 Z M 306.804688 47.449219 " fill-opacity="1" fill-rule="nonzero"/><path fill="#231f20" d="M 75.742188 291.664062 C 71.328125 291.667969 66.949219 291.253906 62.613281 290.421875 C 48.972656 287.789062 37.261719 280.984375 27.8125 270.195312 C 22.28125 263.875 18.0625 256.394531 15.28125 247.957031 C 12.800781 240.4375 11.394531 231.949219 11.089844 222.722656 C 10.710938 211.136719 13.140625 199.253906 18.117188 188.355469 C 23.089844 177.453125 30.46875 167.835938 39.460938 160.542969 C 47.910156 153.6875 58.191406 148.285156 70.886719 144.015625 C 82.203125 140.207031 94.386719 137.636719 106.167969 135.144531 C 119.359375 132.351562 132.996094 129.464844 145.625 124.839844 C 168.339844 116.511719 188.710938 102.167969 208.410156 88.292969 C 219.835938 80.246094 231.652344 71.925781 243.765625 64.894531 C 257.363281 57.007812 269.921875 51.609375 282.160156 48.394531 C 289.699219 46.414062 297.082031 45.316406 304.105469 45.128906 C 311.871094 44.925781 319.234375 45.839844 325.992188 47.847656 C 341.171875 52.359375 353.460938 62.789062 358.871094 75.746094 C 361.703125 82.53125 362.546875 90.34375 361.226562 97.734375 C 359.847656 105.480469 356.316406 112.128906 351.011719 116.976562 C 346.203125 121.371094 339.933594 124.398438 332.382812 125.980469 C 326.234375 127.269531 319.078125 127.625 311.113281 127.039062 C 307.125 126.746094 303.066406 126.277344 299.144531 125.828125 C 289.34375 124.699219 279.203125 123.53125 269.355469 125.011719 C 245.328125 128.636719 227.429688 147.003906 216.648438 161.773438 C 209.945312 170.960938 204.214844 181.011719 198.671875 190.730469 C 193.589844 199.644531 188.332031 208.863281 182.324219 217.417969 C 167.5625 238.433594 151.222656 256.058594 133.746094 269.8125 C 123.527344 277.855469 111.949219 284.046875 100.265625 287.71875 C 91.90625 290.34375 83.703125 291.664062 75.742188 291.664062 Z M 62.761719 289.636719 C 85.140625 293.953125 111.496094 286.308594 133.253906 269.183594 C 150.667969 255.472656 166.960938 237.90625 181.660156 216.957031 C 187.644531 208.433594 192.894531 199.230469 197.964844 190.332031 C 203.519531 180.59375 209.261719 170.527344 215.992188 161.304688 C 223.125 151.527344 230.953125 143.453125 239.261719 137.292969 C 248.867188 130.171875 258.949219 125.773438 269.222656 124.21875 C 279.179688 122.71875 289.371094 123.890625 299.222656 125.027344 C 303.136719 125.480469 307.1875 125.945312 311.15625 126.238281 C 328.675781 127.523438 341.902344 124.207031 350.464844 116.378906 C 360.742188 106.984375 363.964844 90.027344 358.125 76.046875 C 352.804688 63.308594 340.710938 53.054688 325.773438 48.613281 C 312.917969 44.792969 298.316406 44.976562 282.371094 49.164062 C 255.234375 56.296875 231.664062 72.894531 208.871094 88.949219 C 189.128906 102.855469 168.714844 117.226562 145.902344 125.589844 C 133.222656 130.234375 119.554688 133.128906 106.339844 135.925781 C 82.882812 140.890625 58.632812 146.023438 39.960938 161.164062 C 21.882812 175.828125 11.125 199.40625 11.886719 222.691406 C 12.523438 242.0625 18.082031 257.867188 28.414062 269.660156 C 37.742188 280.324219 49.300781 287.039062 62.761719 289.636719 Z M 62.761719 289.636719 " fill-opacity="1" fill-rule="nonzero"/></svg>