<svg xmlns="http://www.w3.org/2000/svg" xmlns:xlink="http://www.w3.org/1999/xlink" width="131" zoomAndPan="magnify" viewBox="0 0 98.25 87.749997" height="117" preserveAspectRatio="xMidYMid meet" version="1.0"><defs><g/></defs><g fill="#000000" fill-opacity="1"><g transform="translate(20.380209, 56.706371)"><g><path d="M 1.234375 -12.796875 C 1.078125 -5.171875 7.6875 0.734375 15.125 0.890625 C 22.546875 1.046875 25.953125 -4.15625 26.015625 -7.09375 C 26.03125 -7.75 25.671875 -7.90625 25.40625 -7.921875 C 24.625 -7.9375 24.015625 -5.921875 20.34375 -6 C 14.65625 -6.125 5.40625 -12.9375 5.546875 -19.25 C 5.59375 -21.5625 6.828125 -23.25 9.078125 -23.203125 C 11.59375 -23.140625 14.015625 -21.125 15.5625 -18.84375 C 16.84375 -16.953125 16.390625 -15.578125 17.3125 -15.5625 C 17.90625 -15.546875 20.03125 -17.515625 21.6875 -18.921875 C 23.109375 -20.125 24.90625 -21.4375 24.921875 -22.453125 C 24.96875 -24.3125 19.96875 -27.265625 15.78125 -27.359375 C 6.109375 -27.5625 1.40625 -20.84375 1.234375 -12.796875 Z M 1.234375 -12.796875 "/></g></g></g><g fill="#000000" fill-opacity="1"><g transform="translate(51.053728, 56.339743)"><g><path d="M -1.59375 -23.734375 C 2.21875 -23.734375 2.296875 -19.171875 2.296875 -18.0625 L 2.296875 -4.921875 C 2.296875 -2.9375 1.828125 -0.796875 0.90625 0 L 11.828125 0 C 10.90625 -0.796875 10.4375 -2.96875 10.4375 -4.953125 L 10.4375 -17.703125 C 11 -19.5625 12.21875 -21.46875 14.71875 -21.46875 C 16.671875 -21.46875 18.171875 -20.046875 18.171875 -17.5 L 18.171875 -4.921875 C 18.171875 -2.9375 17.703125 -0.796875 16.78125 0 L 27.703125 0 C 26.78125 -0.796875 26.3125 -2.96875 26.3125 -4.953125 L 26.3125 -19.484375 C 26.3125 -25.484375 23.21875 -28.375 18.171875 -28.375 C 16.703125 -28.375 15.515625 -27.9375 14.484375 -27.34375 L 10.4375 -19.25 L 10.4375 -28.375 C 7.78125 -26.75 2.34375 -24.125 -1.59375 -23.9375 Z M -1.59375 -23.734375 "/></g></g></g></svg>