<svg xmlns="http://www.w3.org/2000/svg" xmlns:xlink="http://www.w3.org/1999/xlink" width="137" zoomAndPan="magnify" viewBox="0 0 102.75 87.749997" height="117" preserveAspectRatio="xMidYMid meet" version="1.0"><defs><g/><clipPath id="63cbd528b4"><path d="M 0.0195312 13 L 53 13 L 53 75 L 0.0195312 75 Z M 0.0195312 13 " clip-rule="nonzero"/></clipPath></defs><path fill="#000000" d="M 29.992188 66.269531 C 27.988281 66.253906 26 66.074219 24.023438 65.734375 C 21.316406 65.289062 19.664062 64.480469 18.824219 63.1875 C 18.058594 62.015625 18.058594 60.597656 18.058594 59.101562 C 18.058594 56.546875 18.058594 53.652344 14.246094 50.984375 C 12.003906 49.414062 10.472656 46.75 9.828125 43.292969 C 9.265625 40.257812 9.414062 36.761719 10.253906 33.449219 C 11.65625 27.921875 14.554688 24.246094 17.820312 23.859375 C 25.84375 22.910156 32.445312 26.714844 35.042969 33.78125 C 35.996094 36.371094 38.101562 38.21875 40.328125 40.171875 C 44.035156 43.421875 47.863281 46.78125 46.1875 53.777344 C 44.925781 59.058594 42.25 62.707031 38.238281 64.621094 C 35.925781 65.722656 33.203125 66.269531 29.992188 66.269531 Z M 20.203125 24.417969 C 19.433594 24.417969 18.667969 24.464844 17.90625 24.554688 C 16.417969 24.730469 14.96875 25.710938 13.71875 27.390625 C 12.523438 29 11.558594 31.15625 10.933594 33.621094 C 10.121094 36.835938 9.972656 40.226562 10.519531 43.164062 C 11.128906 46.4375 12.558594 48.941406 14.65625 50.414062 C 18.765625 53.289062 18.761719 56.511719 18.761719 59.105469 C 18.761719 62.042969 18.761719 64.164062 24.140625 65.046875 C 26.058594 65.378906 27.992188 65.550781 29.941406 65.5625 C 38.476562 65.5625 43.589844 61.621094 45.503906 53.617188 C 46.222656 50.617188 45.949219 48.167969 44.648438 45.898438 C 43.496094 43.882812 41.652344 42.265625 39.867188 40.699219 C 37.667969 38.773438 35.398438 36.78125 34.382812 34.019531 C 32.15625 27.960938 26.832031 24.417969 20.203125 24.417969 Z M 20.203125 24.417969 " fill-opacity="1" fill-rule="nonzero"/><path fill="#000000" d="M 26.921875 62.78125 C 26.078125 62.78125 25.320312 62.691406 24.710938 62.496094 C 23.804688 62.203125 23.246094 61.695312 23.042969 60.988281 C 22.785156 60.089844 22.632812 58.929688 22.46875 57.691406 C 21.988281 54.050781 21.386719 49.523438 17.769531 48.53125 C 15.796875 47.992188 14.167969 46.351562 13.183594 43.914062 C 11.777344 40.433594 11.96875 36.035156 13.648438 33.21875 C 15.617188 29.929688 17.582031 28.121094 19.488281 27.84375 C 20.597656 27.683594 21.648438 28.054688 22.613281 28.945312 C 23.378906 29.644531 24.308594 30.945312 25.488281 32.59375 C 28.308594 36.53125 32.570312 42.488281 38.152344 44.667969 C 40.210938 45.476562 42.765625 47.109375 43.242188 50.3125 C 43.734375 53.644531 41.757812 57.207031 39.644531 58.863281 C 37.375 60.648438 31.070312 62.78125 26.921875 62.78125 Z M 17.957031 47.859375 C 22.023438 48.972656 22.65625 53.757812 23.164062 57.601562 C 23.324219 58.8125 23.476562 59.953125 23.71875 60.796875 C 23.855469 61.273438 24.25 61.613281 24.921875 61.828125 C 28.304688 62.917969 36.644531 60.332031 39.207031 58.320312 C 41.191406 56.761719 42.980469 53.378906 42.542969 50.421875 C 42.199219 48.113281 40.636719 46.402344 37.890625 45.328125 C 32.113281 43.070312 27.78125 37.015625 24.914062 33.007812 C 23.804688 31.457031 22.847656 30.121094 22.132812 29.464844 C 21.332031 28.730469 20.476562 28.417969 19.585938 28.546875 C 17.921875 28.789062 16.074219 30.53125 14.25 33.585938 C 12.671875 36.226562 12.5 40.367188 13.828125 43.660156 C 14.734375 45.886719 16.199219 47.378906 17.957031 47.859375 Z M 17.957031 47.859375 " fill-opacity="1" fill-rule="nonzero"/><path fill="#000000" d="M 29.753906 69.445312 C 26.265625 69.445312 22.789062 69.035156 20.46875 68.324219 C 15.007812 66.648438 11.992188 62.769531 12.195312 57.679688 C 12.367188 53.453125 11.472656 52.617188 8.820312 50.121094 C 8.453125 49.773438 8.035156 49.378906 7.589844 48.949219 C 4.679688 46.132812 3.355469 42.125 3.753906 37.359375 C 4.015625 34.242188 5.046875 30.871094 6.664062 27.871094 C 8.234375 24.960938 10.253906 22.5625 12.347656 21.125 C 15.269531 19.113281 18.554688 18.605469 22.390625 19.566406 C 25.585938 20.367188 28.46875 22.027344 30.785156 23.355469 C 31.058594 23.511719 31.324219 23.664062 31.578125 23.808594 C 33.449219 24.867188 34.535156 27.039062 35.789062 29.558594 C 37.605469 33.199219 39.867188 37.730469 45.519531 40.898438 C 48.394531 42.511719 50.023438 45.074219 50.359375 48.511719 C 50.648438 51.496094 49.894531 55.144531 48.246094 58.785156 C 46.847656 61.863281 44.902344 64.683594 43.167969 66.160156 C 41.019531 67.984375 37.039062 69.128906 31.960938 69.394531 C 31.234375 69.425781 30.492188 69.445312 29.753906 69.445312 Z M 18.816406 19.792969 C 16.589844 19.78125 14.566406 20.414062 12.746094 21.695312 C 10.742188 23.074219 8.800781 25.386719 7.285156 28.199219 C 5.710938 31.121094 4.707031 34.390625 4.453125 37.417969 C 4.1875 40.589844 4.601562 45.074219 8.078125 48.445312 C 8.519531 48.871094 8.9375 49.261719 9.300781 49.609375 C 11.972656 52.121094 13.082031 53.164062 12.898438 57.707031 C 12.707031 62.453125 15.542969 66.078125 20.675781 67.652344 C 23.414062 68.492188 27.832031 68.898438 31.925781 68.6875 C 36.847656 68.433594 40.679688 67.34375 42.710938 65.621094 C 45.949219 62.875 50.265625 54.867188 49.660156 48.574219 C 49.351562 45.375 47.839844 43 45.175781 41.503906 C 39.328125 38.230469 37.023438 33.59375 35.160156 29.863281 C 33.957031 27.453125 32.917969 25.367188 31.230469 24.410156 C 30.976562 24.265625 30.710938 24.117188 30.433594 23.957031 C 28.15625 22.648438 25.320312 21.023438 22.21875 20.242188 C 21.101562 19.953125 19.96875 19.804688 18.816406 19.792969 Z M 18.816406 19.792969 " fill-opacity="1" fill-rule="nonzero"/><path fill="#000000" d="M 28.21875 58.628906 C 27.640625 58.644531 27.09375 58.523438 26.578125 58.265625 C 25.773438 57.84375 25.222656 57.039062 24.945312 55.875 C 24.621094 54.542969 24.414062 53.257812 24.207031 52.015625 C 23.675781 48.75 23.25 46.167969 21.1875 45.636719 C 18.414062 44.925781 16.710938 42.664062 16.300781 40.863281 C 16.046875 39.742188 16.269531 38.792969 16.910156 38.261719 C 17.4375 37.824219 18.46875 37.472656 20.40625 38.285156 C 22.789062 39.285156 24.367188 40.570312 25.894531 41.820312 C 28.09375 43.613281 30.171875 45.304688 34.472656 46.058594 C 36.332031 46.386719 37.796875 47.070312 38.820312 48.09375 C 39.722656 49 40.230469 50.121094 40.277344 51.339844 C 40.296875 51.882812 40.226562 52.414062 40.066406 52.933594 C 39.90625 53.453125 39.660156 53.929688 39.335938 54.363281 C 39.011719 54.800781 38.625 55.171875 38.171875 55.476562 C 37.722656 55.78125 37.234375 56 36.707031 56.140625 C 35.703125 56.394531 34.578125 56.820312 33.496094 57.226562 C 31.660156 57.917969 29.777344 58.628906 28.21875 58.628906 Z M 18.351562 38.492188 C 17.941406 38.492188 17.605469 38.59375 17.363281 38.792969 C 16.929688 39.152344 16.792969 39.851562 16.984375 40.703125 C 17.347656 42.304688 18.871094 44.316406 21.359375 44.957031 C 23.867188 45.601562 24.347656 48.519531 24.902344 51.902344 C 25.101562 53.128906 25.3125 54.398438 25.625 55.710938 C 25.859375 56.683594 26.277344 57.316406 26.90625 57.644531 C 28.359375 58.410156 30.84375 57.472656 33.246094 56.566406 C 34.351562 56.148438 35.488281 55.71875 36.53125 55.453125 C 36.980469 55.335938 37.398438 55.144531 37.78125 54.886719 C 38.167969 54.625 38.5 54.3125 38.773438 53.9375 C 39.050781 53.566406 39.257812 53.160156 39.394531 52.71875 C 39.535156 52.273438 39.59375 51.824219 39.578125 51.359375 C 39.484375 49.023438 37.535156 47.296875 34.351562 46.738281 C 29.871094 45.953125 27.625 44.125 25.453125 42.351562 C 23.960938 41.136719 22.421875 39.882812 20.136719 38.921875 C 19.449219 38.636719 18.84375 38.492188 18.351562 38.492188 Z M 18.351562 38.492188 " fill-opacity="1" fill-rule="nonzero"/><g clip-path="url(#63cbd528b4)"><path fill="#000000" d="M 33.703125 74.976562 C 31.378906 74.976562 29.0625 74.625 27.0625 74.179688 C 21.140625 72.859375 15.585938 70.269531 12.363281 68.289062 C 8.484375 65.898438 7.667969 61.691406 6.945312 57.980469 C 6.371094 54.992188 5.828125 52.171875 3.8125 50.675781 C 0.0195312 47.863281 0.332031 42.839844 0.757812 35.890625 C 0.886719 33.835938 1.015625 31.714844 1.058594 29.398438 C 1.226562 21.089844 6.296875 19.25 13.972656 16.457031 C 15.96875 15.730469 18.234375 14.90625 20.632812 13.890625 C 24.355469 12.308594 27.714844 12.898438 30.902344 15.6875 C 33.640625 18.089844 35.828125 21.6875 37.945312 25.175781 C 39.722656 28.105469 41.40625 30.871094 43.171875 32.4375 C 46.582031 35.457031 49.011719 38.847656 50.597656 42.804688 C 51.953125 46.183594 52.691406 49.925781 52.917969 54.574219 C 53.117188 58.597656 52.355469 61.652344 50.449219 64.484375 C 48.570312 67.28125 45.625 69.75 42.253906 72.457031 C 39.90625 74.347656 36.800781 74.976562 33.703125 74.976562 Z M 24.535156 13.738281 C 23.363281 13.738281 22.160156 14.003906 20.910156 14.535156 C 18.492188 15.5625 16.21875 16.390625 14.210938 17.121094 C 6.546875 19.902344 1.917969 21.585938 1.765625 29.414062 C 1.71875 31.742188 1.589844 33.875 1.464844 35.933594 C 1.042969 42.664062 0.746094 47.527344 4.230469 50.113281 C 6.464844 51.769531 7.039062 54.71875 7.640625 57.84375 C 8.367188 61.589844 9.117188 65.464844 12.734375 67.6875 C 15.910156 69.644531 21.382812 72.195312 27.21875 73.492188 C 31.734375 74.492188 37.925781 75.039062 41.816406 71.914062 C 48.726562 66.367188 52.617188 62.828125 52.214844 54.613281 C 51.992188 50.042969 51.273438 46.371094 49.945312 43.066406 C 48.402344 39.210938 46.035156 35.90625 42.703125 32.96875 C 40.859375 31.335938 39.152344 28.523438 37.34375 25.546875 C 35.253906 22.105469 33.097656 18.546875 30.441406 16.222656 C 28.546875 14.5625 26.597656 13.738281 24.535156 13.738281 Z M 24.535156 13.738281 " fill-opacity="1" fill-rule="nonzero"/></g><g fill="#000000" fill-opacity="1"><g transform="translate(24.967235, 56.767592)"><g><path d="M 1.234375 -12.859375 C 1.078125 -5.203125 7.71875 0.734375 15.1875 0.890625 C 22.65625 1.046875 26.078125 -4.171875 26.140625 -7.125 C 26.15625 -7.796875 25.796875 -7.953125 25.53125 -7.953125 C 24.75 -7.96875 24.140625 -5.953125 20.4375 -6.03125 C 14.71875 -6.15625 5.4375 -13 5.578125 -19.328125 C 5.625 -21.671875 6.859375 -23.359375 9.125 -23.3125 C 11.640625 -23.25 14.09375 -21.21875 15.640625 -18.9375 C 16.921875 -17.046875 16.46875 -15.65625 17.40625 -15.625 C 17.984375 -15.625 20.125 -17.59375 21.796875 -19 C 23.21875 -20.21875 25.03125 -21.53125 25.0625 -22.546875 C 25.09375 -24.40625 20.0625 -27.40625 15.859375 -27.5 C 6.140625 -27.703125 1.40625 -20.953125 1.234375 -12.859375 Z M 1.234375 -12.859375 "/></g></g></g><g fill="#000000" fill-opacity="1"><g transform="translate(55.7871, 56.399214)"><g><path d="M -1.59375 -23.859375 C 2.234375 -23.859375 2.3125 -19.265625 2.3125 -18.15625 L 2.3125 -4.953125 C 2.3125 -2.953125 1.828125 -0.796875 0.921875 0 L 11.890625 0 C 10.96875 -0.796875 10.484375 -2.984375 10.484375 -4.984375 L 10.484375 -17.796875 C 11.046875 -19.671875 12.28125 -21.578125 14.796875 -21.578125 C 16.75 -21.578125 18.265625 -20.140625 18.265625 -17.59375 L 18.265625 -4.953125 C 18.265625 -2.953125 17.796875 -0.796875 16.875 0 L 27.84375 0 C 26.921875 -0.796875 26.453125 -2.984375 26.453125 -4.984375 L 26.453125 -19.59375 C 26.453125 -25.609375 23.34375 -28.515625 18.265625 -28.515625 C 16.796875 -28.515625 15.59375 -28.078125 14.5625 -27.484375 L 10.484375 -19.34375 L 10.484375 -28.515625 C 7.8125 -26.890625 2.359375 -24.25 -1.59375 -24.046875 Z M -1.59375 -23.859375 "/></g></g></g></svg>