<svg xmlns="http://www.w3.org/2000/svg" xmlns:xlink="http://www.w3.org/1999/xlink" width="131" zoomAndPan="magnify" viewBox="0 0 98.25 87.749997" height="117" preserveAspectRatio="xMidYMid meet" version="1.0"><defs><g/><clipPath id="35505bb312"><path d="M 0 0.207031 L 97.503906 0.207031 L 97.503906 87.292969 L 0 87.292969 Z M 0 0.207031 " clip-rule="nonzero"/></clipPath><clipPath id="e20a38f629"><path d="M 89 20 L 92.828125 20 L 92.828125 24 L 89 24 Z M 89 20 " clip-rule="nonzero"/></clipPath><clipPath id="d68561fa11"><path d="M 89 28 L 92.828125 28 L 92.828125 33 L 89 33 Z M 89 28 " clip-rule="nonzero"/></clipPath><clipPath id="35d12f11c5"><path d="M 89 37 L 92.828125 37 L 92.828125 42 L 89 42 Z M 89 37 " clip-rule="nonzero"/></clipPath><clipPath id="ee88c3becc"><path d="M 9.464844 46 L 14 46 L 14 50 L 9.464844 50 Z M 9.464844 46 " clip-rule="nonzero"/></clipPath><clipPath id="9f16d0f548"><path d="M 9.464844 55 L 14 55 L 14 59 L 9.464844 59 Z M 9.464844 55 " clip-rule="nonzero"/></clipPath><clipPath id="7e25fa29a2"><path d="M 9.464844 63 L 14 63 L 14 67.554688 L 9.464844 67.554688 Z M 9.464844 63 " clip-rule="nonzero"/></clipPath><clipPath id="57b0264dfc"><path d="M 18 63 L 22 63 L 22 67.554688 L 18 67.554688 Z M 18 63 " clip-rule="nonzero"/></clipPath><clipPath id="b98e6257b3"><path d="M 27 63 L 31 63 L 31 67.554688 L 27 67.554688 Z M 27 63 " clip-rule="nonzero"/></clipPath><clipPath id="de4bb9a4fe"><path d="M 36 63 L 40 63 L 40 67.554688 L 36 67.554688 Z M 36 63 " clip-rule="nonzero"/></clipPath><clipPath id="3c22c9a66c"><path d="M 44 63 L 49 63 L 49 67.554688 L 44 67.554688 Z M 44 63 " clip-rule="nonzero"/></clipPath><clipPath id="ab630eab08"><path d="M 53 63 L 58 63 L 58 67.554688 L 53 67.554688 Z M 53 63 " clip-rule="nonzero"/></clipPath><clipPath id="7ec9387bab"><path d="M 62 63 L 67 63 L 67 67.554688 L 62 67.554688 Z M 62 63 " clip-rule="nonzero"/></clipPath></defs><g clip-path="url(#35505bb312)"><path fill="#ffffff" d="M 0 0.207031 L 97.503906 0.207031 L 97.503906 87.292969 L 0 87.292969 Z M 0 0.207031 " fill-opacity="1" fill-rule="nonzero"/></g><path fill="#000000" d="M 39.597656 21.914062 C 39.597656 22.152344 39.554688 22.382812 39.460938 22.601562 C 39.371094 22.824219 39.242188 23.019531 39.074219 23.1875 C 38.90625 23.355469 38.710938 23.488281 38.492188 23.578125 C 38.273438 23.667969 38.042969 23.714844 37.804688 23.714844 C 37.566406 23.714844 37.339844 23.667969 37.117188 23.578125 C 36.898438 23.488281 36.707031 23.355469 36.539062 23.1875 C 36.367188 23.019531 36.238281 22.824219 36.148438 22.601562 C 36.058594 22.382812 36.011719 22.152344 36.011719 21.914062 C 36.011719 21.675781 36.058594 21.445312 36.148438 21.222656 C 36.238281 21.003906 36.367188 20.808594 36.539062 20.640625 C 36.707031 20.472656 36.898438 20.339844 37.117188 20.25 C 37.339844 20.160156 37.566406 20.113281 37.804688 20.113281 C 38.042969 20.113281 38.273438 20.160156 38.492188 20.25 C 38.710938 20.339844 38.90625 20.472656 39.074219 20.640625 C 39.242188 20.808594 39.371094 21.003906 39.460938 21.222656 C 39.554688 21.445312 39.597656 21.675781 39.597656 21.914062 Z M 39.597656 21.914062 " fill-opacity="1" fill-rule="nonzero"/><path fill="#000000" d="M 48.464844 21.914062 C 48.464844 22.152344 48.417969 22.382812 48.328125 22.601562 C 48.238281 22.824219 48.105469 23.019531 47.9375 23.1875 C 47.769531 23.355469 47.578125 23.488281 47.355469 23.578125 C 47.136719 23.667969 46.910156 23.714844 46.671875 23.714844 C 46.433594 23.714844 46.203125 23.667969 45.984375 23.578125 C 45.765625 23.488281 45.570312 23.355469 45.402344 23.1875 C 45.234375 23.019531 45.105469 22.824219 45.011719 22.601562 C 44.921875 22.382812 44.875 22.152344 44.875 21.914062 C 44.875 21.675781 44.921875 21.445312 45.011719 21.222656 C 45.105469 21.003906 45.234375 20.808594 45.402344 20.640625 C 45.570312 20.472656 45.765625 20.339844 45.984375 20.25 C 46.203125 20.160156 46.433594 20.113281 46.671875 20.113281 C 46.910156 20.113281 47.136719 20.160156 47.355469 20.25 C 47.578125 20.339844 47.769531 20.472656 47.9375 20.640625 C 48.105469 20.808594 48.238281 21.003906 48.328125 21.222656 C 48.417969 21.445312 48.464844 21.675781 48.464844 21.914062 Z M 48.464844 21.914062 " fill-opacity="1" fill-rule="nonzero"/><path fill="#000000" d="M 57.320312 21.914062 C 57.320312 22.152344 57.273438 22.382812 57.183594 22.601562 C 57.09375 22.824219 56.960938 23.019531 56.792969 23.1875 C 56.625 23.355469 56.433594 23.488281 56.210938 23.578125 C 55.992188 23.667969 55.765625 23.714844 55.527344 23.714844 C 55.289062 23.714844 55.058594 23.667969 54.839844 23.578125 C 54.621094 23.488281 54.425781 23.355469 54.257812 23.1875 C 54.089844 23.019531 53.960938 22.824219 53.867188 22.601562 C 53.777344 22.382812 53.734375 22.152344 53.734375 21.914062 C 53.734375 21.675781 53.777344 21.445312 53.867188 21.222656 C 53.960938 21.003906 54.089844 20.808594 54.257812 20.640625 C 54.425781 20.472656 54.621094 20.339844 54.839844 20.25 C 55.058594 20.160156 55.289062 20.113281 55.527344 20.113281 C 55.765625 20.113281 55.992188 20.160156 56.210938 20.25 C 56.433594 20.339844 56.625 20.472656 56.792969 20.640625 C 56.960938 20.808594 57.09375 21.003906 57.183594 21.222656 C 57.273438 21.445312 57.320312 21.675781 57.320312 21.914062 Z M 57.320312 21.914062 " fill-opacity="1" fill-rule="nonzero"/><path fill="#000000" d="M 66.183594 21.914062 C 66.183594 22.152344 66.140625 22.382812 66.046875 22.601562 C 65.957031 22.824219 65.828125 23.019531 65.660156 23.1875 C 65.492188 23.355469 65.296875 23.488281 65.078125 23.578125 C 64.859375 23.667969 64.628906 23.714844 64.390625 23.714844 C 64.152344 23.714844 63.925781 23.667969 63.703125 23.578125 C 63.484375 23.488281 63.292969 23.355469 63.121094 23.1875 C 62.953125 23.019531 62.824219 22.824219 62.734375 22.601562 C 62.644531 22.382812 62.597656 22.152344 62.597656 21.914062 C 62.597656 21.675781 62.644531 21.445312 62.734375 21.222656 C 62.824219 21.003906 62.953125 20.808594 63.121094 20.640625 C 63.292969 20.472656 63.484375 20.339844 63.703125 20.25 C 63.925781 20.160156 64.152344 20.113281 64.390625 20.113281 C 64.628906 20.113281 64.859375 20.160156 65.078125 20.25 C 65.296875 20.339844 65.492188 20.472656 65.660156 20.640625 C 65.828125 20.808594 65.957031 21.003906 66.046875 21.222656 C 66.140625 21.445312 66.183594 21.675781 66.183594 21.914062 Z M 66.183594 21.914062 " fill-opacity="1" fill-rule="nonzero"/><path fill="#000000" d="M 75.050781 21.914062 C 75.050781 22.152344 75.003906 22.382812 74.914062 22.601562 C 74.824219 22.824219 74.691406 23.019531 74.523438 23.1875 C 74.355469 23.355469 74.164062 23.488281 73.941406 23.578125 C 73.722656 23.667969 73.496094 23.714844 73.257812 23.714844 C 73.019531 23.714844 72.789062 23.667969 72.570312 23.578125 C 72.351562 23.488281 72.15625 23.355469 71.988281 23.1875 C 71.820312 23.019531 71.691406 22.824219 71.597656 22.601562 C 71.507812 22.382812 71.460938 22.152344 71.460938 21.914062 C 71.460938 21.675781 71.507812 21.445312 71.597656 21.222656 C 71.691406 21.003906 71.820312 20.808594 71.988281 20.640625 C 72.15625 20.472656 72.351562 20.339844 72.570312 20.25 C 72.789062 20.160156 73.019531 20.113281 73.257812 20.113281 C 73.496094 20.113281 73.722656 20.160156 73.941406 20.25 C 74.164062 20.339844 74.355469 20.472656 74.523438 20.640625 C 74.691406 20.808594 74.824219 21.003906 74.914062 21.222656 C 75.003906 21.445312 75.050781 21.675781 75.050781 21.914062 Z M 75.050781 21.914062 " fill-opacity="1" fill-rule="nonzero"/><path fill="#000000" d="M 83.90625 21.914062 C 83.90625 22.152344 83.859375 22.382812 83.769531 22.601562 C 83.679688 22.824219 83.546875 23.019531 83.378906 23.1875 C 83.210938 23.355469 83.019531 23.488281 82.796875 23.578125 C 82.578125 23.667969 82.351562 23.714844 82.113281 23.714844 C 81.875 23.714844 81.644531 23.667969 81.425781 23.578125 C 81.207031 23.488281 81.011719 23.355469 80.84375 23.1875 C 80.675781 23.019531 80.546875 22.824219 80.453125 22.601562 C 80.363281 22.382812 80.316406 22.152344 80.316406 21.914062 C 80.316406 21.675781 80.363281 21.445312 80.453125 21.222656 C 80.546875 21.003906 80.675781 20.808594 80.84375 20.640625 C 81.011719 20.472656 81.207031 20.339844 81.425781 20.25 C 81.644531 20.160156 81.875 20.113281 82.113281 20.113281 C 82.351562 20.113281 82.578125 20.160156 82.796875 20.25 C 83.019531 20.339844 83.210938 20.472656 83.378906 20.640625 C 83.546875 20.808594 83.679688 21.003906 83.769531 21.222656 C 83.859375 21.445312 83.90625 21.675781 83.90625 21.914062 Z M 83.90625 21.914062 " fill-opacity="1" fill-rule="nonzero"/><g clip-path="url(#e20a38f629)"><path fill="#000000" d="M 92.769531 21.914062 C 92.769531 22.152344 92.726562 22.382812 92.632812 22.601562 C 92.542969 22.824219 92.414062 23.019531 92.246094 23.1875 C 92.078125 23.355469 91.882812 23.488281 91.664062 23.578125 C 91.445312 23.667969 91.214844 23.714844 90.976562 23.714844 C 90.738281 23.714844 90.511719 23.667969 90.289062 23.578125 C 90.070312 23.488281 89.875 23.355469 89.707031 23.1875 C 89.539062 23.019531 89.410156 22.824219 89.320312 22.601562 C 89.230469 22.382812 89.183594 22.152344 89.183594 21.914062 C 89.183594 21.675781 89.230469 21.445312 89.320312 21.222656 C 89.410156 21.003906 89.539062 20.808594 89.707031 20.640625 C 89.875 20.472656 90.070312 20.339844 90.289062 20.25 C 90.511719 20.160156 90.738281 20.113281 90.976562 20.113281 C 91.214844 20.113281 91.445312 20.160156 91.664062 20.25 C 91.882812 20.339844 92.078125 20.472656 92.246094 20.640625 C 92.414062 20.808594 92.542969 21.003906 92.632812 21.222656 C 92.726562 21.445312 92.769531 21.675781 92.769531 21.914062 Z M 92.769531 21.914062 " fill-opacity="1" fill-rule="nonzero"/></g><path fill="#000000" d="M 30.734375 30.664062 C 30.734375 30.902344 30.6875 31.132812 30.597656 31.351562 C 30.507812 31.574219 30.378906 31.769531 30.207031 31.9375 C 30.039062 32.105469 29.847656 32.238281 29.628906 32.328125 C 29.40625 32.417969 29.179688 32.464844 28.941406 32.464844 C 28.703125 32.464844 28.472656 32.417969 28.253906 32.328125 C 28.035156 32.238281 27.839844 32.105469 27.671875 31.9375 C 27.503906 31.769531 27.375 31.574219 27.285156 31.351562 C 27.191406 31.132812 27.148438 30.902344 27.148438 30.664062 C 27.148438 30.425781 27.191406 30.195312 27.285156 29.972656 C 27.375 29.753906 27.503906 29.558594 27.671875 29.390625 C 27.839844 29.222656 28.035156 29.089844 28.253906 29 C 28.472656 28.910156 28.703125 28.863281 28.941406 28.863281 C 29.179688 28.863281 29.40625 28.910156 29.628906 29 C 29.847656 29.089844 30.039062 29.222656 30.207031 29.390625 C 30.378906 29.558594 30.507812 29.753906 30.597656 29.972656 C 30.6875 30.195312 30.734375 30.425781 30.734375 30.664062 Z M 30.734375 30.664062 " fill-opacity="1" fill-rule="nonzero"/><path fill="#000000" d="M 39.597656 30.664062 C 39.597656 30.902344 39.554688 31.132812 39.460938 31.351562 C 39.371094 31.574219 39.242188 31.769531 39.074219 31.9375 C 38.90625 32.105469 38.710938 32.238281 38.492188 32.328125 C 38.273438 32.417969 38.042969 32.464844 37.804688 32.464844 C 37.566406 32.464844 37.339844 32.417969 37.117188 32.328125 C 36.898438 32.238281 36.707031 32.105469 36.539062 31.9375 C 36.367188 31.769531 36.238281 31.574219 36.148438 31.351562 C 36.058594 31.132812 36.011719 30.902344 36.011719 30.664062 C 36.011719 30.425781 36.058594 30.195312 36.148438 29.972656 C 36.238281 29.753906 36.367188 29.558594 36.539062 29.390625 C 36.707031 29.222656 36.898438 29.089844 37.117188 29 C 37.339844 28.910156 37.566406 28.863281 37.804688 28.863281 C 38.042969 28.863281 38.273438 28.910156 38.492188 29 C 38.710938 29.089844 38.90625 29.222656 39.074219 29.390625 C 39.242188 29.558594 39.371094 29.753906 39.460938 29.972656 C 39.554688 30.195312 39.597656 30.425781 39.597656 30.664062 Z M 39.597656 30.664062 " fill-opacity="1" fill-rule="nonzero"/><path fill="#000000" d="M 48.464844 30.664062 C 48.464844 30.902344 48.417969 31.132812 48.328125 31.351562 C 48.238281 31.574219 48.105469 31.769531 47.9375 31.9375 C 47.769531 32.105469 47.578125 32.238281 47.355469 32.328125 C 47.136719 32.417969 46.910156 32.464844 46.671875 32.464844 C 46.433594 32.464844 46.203125 32.417969 45.984375 32.328125 C 45.765625 32.238281 45.570312 32.105469 45.402344 31.9375 C 45.234375 31.769531 45.105469 31.574219 45.011719 31.351562 C 44.921875 31.132812 44.875 30.902344 44.875 30.664062 C 44.875 30.425781 44.921875 30.195312 45.011719 29.972656 C 45.105469 29.753906 45.234375 29.558594 45.402344 29.390625 C 45.570312 29.222656 45.765625 29.089844 45.984375 29 C 46.203125 28.910156 46.433594 28.863281 46.671875 28.863281 C 46.910156 28.863281 47.136719 28.910156 47.355469 29 C 47.578125 29.089844 47.769531 29.222656 47.9375 29.390625 C 48.105469 29.558594 48.238281 29.753906 48.328125 29.972656 C 48.417969 30.195312 48.464844 30.425781 48.464844 30.664062 Z M 48.464844 30.664062 " fill-opacity="1" fill-rule="nonzero"/><path fill="#000000" d="M 57.320312 30.664062 C 57.320312 30.902344 57.273438 31.132812 57.183594 31.351562 C 57.09375 31.574219 56.960938 31.769531 56.792969 31.9375 C 56.625 32.105469 56.433594 32.238281 56.210938 32.328125 C 55.992188 32.417969 55.765625 32.464844 55.527344 32.464844 C 55.289062 32.464844 55.058594 32.417969 54.839844 32.328125 C 54.621094 32.238281 54.425781 32.105469 54.257812 31.9375 C 54.089844 31.769531 53.960938 31.574219 53.867188 31.351562 C 53.777344 31.132812 53.734375 30.902344 53.734375 30.664062 C 53.734375 30.425781 53.777344 30.195312 53.867188 29.972656 C 53.960938 29.753906 54.089844 29.558594 54.257812 29.390625 C 54.425781 29.222656 54.621094 29.089844 54.839844 29 C 55.058594 28.910156 55.289062 28.863281 55.527344 28.863281 C 55.765625 28.863281 55.992188 28.910156 56.210938 29 C 56.433594 29.089844 56.625 29.222656 56.792969 29.390625 C 56.960938 29.558594 57.09375 29.753906 57.183594 29.972656 C 57.273438 30.195312 57.320312 30.425781 57.320312 30.664062 Z M 57.320312 30.664062 " fill-opacity="1" fill-rule="nonzero"/><path fill="#000000" d="M 66.183594 30.664062 C 66.183594 30.902344 66.140625 31.132812 66.046875 31.351562 C 65.957031 31.574219 65.828125 31.769531 65.660156 31.9375 C 65.492188 32.105469 65.296875 32.238281 65.078125 32.328125 C 64.859375 32.417969 64.628906 32.464844 64.390625 32.464844 C 64.152344 32.464844 63.925781 32.417969 63.703125 32.328125 C 63.484375 32.238281 63.292969 32.105469 63.121094 31.9375 C 62.953125 31.769531 62.824219 31.574219 62.734375 31.351562 C 62.644531 31.132812 62.597656 30.902344 62.597656 30.664062 C 62.597656 30.425781 62.644531 30.195312 62.734375 29.972656 C 62.824219 29.753906 62.953125 29.558594 63.121094 29.390625 C 63.292969 29.222656 63.484375 29.089844 63.703125 29 C 63.925781 28.910156 64.152344 28.863281 64.390625 28.863281 C 64.628906 28.863281 64.859375 28.910156 65.078125 29 C 65.296875 29.089844 65.492188 29.222656 65.660156 29.390625 C 65.828125 29.558594 65.957031 29.753906 66.046875 29.972656 C 66.140625 30.195312 66.183594 30.425781 66.183594 30.664062 Z M 66.183594 30.664062 " fill-opacity="1" fill-rule="nonzero"/><path fill="#000000" d="M 75.050781 30.664062 C 75.050781 30.902344 75.003906 31.132812 74.914062 31.351562 C 74.824219 31.574219 74.691406 31.769531 74.523438 31.9375 C 74.355469 32.105469 74.164062 32.238281 73.941406 32.328125 C 73.722656 32.417969 73.496094 32.464844 73.257812 32.464844 C 73.019531 32.464844 72.789062 32.417969 72.570312 32.328125 C 72.351562 32.238281 72.15625 32.105469 71.988281 31.9375 C 71.820312 31.769531 71.691406 31.574219 71.597656 31.351562 C 71.507812 31.132812 71.460938 30.902344 71.460938 30.664062 C 71.460938 30.425781 71.507812 30.195312 71.597656 29.972656 C 71.691406 29.753906 71.820312 29.558594 71.988281 29.390625 C 72.15625 29.222656 72.351562 29.089844 72.570312 29 C 72.789062 28.910156 73.019531 28.863281 73.257812 28.863281 C 73.496094 28.863281 73.722656 28.910156 73.941406 29 C 74.164062 29.089844 74.355469 29.222656 74.523438 29.390625 C 74.691406 29.558594 74.824219 29.753906 74.914062 29.972656 C 75.003906 30.195312 75.050781 30.425781 75.050781 30.664062 Z M 75.050781 30.664062 " fill-opacity="1" fill-rule="nonzero"/><path fill="#000000" d="M 83.90625 30.664062 C 83.90625 30.902344 83.859375 31.132812 83.769531 31.351562 C 83.679688 31.574219 83.546875 31.769531 83.378906 31.9375 C 83.210938 32.105469 83.019531 32.238281 82.796875 32.328125 C 82.578125 32.417969 82.351562 32.464844 82.113281 32.464844 C 81.875 32.464844 81.644531 32.417969 81.425781 32.328125 C 81.207031 32.238281 81.011719 32.105469 80.84375 31.9375 C 80.675781 31.769531 80.546875 31.574219 80.453125 31.351562 C 80.363281 31.132812 80.316406 30.902344 80.316406 30.664062 C 80.316406 30.425781 80.363281 30.195312 80.453125 29.972656 C 80.546875 29.753906 80.675781 29.558594 80.84375 29.390625 C 81.011719 29.222656 81.207031 29.089844 81.425781 29 C 81.644531 28.910156 81.875 28.863281 82.113281 28.863281 C 82.351562 28.863281 82.578125 28.910156 82.796875 29 C 83.019531 29.089844 83.210938 29.222656 83.378906 29.390625 C 83.546875 29.558594 83.679688 29.753906 83.769531 29.972656 C 83.859375 30.195312 83.90625 30.425781 83.90625 30.664062 Z M 83.90625 30.664062 " fill-opacity="1" fill-rule="nonzero"/><g clip-path="url(#d68561fa11)"><path fill="#000000" d="M 92.769531 30.664062 C 92.769531 30.902344 92.726562 31.132812 92.632812 31.351562 C 92.542969 31.574219 92.414062 31.769531 92.246094 31.9375 C 92.078125 32.105469 91.882812 32.238281 91.664062 32.328125 C 91.445312 32.417969 91.214844 32.464844 90.976562 32.464844 C 90.738281 32.464844 90.511719 32.417969 90.289062 32.328125 C 90.070312 32.238281 89.875 32.105469 89.707031 31.9375 C 89.539062 31.769531 89.410156 31.574219 89.320312 31.351562 C 89.230469 31.132812 89.183594 30.902344 89.183594 30.664062 C 89.183594 30.425781 89.230469 30.195312 89.320312 29.972656 C 89.410156 29.753906 89.539062 29.558594 89.707031 29.390625 C 89.875 29.222656 90.070312 29.089844 90.289062 29 C 90.511719 28.910156 90.738281 28.863281 90.976562 28.863281 C 91.214844 28.863281 91.445312 28.910156 91.664062 29 C 91.882812 29.089844 92.078125 29.222656 92.246094 29.390625 C 92.414062 29.558594 92.542969 29.753906 92.632812 29.972656 C 92.726562 30.195312 92.769531 30.425781 92.769531 30.664062 Z M 92.769531 30.664062 " fill-opacity="1" fill-rule="nonzero"/></g><path fill="#000000" d="M 21.878906 39.414062 C 21.878906 39.652344 21.832031 39.882812 21.742188 40.101562 C 21.652344 40.324219 21.523438 40.519531 21.351562 40.6875 C 21.183594 40.855469 20.992188 40.988281 20.769531 41.078125 C 20.550781 41.167969 20.324219 41.214844 20.085938 41.214844 C 19.847656 41.214844 19.617188 41.167969 19.398438 41.078125 C 19.179688 40.988281 18.984375 40.855469 18.816406 40.6875 C 18.648438 40.519531 18.519531 40.324219 18.425781 40.101562 C 18.335938 39.882812 18.292969 39.652344 18.292969 39.414062 C 18.292969 39.175781 18.335938 38.945312 18.425781 38.726562 C 18.519531 38.503906 18.648438 38.308594 18.816406 38.140625 C 18.984375 37.972656 19.179688 37.839844 19.398438 37.75 C 19.617188 37.660156 19.847656 37.613281 20.085938 37.613281 C 20.324219 37.613281 20.550781 37.660156 20.769531 37.75 C 20.992188 37.839844 21.183594 37.972656 21.351562 38.140625 C 21.523438 38.308594 21.652344 38.503906 21.742188 38.726562 C 21.832031 38.945312 21.878906 39.175781 21.878906 39.414062 Z M 21.878906 39.414062 " fill-opacity="1" fill-rule="nonzero"/><path fill="#000000" d="M 30.734375 39.414062 C 30.734375 39.652344 30.6875 39.882812 30.597656 40.101562 C 30.507812 40.324219 30.378906 40.519531 30.207031 40.6875 C 30.039062 40.855469 29.847656 40.988281 29.628906 41.078125 C 29.40625 41.167969 29.179688 41.214844 28.941406 41.214844 C 28.703125 41.214844 28.472656 41.167969 28.253906 41.078125 C 28.035156 40.988281 27.839844 40.855469 27.671875 40.6875 C 27.503906 40.519531 27.375 40.324219 27.285156 40.101562 C 27.191406 39.882812 27.148438 39.652344 27.148438 39.414062 C 27.148438 39.175781 27.191406 38.945312 27.285156 38.726562 C 27.375 38.503906 27.503906 38.308594 27.671875 38.140625 C 27.839844 37.972656 28.035156 37.839844 28.253906 37.75 C 28.472656 37.660156 28.703125 37.613281 28.941406 37.613281 C 29.179688 37.613281 29.40625 37.660156 29.628906 37.75 C 29.847656 37.839844 30.039062 37.972656 30.207031 38.140625 C 30.378906 38.308594 30.507812 38.503906 30.597656 38.726562 C 30.6875 38.945312 30.734375 39.175781 30.734375 39.414062 Z M 30.734375 39.414062 " fill-opacity="1" fill-rule="nonzero"/><path fill="#000000" d="M 39.597656 39.414062 C 39.597656 39.652344 39.554688 39.882812 39.460938 40.101562 C 39.371094 40.324219 39.242188 40.519531 39.074219 40.6875 C 38.90625 40.855469 38.710938 40.988281 38.492188 41.078125 C 38.273438 41.167969 38.042969 41.214844 37.804688 41.214844 C 37.566406 41.214844 37.339844 41.167969 37.117188 41.078125 C 36.898438 40.988281 36.707031 40.855469 36.539062 40.6875 C 36.367188 40.519531 36.238281 40.324219 36.148438 40.101562 C 36.058594 39.882812 36.011719 39.652344 36.011719 39.414062 C 36.011719 39.175781 36.058594 38.945312 36.148438 38.726562 C 36.238281 38.503906 36.367188 38.308594 36.539062 38.140625 C 36.707031 37.972656 36.898438 37.839844 37.117188 37.75 C 37.339844 37.660156 37.566406 37.613281 37.804688 37.613281 C 38.042969 37.613281 38.273438 37.660156 38.492188 37.75 C 38.710938 37.839844 38.90625 37.972656 39.074219 38.140625 C 39.242188 38.308594 39.371094 38.503906 39.460938 38.726562 C 39.554688 38.945312 39.597656 39.175781 39.597656 39.414062 Z M 39.597656 39.414062 " fill-opacity="1" fill-rule="nonzero"/><path fill="#000000" d="M 48.464844 39.414062 C 48.464844 39.652344 48.417969 39.882812 48.328125 40.101562 C 48.238281 40.324219 48.105469 40.519531 47.9375 40.6875 C 47.769531 40.855469 47.578125 40.988281 47.355469 41.078125 C 47.136719 41.167969 46.910156 41.214844 46.671875 41.214844 C 46.433594 41.214844 46.203125 41.167969 45.984375 41.078125 C 45.765625 40.988281 45.570312 40.855469 45.402344 40.6875 C 45.234375 40.519531 45.105469 40.324219 45.011719 40.101562 C 44.921875 39.882812 44.875 39.652344 44.875 39.414062 C 44.875 39.175781 44.921875 38.945312 45.011719 38.726562 C 45.105469 38.503906 45.234375 38.308594 45.402344 38.140625 C 45.570312 37.972656 45.765625 37.839844 45.984375 37.75 C 46.203125 37.660156 46.433594 37.613281 46.671875 37.613281 C 46.910156 37.613281 47.136719 37.660156 47.355469 37.75 C 47.578125 37.839844 47.769531 37.972656 47.9375 38.140625 C 48.105469 38.308594 48.238281 38.503906 48.328125 38.726562 C 48.417969 38.945312 48.464844 39.175781 48.464844 39.414062 Z M 48.464844 39.414062 " fill-opacity="1" fill-rule="nonzero"/><path fill="#000000" d="M 57.320312 39.414062 C 57.320312 39.652344 57.273438 39.882812 57.183594 40.101562 C 57.09375 40.324219 56.960938 40.519531 56.792969 40.6875 C 56.625 40.855469 56.433594 40.988281 56.210938 41.078125 C 55.992188 41.167969 55.765625 41.214844 55.527344 41.214844 C 55.289062 41.214844 55.058594 41.167969 54.839844 41.078125 C 54.621094 40.988281 54.425781 40.855469 54.257812 40.6875 C 54.089844 40.519531 53.960938 40.324219 53.867188 40.101562 C 53.777344 39.882812 53.734375 39.652344 53.734375 39.414062 C 53.734375 39.175781 53.777344 38.945312 53.867188 38.726562 C 53.960938 38.503906 54.089844 38.308594 54.257812 38.140625 C 54.425781 37.972656 54.621094 37.839844 54.839844 37.75 C 55.058594 37.660156 55.289062 37.613281 55.527344 37.613281 C 55.765625 37.613281 55.992188 37.660156 56.210938 37.75 C 56.433594 37.839844 56.625 37.972656 56.792969 38.140625 C 56.960938 38.308594 57.09375 38.503906 57.183594 38.726562 C 57.273438 38.945312 57.320312 39.175781 57.320312 39.414062 Z M 57.320312 39.414062 " fill-opacity="1" fill-rule="nonzero"/><path fill="#000000" d="M 66.183594 39.414062 C 66.183594 39.652344 66.140625 39.882812 66.046875 40.101562 C 65.957031 40.324219 65.828125 40.519531 65.660156 40.6875 C 65.492188 40.855469 65.296875 40.988281 65.078125 41.078125 C 64.859375 41.167969 64.628906 41.214844 64.390625 41.214844 C 64.152344 41.214844 63.925781 41.167969 63.703125 41.078125 C 63.484375 40.988281 63.292969 40.855469 63.121094 40.6875 C 62.953125 40.519531 62.824219 40.324219 62.734375 40.101562 C 62.644531 39.882812 62.597656 39.652344 62.597656 39.414062 C 62.597656 39.175781 62.644531 38.945312 62.734375 38.726562 C 62.824219 38.503906 62.953125 38.308594 63.121094 38.140625 C 63.292969 37.972656 63.484375 37.839844 63.703125 37.75 C 63.925781 37.660156 64.152344 37.613281 64.390625 37.613281 C 64.628906 37.613281 64.859375 37.660156 65.078125 37.75 C 65.296875 37.839844 65.492188 37.972656 65.660156 38.140625 C 65.828125 38.308594 65.957031 38.503906 66.046875 38.726562 C 66.140625 38.945312 66.183594 39.175781 66.183594 39.414062 Z M 66.183594 39.414062 " fill-opacity="1" fill-rule="nonzero"/><path fill="#000000" d="M 75.050781 39.414062 C 75.050781 39.652344 75.003906 39.882812 74.914062 40.101562 C 74.824219 40.324219 74.691406 40.519531 74.523438 40.6875 C 74.355469 40.855469 74.164062 40.988281 73.941406 41.078125 C 73.722656 41.167969 73.496094 41.214844 73.257812 41.214844 C 73.019531 41.214844 72.789062 41.167969 72.570312 41.078125 C 72.351562 40.988281 72.15625 40.855469 71.988281 40.6875 C 71.820312 40.519531 71.691406 40.324219 71.597656 40.101562 C 71.507812 39.882812 71.460938 39.652344 71.460938 39.414062 C 71.460938 39.175781 71.507812 38.945312 71.597656 38.726562 C 71.691406 38.503906 71.820312 38.308594 71.988281 38.140625 C 72.15625 37.972656 72.351562 37.839844 72.570312 37.75 C 72.789062 37.660156 73.019531 37.613281 73.257812 37.613281 C 73.496094 37.613281 73.722656 37.660156 73.941406 37.75 C 74.164062 37.839844 74.355469 37.972656 74.523438 38.140625 C 74.691406 38.308594 74.824219 38.503906 74.914062 38.726562 C 75.003906 38.945312 75.050781 39.175781 75.050781 39.414062 Z M 75.050781 39.414062 " fill-opacity="1" fill-rule="nonzero"/><path fill="#000000" d="M 83.90625 39.414062 C 83.90625 39.652344 83.859375 39.882812 83.769531 40.101562 C 83.679688 40.324219 83.546875 40.519531 83.378906 40.6875 C 83.210938 40.855469 83.019531 40.988281 82.796875 41.078125 C 82.578125 41.167969 82.351562 41.214844 82.113281 41.214844 C 81.875 41.214844 81.644531 41.167969 81.425781 41.078125 C 81.207031 40.988281 81.011719 40.855469 80.84375 40.6875 C 80.675781 40.519531 80.546875 40.324219 80.453125 40.101562 C 80.363281 39.882812 80.316406 39.652344 80.316406 39.414062 C 80.316406 39.175781 80.363281 38.945312 80.453125 38.726562 C 80.546875 38.503906 80.675781 38.308594 80.84375 38.140625 C 81.011719 37.972656 81.207031 37.839844 81.425781 37.75 C 81.644531 37.660156 81.875 37.613281 82.113281 37.613281 C 82.351562 37.613281 82.578125 37.660156 82.796875 37.75 C 83.019531 37.839844 83.210938 37.972656 83.378906 38.140625 C 83.546875 38.308594 83.679688 38.503906 83.769531 38.726562 C 83.859375 38.945312 83.90625 39.175781 83.90625 39.414062 Z M 83.90625 39.414062 " fill-opacity="1" fill-rule="nonzero"/><g clip-path="url(#35d12f11c5)"><path fill="#000000" d="M 92.769531 39.414062 C 92.769531 39.652344 92.726562 39.882812 92.632812 40.101562 C 92.542969 40.324219 92.414062 40.519531 92.246094 40.6875 C 92.078125 40.855469 91.882812 40.988281 91.664062 41.078125 C 91.445312 41.167969 91.214844 41.214844 90.976562 41.214844 C 90.738281 41.214844 90.511719 41.167969 90.289062 41.078125 C 90.070312 40.988281 89.875 40.855469 89.707031 40.6875 C 89.539062 40.519531 89.410156 40.324219 89.320312 40.101562 C 89.230469 39.882812 89.183594 39.652344 89.183594 39.414062 C 89.183594 39.175781 89.230469 38.945312 89.320312 38.726562 C 89.410156 38.503906 89.539062 38.308594 89.707031 38.140625 C 89.875 37.972656 90.070312 37.839844 90.289062 37.75 C 90.511719 37.660156 90.738281 37.613281 90.976562 37.613281 C 91.214844 37.613281 91.445312 37.660156 91.664062 37.75 C 91.882812 37.839844 92.078125 37.972656 92.246094 38.140625 C 92.414062 38.308594 92.542969 38.503906 92.632812 38.726562 C 92.726562 38.945312 92.769531 39.175781 92.769531 39.414062 Z M 92.769531 39.414062 " fill-opacity="1" fill-rule="nonzero"/></g><g clip-path="url(#ee88c3becc)"><path fill="#000000" d="M 13.011719 48.15625 C 13.011719 48.394531 12.96875 48.625 12.878906 48.84375 C 12.785156 49.066406 12.65625 49.257812 12.488281 49.429688 C 12.320312 49.597656 12.125 49.726562 11.90625 49.820312 C 11.6875 49.910156 11.457031 49.957031 11.21875 49.957031 C 10.980469 49.957031 10.753906 49.910156 10.535156 49.820312 C 10.3125 49.726562 10.121094 49.597656 9.953125 49.429688 C 9.785156 49.257812 9.652344 49.066406 9.5625 48.84375 C 9.472656 48.625 9.425781 48.394531 9.425781 48.15625 C 9.425781 47.914062 9.472656 47.6875 9.5625 47.464844 C 9.652344 47.246094 9.785156 47.050781 9.953125 46.882812 C 10.121094 46.710938 10.3125 46.582031 10.535156 46.492188 C 10.753906 46.398438 10.980469 46.351562 11.21875 46.351562 C 11.457031 46.351562 11.6875 46.398438 11.90625 46.492188 C 12.125 46.582031 12.320312 46.710938 12.488281 46.882812 C 12.65625 47.050781 12.785156 47.246094 12.878906 47.464844 C 12.96875 47.6875 13.011719 47.914062 13.011719 48.15625 Z M 13.011719 48.15625 " fill-opacity="1" fill-rule="nonzero"/></g><path fill="#000000" d="M 21.878906 48.15625 C 21.878906 48.394531 21.832031 48.625 21.742188 48.84375 C 21.652344 49.066406 21.523438 49.257812 21.351562 49.429688 C 21.183594 49.597656 20.992188 49.726562 20.769531 49.820312 C 20.550781 49.910156 20.324219 49.957031 20.085938 49.957031 C 19.847656 49.957031 19.617188 49.910156 19.398438 49.820312 C 19.179688 49.726562 18.984375 49.597656 18.816406 49.429688 C 18.648438 49.257812 18.519531 49.066406 18.425781 48.84375 C 18.335938 48.625 18.292969 48.394531 18.292969 48.15625 C 18.292969 47.914062 18.335938 47.6875 18.425781 47.464844 C 18.519531 47.246094 18.648438 47.050781 18.816406 46.882812 C 18.984375 46.710938 19.179688 46.582031 19.398438 46.492188 C 19.617188 46.398438 19.847656 46.351562 20.085938 46.351562 C 20.324219 46.351562 20.550781 46.398438 20.769531 46.492188 C 20.992188 46.582031 21.183594 46.710938 21.351562 46.882812 C 21.523438 47.050781 21.652344 47.246094 21.742188 47.464844 C 21.832031 47.6875 21.878906 47.914062 21.878906 48.15625 Z M 21.878906 48.15625 " fill-opacity="1" fill-rule="nonzero"/><path fill="#000000" d="M 30.734375 48.15625 C 30.734375 48.394531 30.6875 48.625 30.597656 48.84375 C 30.507812 49.066406 30.378906 49.257812 30.207031 49.429688 C 30.039062 49.597656 29.847656 49.726562 29.628906 49.820312 C 29.40625 49.910156 29.179688 49.957031 28.941406 49.957031 C 28.703125 49.957031 28.472656 49.910156 28.253906 49.820312 C 28.035156 49.726562 27.839844 49.597656 27.671875 49.429688 C 27.503906 49.257812 27.375 49.066406 27.285156 48.84375 C 27.191406 48.625 27.148438 48.394531 27.148438 48.15625 C 27.148438 47.914062 27.191406 47.6875 27.285156 47.464844 C 27.375 47.246094 27.503906 47.050781 27.671875 46.882812 C 27.839844 46.710938 28.035156 46.582031 28.253906 46.492188 C 28.472656 46.398438 28.703125 46.351562 28.941406 46.351562 C 29.179688 46.351562 29.40625 46.398438 29.628906 46.492188 C 29.847656 46.582031 30.039062 46.710938 30.207031 46.882812 C 30.378906 47.050781 30.507812 47.246094 30.597656 47.464844 C 30.6875 47.6875 30.734375 47.914062 30.734375 48.15625 Z M 30.734375 48.15625 " fill-opacity="1" fill-rule="nonzero"/><path fill="#000000" d="M 39.597656 48.15625 C 39.597656 48.394531 39.554688 48.625 39.460938 48.84375 C 39.371094 49.066406 39.242188 49.257812 39.074219 49.429688 C 38.90625 49.597656 38.710938 49.726562 38.492188 49.820312 C 38.273438 49.910156 38.042969 49.957031 37.804688 49.957031 C 37.566406 49.957031 37.339844 49.910156 37.117188 49.820312 C 36.898438 49.726562 36.707031 49.597656 36.539062 49.429688 C 36.367188 49.257812 36.238281 49.066406 36.148438 48.84375 C 36.058594 48.625 36.011719 48.394531 36.011719 48.15625 C 36.011719 47.914062 36.058594 47.6875 36.148438 47.464844 C 36.238281 47.246094 36.367188 47.050781 36.539062 46.882812 C 36.707031 46.710938 36.898438 46.582031 37.117188 46.492188 C 37.339844 46.398438 37.566406 46.351562 37.804688 46.351562 C 38.042969 46.351562 38.273438 46.398438 38.492188 46.492188 C 38.710938 46.582031 38.90625 46.710938 39.074219 46.882812 C 39.242188 47.050781 39.371094 47.246094 39.460938 47.464844 C 39.554688 47.6875 39.597656 47.914062 39.597656 48.15625 Z M 39.597656 48.15625 " fill-opacity="1" fill-rule="nonzero"/><path fill="#000000" d="M 48.464844 48.15625 C 48.464844 48.394531 48.417969 48.625 48.328125 48.84375 C 48.238281 49.066406 48.105469 49.257812 47.9375 49.429688 C 47.769531 49.597656 47.578125 49.726562 47.355469 49.820312 C 47.136719 49.910156 46.910156 49.957031 46.671875 49.957031 C 46.433594 49.957031 46.203125 49.910156 45.984375 49.820312 C 45.765625 49.726562 45.570312 49.597656 45.402344 49.429688 C 45.234375 49.257812 45.105469 49.066406 45.011719 48.84375 C 44.921875 48.625 44.875 48.394531 44.875 48.15625 C 44.875 47.914062 44.921875 47.6875 45.011719 47.464844 C 45.105469 47.246094 45.234375 47.050781 45.402344 46.882812 C 45.570312 46.710938 45.765625 46.582031 45.984375 46.492188 C 46.203125 46.398438 46.433594 46.351562 46.671875 46.351562 C 46.910156 46.351562 47.136719 46.398438 47.355469 46.492188 C 47.578125 46.582031 47.769531 46.710938 47.9375 46.882812 C 48.105469 47.050781 48.238281 47.246094 48.328125 47.464844 C 48.417969 47.6875 48.464844 47.914062 48.464844 48.15625 Z M 48.464844 48.15625 " fill-opacity="1" fill-rule="nonzero"/><path fill="#000000" d="M 57.320312 48.15625 C 57.320312 48.394531 57.273438 48.625 57.183594 48.84375 C 57.09375 49.066406 56.960938 49.257812 56.792969 49.429688 C 56.625 49.597656 56.433594 49.726562 56.210938 49.820312 C 55.992188 49.910156 55.765625 49.957031 55.527344 49.957031 C 55.289062 49.957031 55.058594 49.910156 54.839844 49.820312 C 54.621094 49.726562 54.425781 49.597656 54.257812 49.429688 C 54.089844 49.257812 53.960938 49.066406 53.867188 48.84375 C 53.777344 48.625 53.734375 48.394531 53.734375 48.15625 C 53.734375 47.914062 53.777344 47.6875 53.867188 47.464844 C 53.960938 47.246094 54.089844 47.050781 54.257812 46.882812 C 54.425781 46.710938 54.621094 46.582031 54.839844 46.492188 C 55.058594 46.398438 55.289062 46.351562 55.527344 46.351562 C 55.765625 46.351562 55.992188 46.398438 56.210938 46.492188 C 56.433594 46.582031 56.625 46.710938 56.792969 46.882812 C 56.960938 47.050781 57.09375 47.246094 57.183594 47.464844 C 57.273438 47.6875 57.320312 47.914062 57.320312 48.15625 Z M 57.320312 48.15625 " fill-opacity="1" fill-rule="nonzero"/><path fill="#000000" d="M 66.183594 48.15625 C 66.183594 48.394531 66.140625 48.625 66.046875 48.84375 C 65.957031 49.066406 65.828125 49.257812 65.660156 49.429688 C 65.492188 49.597656 65.296875 49.726562 65.078125 49.820312 C 64.859375 49.910156 64.628906 49.957031 64.390625 49.957031 C 64.152344 49.957031 63.925781 49.910156 63.703125 49.820312 C 63.484375 49.726562 63.292969 49.597656 63.121094 49.429688 C 62.953125 49.257812 62.824219 49.066406 62.734375 48.84375 C 62.644531 48.625 62.597656 48.394531 62.597656 48.15625 C 62.597656 47.914062 62.644531 47.6875 62.734375 47.464844 C 62.824219 47.246094 62.953125 47.050781 63.121094 46.882812 C 63.292969 46.710938 63.484375 46.582031 63.703125 46.492188 C 63.925781 46.398438 64.152344 46.351562 64.390625 46.351562 C 64.628906 46.351562 64.859375 46.398438 65.078125 46.492188 C 65.296875 46.582031 65.492188 46.710938 65.660156 46.882812 C 65.828125 47.050781 65.957031 47.246094 66.046875 47.464844 C 66.140625 47.6875 66.183594 47.914062 66.183594 48.15625 Z M 66.183594 48.15625 " fill-opacity="1" fill-rule="nonzero"/><path fill="#000000" d="M 75.050781 48.15625 C 75.050781 48.394531 75.003906 48.625 74.914062 48.84375 C 74.824219 49.066406 74.691406 49.257812 74.523438 49.429688 C 74.355469 49.597656 74.164062 49.726562 73.941406 49.820312 C 73.722656 49.910156 73.496094 49.957031 73.257812 49.957031 C 73.019531 49.957031 72.789062 49.910156 72.570312 49.820312 C 72.351562 49.726562 72.15625 49.597656 71.988281 49.429688 C 71.820312 49.257812 71.691406 49.066406 71.597656 48.84375 C 71.507812 48.625 71.460938 48.394531 71.460938 48.15625 C 71.460938 47.914062 71.507812 47.6875 71.597656 47.464844 C 71.691406 47.246094 71.820312 47.050781 71.988281 46.882812 C 72.15625 46.710938 72.351562 46.582031 72.570312 46.492188 C 72.789062 46.398438 73.019531 46.351562 73.257812 46.351562 C 73.496094 46.351562 73.722656 46.398438 73.941406 46.492188 C 74.164062 46.582031 74.355469 46.710938 74.523438 46.882812 C 74.691406 47.050781 74.824219 47.246094 74.914062 47.464844 C 75.003906 47.6875 75.050781 47.914062 75.050781 48.15625 Z M 75.050781 48.15625 " fill-opacity="1" fill-rule="nonzero"/><path fill="#000000" d="M 83.90625 48.15625 C 83.90625 48.394531 83.859375 48.625 83.769531 48.84375 C 83.679688 49.066406 83.546875 49.257812 83.378906 49.429688 C 83.210938 49.597656 83.019531 49.726562 82.796875 49.820312 C 82.578125 49.910156 82.351562 49.957031 82.113281 49.957031 C 81.875 49.957031 81.644531 49.910156 81.425781 49.820312 C 81.207031 49.726562 81.011719 49.597656 80.84375 49.429688 C 80.675781 49.257812 80.546875 49.066406 80.453125 48.84375 C 80.363281 48.625 80.316406 48.394531 80.316406 48.15625 C 80.316406 47.914062 80.363281 47.6875 80.453125 47.464844 C 80.546875 47.246094 80.675781 47.050781 80.84375 46.882812 C 81.011719 46.710938 81.207031 46.582031 81.425781 46.492188 C 81.644531 46.398438 81.875 46.351562 82.113281 46.351562 C 82.351562 46.351562 82.578125 46.398438 82.796875 46.492188 C 83.019531 46.582031 83.210938 46.710938 83.378906 46.882812 C 83.546875 47.050781 83.679688 47.246094 83.769531 47.464844 C 83.859375 47.6875 83.90625 47.914062 83.90625 48.15625 Z M 83.90625 48.15625 " fill-opacity="1" fill-rule="nonzero"/><g clip-path="url(#9f16d0f548)"><path fill="#000000" d="M 13.011719 56.90625 C 13.011719 57.144531 12.96875 57.375 12.878906 57.59375 C 12.785156 57.816406 12.65625 58.007812 12.488281 58.179688 C 12.320312 58.347656 12.125 58.476562 11.90625 58.570312 C 11.6875 58.660156 11.457031 58.707031 11.21875 58.707031 C 10.980469 58.707031 10.753906 58.660156 10.535156 58.570312 C 10.3125 58.476562 10.121094 58.347656 9.953125 58.179688 C 9.785156 58.007812 9.652344 57.816406 9.5625 57.59375 C 9.472656 57.375 9.425781 57.144531 9.425781 56.90625 C 9.425781 56.664062 9.472656 56.4375 9.5625 56.214844 C 9.652344 55.996094 9.785156 55.800781 9.953125 55.632812 C 10.121094 55.460938 10.3125 55.332031 10.535156 55.242188 C 10.753906 55.148438 10.980469 55.101562 11.21875 55.101562 C 11.457031 55.101562 11.6875 55.148438 11.90625 55.242188 C 12.125 55.332031 12.320312 55.460938 12.488281 55.632812 C 12.65625 55.800781 12.785156 55.996094 12.878906 56.214844 C 12.96875 56.4375 13.011719 56.664062 13.011719 56.90625 Z M 13.011719 56.90625 " fill-opacity="1" fill-rule="nonzero"/></g><path fill="#000000" d="M 21.878906 56.90625 C 21.878906 57.144531 21.832031 57.375 21.742188 57.59375 C 21.652344 57.816406 21.523438 58.007812 21.351562 58.179688 C 21.183594 58.347656 20.992188 58.476562 20.769531 58.570312 C 20.550781 58.660156 20.324219 58.707031 20.085938 58.707031 C 19.847656 58.707031 19.617188 58.660156 19.398438 58.570312 C 19.179688 58.476562 18.984375 58.347656 18.816406 58.179688 C 18.648438 58.007812 18.519531 57.816406 18.425781 57.59375 C 18.335938 57.375 18.292969 57.144531 18.292969 56.90625 C 18.292969 56.664062 18.335938 56.4375 18.425781 56.214844 C 18.519531 55.996094 18.648438 55.800781 18.816406 55.632812 C 18.984375 55.460938 19.179688 55.332031 19.398438 55.242188 C 19.617188 55.148438 19.847656 55.101562 20.085938 55.101562 C 20.324219 55.101562 20.550781 55.148438 20.769531 55.242188 C 20.992188 55.332031 21.183594 55.460938 21.351562 55.632812 C 21.523438 55.800781 21.652344 55.996094 21.742188 56.214844 C 21.832031 56.4375 21.878906 56.664062 21.878906 56.90625 Z M 21.878906 56.90625 " fill-opacity="1" fill-rule="nonzero"/><path fill="#000000" d="M 30.734375 56.90625 C 30.734375 57.144531 30.6875 57.375 30.597656 57.59375 C 30.507812 57.816406 30.378906 58.007812 30.207031 58.179688 C 30.039062 58.347656 29.847656 58.476562 29.628906 58.570312 C 29.40625 58.660156 29.179688 58.707031 28.941406 58.707031 C 28.703125 58.707031 28.472656 58.660156 28.253906 58.570312 C 28.035156 58.476562 27.839844 58.347656 27.671875 58.179688 C 27.503906 58.007812 27.375 57.816406 27.285156 57.59375 C 27.191406 57.375 27.148438 57.144531 27.148438 56.90625 C 27.148438 56.664062 27.191406 56.4375 27.285156 56.214844 C 27.375 55.996094 27.503906 55.800781 27.671875 55.632812 C 27.839844 55.460938 28.035156 55.332031 28.253906 55.242188 C 28.472656 55.148438 28.703125 55.101562 28.941406 55.101562 C 29.179688 55.101562 29.40625 55.148438 29.628906 55.242188 C 29.847656 55.332031 30.039062 55.460938 30.207031 55.632812 C 30.378906 55.800781 30.507812 55.996094 30.597656 56.214844 C 30.6875 56.4375 30.734375 56.664062 30.734375 56.90625 Z M 30.734375 56.90625 " fill-opacity="1" fill-rule="nonzero"/><path fill="#000000" d="M 39.597656 56.90625 C 39.597656 57.144531 39.554688 57.375 39.460938 57.59375 C 39.371094 57.816406 39.242188 58.007812 39.074219 58.179688 C 38.90625 58.347656 38.710938 58.476562 38.492188 58.570312 C 38.273438 58.660156 38.042969 58.707031 37.804688 58.707031 C 37.566406 58.707031 37.339844 58.660156 37.117188 58.570312 C 36.898438 58.476562 36.707031 58.347656 36.539062 58.179688 C 36.367188 58.007812 36.238281 57.816406 36.148438 57.59375 C 36.058594 57.375 36.011719 57.144531 36.011719 56.90625 C 36.011719 56.664062 36.058594 56.4375 36.148438 56.214844 C 36.238281 55.996094 36.367188 55.800781 36.539062 55.632812 C 36.707031 55.460938 36.898438 55.332031 37.117188 55.242188 C 37.339844 55.148438 37.566406 55.101562 37.804688 55.101562 C 38.042969 55.101562 38.273438 55.148438 38.492188 55.242188 C 38.710938 55.332031 38.90625 55.460938 39.074219 55.632812 C 39.242188 55.800781 39.371094 55.996094 39.460938 56.214844 C 39.554688 56.4375 39.597656 56.664062 39.597656 56.90625 Z M 39.597656 56.90625 " fill-opacity="1" fill-rule="nonzero"/><path fill="#000000" d="M 48.464844 56.90625 C 48.464844 57.144531 48.417969 57.375 48.328125 57.59375 C 48.238281 57.816406 48.105469 58.007812 47.9375 58.179688 C 47.769531 58.347656 47.578125 58.476562 47.355469 58.570312 C 47.136719 58.660156 46.910156 58.707031 46.671875 58.707031 C 46.433594 58.707031 46.203125 58.660156 45.984375 58.570312 C 45.765625 58.476562 45.570312 58.347656 45.402344 58.179688 C 45.234375 58.007812 45.105469 57.816406 45.011719 57.59375 C 44.921875 57.375 44.875 57.144531 44.875 56.90625 C 44.875 56.664062 44.921875 56.4375 45.011719 56.214844 C 45.105469 55.996094 45.234375 55.800781 45.402344 55.632812 C 45.570312 55.460938 45.765625 55.332031 45.984375 55.242188 C 46.203125 55.148438 46.433594 55.101562 46.671875 55.101562 C 46.910156 55.101562 47.136719 55.148438 47.355469 55.242188 C 47.578125 55.332031 47.769531 55.460938 47.9375 55.632812 C 48.105469 55.800781 48.238281 55.996094 48.328125 56.214844 C 48.417969 56.4375 48.464844 56.664062 48.464844 56.90625 Z M 48.464844 56.90625 " fill-opacity="1" fill-rule="nonzero"/><path fill="#000000" d="M 57.320312 56.90625 C 57.320312 57.144531 57.273438 57.375 57.183594 57.59375 C 57.09375 57.816406 56.960938 58.007812 56.792969 58.179688 C 56.625 58.347656 56.433594 58.476562 56.210938 58.570312 C 55.992188 58.660156 55.765625 58.707031 55.527344 58.707031 C 55.289062 58.707031 55.058594 58.660156 54.839844 58.570312 C 54.621094 58.476562 54.425781 58.347656 54.257812 58.179688 C 54.089844 58.007812 53.960938 57.816406 53.867188 57.59375 C 53.777344 57.375 53.734375 57.144531 53.734375 56.90625 C 53.734375 56.664062 53.777344 56.4375 53.867188 56.214844 C 53.960938 55.996094 54.089844 55.800781 54.257812 55.632812 C 54.425781 55.460938 54.621094 55.332031 54.839844 55.242188 C 55.058594 55.148438 55.289062 55.101562 55.527344 55.101562 C 55.765625 55.101562 55.992188 55.148438 56.210938 55.242188 C 56.433594 55.332031 56.625 55.460938 56.792969 55.632812 C 56.960938 55.800781 57.09375 55.996094 57.183594 56.214844 C 57.273438 56.4375 57.320312 56.664062 57.320312 56.90625 Z M 57.320312 56.90625 " fill-opacity="1" fill-rule="nonzero"/><path fill="#000000" d="M 66.183594 56.90625 C 66.183594 57.144531 66.140625 57.375 66.046875 57.59375 C 65.957031 57.816406 65.828125 58.007812 65.660156 58.179688 C 65.492188 58.347656 65.296875 58.476562 65.078125 58.570312 C 64.859375 58.660156 64.628906 58.707031 64.390625 58.707031 C 64.152344 58.707031 63.925781 58.660156 63.703125 58.570312 C 63.484375 58.476562 63.292969 58.347656 63.121094 58.179688 C 62.953125 58.007812 62.824219 57.816406 62.734375 57.59375 C 62.644531 57.375 62.597656 57.144531 62.597656 56.90625 C 62.597656 56.664062 62.644531 56.4375 62.734375 56.214844 C 62.824219 55.996094 62.953125 55.800781 63.121094 55.632812 C 63.292969 55.460938 63.484375 55.332031 63.703125 55.242188 C 63.925781 55.148438 64.152344 55.101562 64.390625 55.101562 C 64.628906 55.101562 64.859375 55.148438 65.078125 55.242188 C 65.296875 55.332031 65.492188 55.460938 65.660156 55.632812 C 65.828125 55.800781 65.957031 55.996094 66.046875 56.214844 C 66.140625 56.4375 66.183594 56.664062 66.183594 56.90625 Z M 66.183594 56.90625 " fill-opacity="1" fill-rule="nonzero"/><path fill="#000000" d="M 75.050781 56.90625 C 75.050781 57.144531 75.003906 57.375 74.914062 57.59375 C 74.824219 57.816406 74.691406 58.007812 74.523438 58.179688 C 74.355469 58.347656 74.164062 58.476562 73.941406 58.570312 C 73.722656 58.660156 73.496094 58.707031 73.257812 58.707031 C 73.019531 58.707031 72.789062 58.660156 72.570312 58.570312 C 72.351562 58.476562 72.15625 58.347656 71.988281 58.179688 C 71.820312 58.007812 71.691406 57.816406 71.597656 57.59375 C 71.507812 57.375 71.460938 57.144531 71.460938 56.90625 C 71.460938 56.664062 71.507812 56.4375 71.597656 56.214844 C 71.691406 55.996094 71.820312 55.800781 71.988281 55.632812 C 72.15625 55.460938 72.351562 55.332031 72.570312 55.242188 C 72.789062 55.148438 73.019531 55.101562 73.257812 55.101562 C 73.496094 55.101562 73.722656 55.148438 73.941406 55.242188 C 74.164062 55.332031 74.355469 55.460938 74.523438 55.632812 C 74.691406 55.800781 74.824219 55.996094 74.914062 56.214844 C 75.003906 56.4375 75.050781 56.664062 75.050781 56.90625 Z M 75.050781 56.90625 " fill-opacity="1" fill-rule="nonzero"/><g clip-path="url(#7e25fa29a2)"><path fill="#000000" d="M 13.011719 65.65625 C 13.011719 65.894531 12.96875 66.125 12.878906 66.34375 C 12.785156 66.566406 12.65625 66.757812 12.488281 66.929688 C 12.320312 67.097656 12.125 67.226562 11.90625 67.320312 C 11.6875 67.410156 11.457031 67.457031 11.21875 67.457031 C 10.980469 67.457031 10.753906 67.410156 10.535156 67.320312 C 10.3125 67.226562 10.121094 67.097656 9.953125 66.929688 C 9.785156 66.757812 9.652344 66.566406 9.5625 66.34375 C 9.472656 66.125 9.425781 65.894531 9.425781 65.65625 C 9.425781 65.414062 9.472656 65.1875 9.5625 64.964844 C 9.652344 64.746094 9.785156 64.550781 9.953125 64.382812 C 10.121094 64.210938 10.3125 64.082031 10.535156 63.992188 C 10.753906 63.898438 10.980469 63.855469 11.21875 63.855469 C 11.457031 63.855469 11.6875 63.898438 11.90625 63.992188 C 12.125 64.082031 12.320312 64.210938 12.488281 64.382812 C 12.65625 64.550781 12.785156 64.746094 12.878906 64.964844 C 12.96875 65.1875 13.011719 65.414062 13.011719 65.65625 Z M 13.011719 65.65625 " fill-opacity="1" fill-rule="nonzero"/></g><g clip-path="url(#57b0264dfc)"><path fill="#000000" d="M 21.878906 65.65625 C 21.878906 65.894531 21.832031 66.125 21.742188 66.34375 C 21.652344 66.566406 21.523438 66.757812 21.351562 66.929688 C 21.183594 67.097656 20.992188 67.226562 20.769531 67.320312 C 20.550781 67.410156 20.324219 67.457031 20.085938 67.457031 C 19.847656 67.457031 19.617188 67.410156 19.398438 67.320312 C 19.179688 67.226562 18.984375 67.097656 18.816406 66.929688 C 18.648438 66.757812 18.519531 66.566406 18.425781 66.34375 C 18.335938 66.125 18.292969 65.894531 18.292969 65.65625 C 18.292969 65.414062 18.335938 65.1875 18.425781 64.964844 C 18.519531 64.746094 18.648438 64.550781 18.816406 64.382812 C 18.984375 64.210938 19.179688 64.082031 19.398438 63.992188 C 19.617188 63.898438 19.847656 63.855469 20.085938 63.855469 C 20.324219 63.855469 20.550781 63.898438 20.769531 63.992188 C 20.992188 64.082031 21.183594 64.210938 21.351562 64.382812 C 21.523438 64.550781 21.652344 64.746094 21.742188 64.964844 C 21.832031 65.1875 21.878906 65.414062 21.878906 65.65625 Z M 21.878906 65.65625 " fill-opacity="1" fill-rule="nonzero"/></g><g clip-path="url(#b98e6257b3)"><path fill="#000000" d="M 30.734375 65.65625 C 30.734375 65.894531 30.6875 66.125 30.597656 66.34375 C 30.507812 66.566406 30.378906 66.757812 30.207031 66.929688 C 30.039062 67.097656 29.847656 67.226562 29.628906 67.320312 C 29.40625 67.410156 29.179688 67.457031 28.941406 67.457031 C 28.703125 67.457031 28.472656 67.410156 28.253906 67.320312 C 28.035156 67.226562 27.839844 67.097656 27.671875 66.929688 C 27.503906 66.757812 27.375 66.566406 27.285156 66.34375 C 27.191406 66.125 27.148438 65.894531 27.148438 65.65625 C 27.148438 65.414062 27.191406 65.1875 27.285156 64.964844 C 27.375 64.746094 27.503906 64.550781 27.671875 64.382812 C 27.839844 64.210938 28.035156 64.082031 28.253906 63.992188 C 28.472656 63.898438 28.703125 63.855469 28.941406 63.855469 C 29.179688 63.855469 29.40625 63.898438 29.628906 63.992188 C 29.847656 64.082031 30.039062 64.210938 30.207031 64.382812 C 30.378906 64.550781 30.507812 64.746094 30.597656 64.964844 C 30.6875 65.1875 30.734375 65.414062 30.734375 65.65625 Z M 30.734375 65.65625 " fill-opacity="1" fill-rule="nonzero"/></g><g clip-path="url(#de4bb9a4fe)"><path fill="#000000" d="M 39.597656 65.65625 C 39.597656 65.894531 39.554688 66.125 39.460938 66.34375 C 39.371094 66.566406 39.242188 66.757812 39.074219 66.929688 C 38.90625 67.097656 38.710938 67.226562 38.492188 67.320312 C 38.273438 67.410156 38.042969 67.457031 37.804688 67.457031 C 37.566406 67.457031 37.339844 67.410156 37.117188 67.320312 C 36.898438 67.226562 36.707031 67.097656 36.539062 66.929688 C 36.367188 66.757812 36.238281 66.566406 36.148438 66.34375 C 36.058594 66.125 36.011719 65.894531 36.011719 65.65625 C 36.011719 65.414062 36.058594 65.1875 36.148438 64.964844 C 36.238281 64.746094 36.367188 64.550781 36.539062 64.382812 C 36.707031 64.210938 36.898438 64.082031 37.117188 63.992188 C 37.339844 63.898438 37.566406 63.855469 37.804688 63.855469 C 38.042969 63.855469 38.273438 63.898438 38.492188 63.992188 C 38.710938 64.082031 38.90625 64.210938 39.074219 64.382812 C 39.242188 64.550781 39.371094 64.746094 39.460938 64.964844 C 39.554688 65.1875 39.597656 65.414062 39.597656 65.65625 Z M 39.597656 65.65625 " fill-opacity="1" fill-rule="nonzero"/></g><g clip-path="url(#3c22c9a66c)"><path fill="#000000" d="M 48.464844 65.65625 C 48.464844 65.894531 48.417969 66.125 48.328125 66.34375 C 48.238281 66.566406 48.105469 66.757812 47.9375 66.929688 C 47.769531 67.097656 47.578125 67.226562 47.355469 67.320312 C 47.136719 67.410156 46.910156 67.457031 46.671875 67.457031 C 46.433594 67.457031 46.203125 67.410156 45.984375 67.320312 C 45.765625 67.226562 45.570312 67.097656 45.402344 66.929688 C 45.234375 66.757812 45.105469 66.566406 45.011719 66.34375 C 44.921875 66.125 44.875 65.894531 44.875 65.65625 C 44.875 65.414062 44.921875 65.1875 45.011719 64.964844 C 45.105469 64.746094 45.234375 64.550781 45.402344 64.382812 C 45.570312 64.210938 45.765625 64.082031 45.984375 63.992188 C 46.203125 63.898438 46.433594 63.855469 46.671875 63.855469 C 46.910156 63.855469 47.136719 63.898438 47.355469 63.992188 C 47.578125 64.082031 47.769531 64.210938 47.9375 64.382812 C 48.105469 64.550781 48.238281 64.746094 48.328125 64.964844 C 48.417969 65.1875 48.464844 65.414062 48.464844 65.65625 Z M 48.464844 65.65625 " fill-opacity="1" fill-rule="nonzero"/></g><g clip-path="url(#ab630eab08)"><path fill="#000000" d="M 57.320312 65.65625 C 57.320312 65.894531 57.273438 66.125 57.183594 66.34375 C 57.09375 66.566406 56.960938 66.757812 56.792969 66.929688 C 56.625 67.097656 56.433594 67.226562 56.210938 67.320312 C 55.992188 67.410156 55.765625 67.457031 55.527344 67.457031 C 55.289062 67.457031 55.058594 67.410156 54.839844 67.320312 C 54.621094 67.226562 54.425781 67.097656 54.257812 66.929688 C 54.089844 66.757812 53.960938 66.566406 53.867188 66.34375 C 53.777344 66.125 53.734375 65.894531 53.734375 65.65625 C 53.734375 65.414062 53.777344 65.1875 53.867188 64.964844 C 53.960938 64.746094 54.089844 64.550781 54.257812 64.382812 C 54.425781 64.210938 54.621094 64.082031 54.839844 63.992188 C 55.058594 63.898438 55.289062 63.855469 55.527344 63.855469 C 55.765625 63.855469 55.992188 63.898438 56.210938 63.992188 C 56.433594 64.082031 56.625 64.210938 56.792969 64.382812 C 56.960938 64.550781 57.09375 64.746094 57.183594 64.964844 C 57.273438 65.1875 57.320312 65.414062 57.320312 65.65625 Z M 57.320312 65.65625 " fill-opacity="1" fill-rule="nonzero"/></g><g clip-path="url(#7ec9387bab)"><path fill="#000000" d="M 66.183594 65.65625 C 66.183594 65.894531 66.140625 66.125 66.046875 66.34375 C 65.957031 66.566406 65.828125 66.757812 65.660156 66.929688 C 65.492188 67.097656 65.296875 67.226562 65.078125 67.320312 C 64.859375 67.410156 64.628906 67.457031 64.390625 67.457031 C 64.152344 67.457031 63.925781 67.410156 63.703125 67.320312 C 63.484375 67.226562 63.292969 67.097656 63.121094 66.929688 C 62.953125 66.757812 62.824219 66.566406 62.734375 66.34375 C 62.644531 66.125 62.597656 65.894531 62.597656 65.65625 C 62.597656 65.414062 62.644531 65.1875 62.734375 64.964844 C 62.824219 64.746094 62.953125 64.550781 63.121094 64.382812 C 63.292969 64.210938 63.484375 64.082031 63.703125 63.992188 C 63.925781 63.898438 64.152344 63.855469 64.390625 63.855469 C 64.628906 63.855469 64.859375 63.898438 65.078125 63.992188 C 65.296875 64.082031 65.492188 64.210938 65.660156 64.382812 C 65.828125 64.550781 65.957031 64.746094 66.046875 64.964844 C 66.140625 65.1875 66.183594 65.414062 66.183594 65.65625 Z M 66.183594 65.65625 " fill-opacity="1" fill-rule="nonzero"/></g><g fill="#5e17eb" fill-opacity="1"><g transform="translate(20.380209, 56.706371)"><g><path d="M 1.234375 -12.796875 C 1.078125 -5.171875 7.6875 0.734375 15.125 0.890625 C 22.546875 1.046875 25.953125 -4.15625 26.015625 -7.09375 C 26.03125 -7.75 25.671875 -7.90625 25.40625 -7.921875 C 24.625 -7.9375 24.015625 -5.921875 20.34375 -6 C 14.65625 -6.125 5.40625 -12.9375 5.546875 -19.25 C 5.59375 -21.5625 6.828125 -23.25 9.078125 -23.203125 C 11.59375 -23.140625 14.015625 -21.125 15.5625 -18.84375 C 16.84375 -16.953125 16.390625 -15.578125 17.3125 -15.5625 C 17.90625 -15.546875 20.03125 -17.515625 21.6875 -18.921875 C 23.109375 -20.125 24.90625 -21.4375 24.921875 -22.453125 C 24.96875 -24.3125 19.96875 -27.265625 15.78125 -27.359375 C 6.109375 -27.5625 1.40625 -20.84375 1.234375 -12.796875 Z M 1.234375 -12.796875 "/></g></g></g><g fill="#5e17eb" fill-opacity="1"><g transform="translate(51.053728, 56.339743)"><g><path d="M -1.59375 -23.734375 C 2.21875 -23.734375 2.296875 -19.171875 2.296875 -18.0625 L 2.296875 -4.921875 C 2.296875 -2.9375 1.828125 -0.796875 0.90625 0 L 11.828125 0 C 10.90625 -0.796875 10.4375 -2.96875 10.4375 -4.953125 L 10.4375 -17.703125 C 11 -19.5625 12.21875 -21.46875 14.71875 -21.46875 C 16.671875 -21.46875 18.171875 -20.046875 18.171875 -17.5 L 18.171875 -4.921875 C 18.171875 -2.9375 17.703125 -0.796875 16.78125 0 L 27.703125 0 C 26.78125 -0.796875 26.3125 -2.96875 26.3125 -4.953125 L 26.3125 -19.484375 C 26.3125 -25.484375 23.21875 -28.375 18.171875 -28.375 C 16.703125 -28.375 15.515625 -27.9375 14.484375 -27.34375 L 10.4375 -19.25 L 10.4375 -28.375 C 7.78125 -26.75 2.34375 -24.125 -1.59375 -23.9375 Z M -1.59375 -23.734375 "/></g></g></g></svg>